<?xml version="1.0" encoding="UTF-8"?><svg id="Layer_2" xmlns="http://www.w3.org/2000/svg" viewBox="0 0 540 540"><defs><style>.cls-1{fill:none;}.cls-2{opacity:.05;}.cls-2,.cls-3,.cls-4{fill:#fff;}.cls-3{opacity:.1;}.cls-5{fill:#ea9e06;}.cls-6{fill:#eed5af;}.cls-7{fill:#eeb138;}.cls-8{fill:#bcd0e1;}.cls-9{fill:#cc9a4a;}.cls-10{fill:#4797c2;}.cls-11{fill:#82b3d8;}.cls-4{opacity:.2;}</style></defs><g id="Layer_4"><g><g><g><ellipse class="cls-6" cx="256.85" cy="259.25" rx="155.46" ry="141.19" transform="translate(-108.02 266.33) rotate(-46.38)"/><ellipse class="cls-7" cx="270" cy="270.31" rx="154.01" ry="139.88" transform="translate(-111.95 279.28) rotate(-46.38)"/><ellipse class="cls-7" cx="270" cy="270.31" rx="137.29" ry="124.7" transform="translate(-111.95 279.28) rotate(-46.38)"/><ellipse class="cls-4" cx="270" cy="270.31" rx="137.29" ry="124.7" transform="translate(-111.95 279.28) rotate(-46.38)"/><polygon class="cls-6" points="268.5 155.45 266.22 154.45 266.22 138.46 269.22 138.46 268.5 155.45"/><polygon class="cls-6" points="185.49 198.74 174.19 188.52 176.2 186.3 187.5 196.51 187.78 198.02 185.49 198.74"/><polygon class="cls-6" points="137.44 282.83 137.16 279.84 153.14 278.3 155 279.87 153.43 281.29 137.44 282.83"/><path class="cls-9" d="m357.47,164.58c21.24,21.22,34.19,50.92,34.19,84.9,0,72.26-58.58,136.48-130.84,143.44-33.63,3.24-64.28-6.5-87.46-25.11,23.93,23.91,58.37,37.03,96.65,33.35,72.26-6.96,130.84-71.18,130.84-143.44,0-38.64-16.75-71.75-43.38-93.13Z"/><polygon class="cls-6" points="177.45 371.32 175.23 369.3 186.53 356.91 188.75 358.93 189.89 360.36 177.45 371.32"/><polygon class="cls-6" points="269.07 402.46 266.07 402.46 266.07 384.6 269.07 384.6 271.5 385.17 269.07 402.46"/><polygon class="cls-6" points="350.11 180.26 348.97 178.26 360.27 165.87 362.49 167.89 350.11 180.26"/><polygon class="cls-6" points="383.91 259.25 383.62 256.26 401.52 254.72 401.81 257.71 385 260.74 383.91 259.25"/><path class="cls-7" d="m270.03,123.41c-81.06,7.81-146.77,79.85-146.77,160.91s65.71,140.45,146.77,132.64c81.06-7.81,146.77-79.85,146.77-160.91s-65.71-140.45-146.77-132.64Zm1.47,277.46v-15.7h-3v15.99c-34.94,2.96-66.58-8.08-89.82-28.51l11.21-12.29-2.22-2.02-11.22,12.3c-22.73-21.07-36.86-51.4-37.25-86.36l16.08-1.42-.29-2.99-15.79,1.39c.4-34.98,14.49-67.99,37.17-93.41l11.4,10.17,2.01-2.23-11.4-10.17c23.27-25.08,55.03-42.34,90.11-46.12v15.94h3v-16.23c34.88-2.97,66.48,8.01,89.72,28.37l-11.11,12.67,2.22,2.02,11.12-12.69c22.86,21.11,37.05,51.56,37.41,86.66l-16.14,1.5.29,2.99,15.85-1.47c-.89,71.08-58.33,133.98-129.35,141.6Z"/><path class="cls-6" d="m274.22,164.8l-5.85-2.91c-.65-.46-1.37-.83-2.16-1.07h0s0,0,0,0c-.69-.21-1.43-.33-2.19-.33-4.14,0-7.5,3.36-7.5,7.5v94.96l-52.66,30.12c-3.6,2.06-4.84,6.64-2.79,10.23.55.96,1.28,1.74,2.13,2.35h0s.05.03.05.03c.57.4,1.19.72,1.83.95l5.28,2.73.35-2.98c.2-.09.4-.18.6-.29l60.21-34.44v-103.66c0-.56-.07-1.1-.18-1.62l2.88-1.57Z"/><path class="cls-5" d="m213.57,310.08c-2.6,0-5.13-1.36-6.52-3.78-2.06-3.6-.81-8.18,2.79-10.23l52.66-30.12v-94.96c0-4.14,3.36-7.5,7.5-7.5s7.5,3.36,7.5,7.5v103.66l-60.21,34.44c-1.17.67-2.45.99-3.72.99Z"/></g><g><path class="cls-8" d="m355.73,270c1.14,1.16,2.36,2.22,3.64,3.19,19.26,14.59,52.93,9.06,52.93,9.06l6.78,3.08s-7.91,53.07-14.89,75.8c-8.19,26.68-48.46,47.93-48.46,47.93,0,0-40.27-13.5-48.46-38.6-8.08-24.75-8.11-77.32-8.11-77.32,0,0,38.31-1.09,56.57-23.15Z"/><g><path class="cls-10" d="m362.52,273.08c18.26,18.55,56.57,12.25,56.57,12.25,0,0-.04,52.58-8.11,78.88-8.19,26.68-48.46,47.93-48.46,47.93,0,0-40.27-13.5-48.46-38.6-8.08-24.75-8.11-77.32-8.11-77.32,0,0,38.31-1.09,56.57-23.15Z"/><polygon class="cls-8" points="356.33 366.07 333.96 348.25 338.95 342 354.9 354.7 384.7 315.39 389.53 317.35 391.08 320.22 356.33 366.07"/><polygon class="cls-11" points="361.15 368.04 338.79 350.22 343.77 343.96 359.73 356.67 389.53 317.35 395.9 322.19 361.15 368.04"/><polygon class="cls-8" points="333.96 348.25 338.79 350.22 343.77 343.96 338.95 342 333.96 348.25"/><polygon class="cls-11" points="333.96 348.25 338.79 350.22 361.15 368.04 356.33 366.07 333.96 348.25"/><polygon class="cls-3" points="333.96 348.25 338.79 350.22 361.15 368.04 356.33 366.07 333.96 348.25"/></g><path class="cls-11" d="m362.52,273.08h0s-6.79-3.08-6.79-3.08c-18.26,22.06-56.57,23.15-56.57,23.15l6.79,3.08s38.31-1.09,56.57-23.15Z"/><path class="cls-2" d="m419.08,285.34h0l-6.79-3.08s-22.93,3.75-41.77-3.14c19.56,10.98,48.56,6.22,48.56,6.22Z"/></g></g><rect class="cls-1" width="540" height="540"/></g></g></svg>