<svg width="58" height="58" viewBox="0 0 58 58" fill="none" xmlns="http://www.w3.org/2000/svg">
<path d="M24.1668 28.9998C29.5077 28.9998 33.8335 24.674 33.8335 19.3332C33.8335 13.9923 29.5077 9.6665 24.1668 9.6665C18.826 9.6665 14.5002 13.9923 14.5002 19.3332C14.5002 24.674 18.826 28.9998 24.1668 28.9998ZM24.1668 14.4998C25.4487 14.4998 26.6781 15.0091 27.5845 15.9155C28.4909 16.8219 29.0002 18.0513 29.0002 19.3332C29.0002 20.6151 28.4909 21.8444 27.5845 22.7509C26.6781 23.6573 25.4487 24.1665 24.1668 24.1665C21.4843 24.1665 19.3335 22.0157 19.3335 19.3332C19.3335 16.6507 21.5085 14.4998 24.1668 14.4998ZM29.0002 48.3332H4.8335V41.0832C4.8335 34.6307 17.7143 31.4165 24.1668 31.4165C26.366 31.4165 29.3143 31.8032 32.2627 32.5523C32.0452 33.3498 31.9002 34.1957 31.9002 35.0415V37.1923C29.5318 36.4915 26.8252 36.0082 24.1668 36.0082C16.9893 36.0082 9.42516 39.5365 9.42516 41.0832V43.7415H29.0002V48.3332ZM50.2668 41.0832H39.8752V35.0415C39.8752 33.1082 41.5668 31.8998 43.5002 31.8998C45.4335 31.8998 47.1252 33.1082 47.1252 35.0415V36.2498H50.2668V35.0415C50.2668 31.6582 46.8835 28.9998 43.5002 28.9998C40.1168 28.9998 36.7335 31.6582 36.7335 35.0415V41.0832C35.2835 41.0832 33.8335 42.5332 33.8335 43.9832V52.4415C33.8335 54.1332 35.2835 55.5832 36.7335 55.5832H50.0252C51.7168 55.5832 53.1668 54.1332 53.1668 52.6832V44.2248C53.1668 42.5332 51.7168 41.0832 50.2668 41.0832Z" fill="url(#paint0_linear_4502_48950)"/>
<defs>
<linearGradient id="paint0_linear_4502_48950" x1="46.6633" y1="-5.09239" x2="-5.81496" y2="-1.1403" gradientUnits="userSpaceOnUse">
<stop stop-color="#0055DD"/>
<stop offset="1" stop-color="#4296F8"/>
</linearGradient>
</defs>
</svg>
