<svg xmlns="http://www.w3.org/2000/svg" enable-background="new 0 0 52 52" viewBox="0 0 52 52" fill='#fff'><path fill="#fff" d="M50.84131,45.38086V9.68848c0-0.31738-0.15137-0.61719-0.40723-0.80566s-0.58496-0.24414-0.88965-0.14941
		l-12.65466,3.93262c0.11945-0.60669,0.18298-1.13696,0.18298-1.58691C37.07275,5.52149,32.55127,1,26.99365,1
		c-4.87451,0-9.00989,3.48169-9.89014,8.18066L1.89404,13.35352c-0.43457,0.12012-0.73535,0.51465-0.73535,0.96484V50
		c0,0.31152,0.14551,0.60547,0.39355,0.79492C1.72803,50.92969,1.94189,51,2.15869,51c0.08789,0,0.17676-0.01172,0.26367-0.03516
		L19.039,46.41992l15.62262,4.54004C34.75342,50.9873,34.84717,51,34.94092,51c0.09961,0,0.19922-0.01465,0.2959-0.04492
		l0.01831-0.00562c0.00018-0.00012,0.00043-0.00024,0.00043-0.00024l14.88165-4.61328
		C50.55615,46.20605,50.84131,45.81934,50.84131,45.38086z M18.04639,44.61719l-14.8877,4.07227v-33.6084l13.75977-3.77539
		c0.05942,1.40068,0.66146,3.33305,1.12793,4.66309V44.61719z M33.94092,48.66797l-13.89453-4.03809V20.93457
		c0.73217,1.66292,1.74619,3.83414,2.81152,5.9834c1.74707,3.55371,3.24316,6.29883,3.25781,6.32617
		c0.17578,0.32031,0.51172,0.52051,0.87793,0.52051s0.70215-0.2002,0.87793-0.52051
		c0.01465-0.02734,1.51074-2.77246,3.25684-6.32324c1.10772-2.23765,2.16094-4.50725,2.8125-5.9873V48.66797z M29.33447,26.03516
		c-0.9082,1.84766-1.74707,3.47363-2.34082,4.60352c-0.59375-1.13086-1.43359-2.75684-2.34277-4.60645
		c-1.60536-3.23906-6.17725-12.34642-5.67383-15.9375C19.4585,6.04981,22.90479,3,26.99365,3
		c4.45508,0,8.0791,3.62402,8.0791,8.0791C35.07275,14.25951,30.75744,23.1632,29.33447,26.03516z M48.84131,44.64355
		l-12.90039,3.99902v-32.6709c0.12402-0.35059,0.2373-0.69336,0.34277-1.02246l12.55762-3.90234V44.64355z"/><path fill="#fff" d="M26.99365,5.70899c-2.7959,0-5.12109,2.27051-5.18262,5.06055c0,0.00781,0,0.11328,0,0.12109
		c0,2.86328,2.3252,5.19238,5.18262,5.19238c1.82324,0,3.52441-0.96973,4.42676-2.50977
		c0.49414-0.79785,0.75488-1.72559,0.75488-2.68262C32.17529,8.03321,29.85107,5.70899,26.99365,5.70899z M29.70654,12.54102
		c-0.56543,0.96582-1.5791,1.54199-2.71289,1.54199c-1.75488,0-3.18262-1.43164-3.18262-3.26855
		c0.03711-1.71289,1.46582-3.10547,3.18262-3.10547c1.75391,0,3.18164,1.42773,3.18164,3.18164
		C30.17529,11.47559,30.01807,12.03906,29.70654,12.54102z"/></svg>