<svg width="180" height="181" viewBox="0 0 180 181" fill="none" xmlns="http://www.w3.org/2000/svg">
<g clip-path="url(#clip0_2280_114423)">
<path d="M102.653 62.2424C108.923 61.692 114.61 56.0917 114.61 48.8768C114.61 41.662 109.143 37.034 102.653 37.6028C96.3094 38.1578 90.6953 43.9003 90.6953 51.1151C90.6953 58.33 96.4562 62.7882 102.653 62.247V62.2424ZM96.236 50.5556C96.236 45.5974 98.7862 42.6757 102.653 42.3408C106.588 41.9968 109.07 44.6938 109.07 49.363C109.07 54.0323 106.593 57.1604 102.653 57.509C98.7862 57.8484 96.236 55.5184 96.236 50.5602V50.5556Z" fill="#EED5AF"/>
<path d="M129.922 35.6532L98.0625 90.5695L100.25 92.8215L103.603 90.0833L135.462 35.167L129.922 35.6532Z" fill="#EED5AF"/>
<path d="M130.942 63.6324C124.598 64.1874 118.984 69.9299 118.984 77.1447C118.984 84.3596 124.745 88.8178 130.942 88.2766C137.212 87.7262 142.899 82.1259 142.899 74.911C142.899 67.6962 137.432 63.0682 130.942 63.637V63.6324ZM130.942 83.5386C127.075 83.878 124.525 81.5479 124.525 76.5897C124.525 71.6315 127.075 68.7098 130.942 68.375C134.877 68.031 137.359 70.728 137.359 75.3972C137.359 80.0664 134.882 83.1946 130.942 83.5431V83.5386Z" fill="#EED5AF"/>
<path d="M83.7868 123.204L81.4843 119.856L39.5575 123.525L63.4954 98.0963C74.1869 86.7122 80.9936 75.6629 80.9936 64.9713C80.9936 50.0233 70.7836 41.4371 54.744 42.8406C38.2182 44.2854 27.889 56.0044 26.5497 73.1356L28.8522 76.4839L37.5577 74.8097V67.2555L37.2688 67.4068C39.8098 57.0088 45.933 52.1148 54.7394 51.3443C64.5824 50.482 70.2928 55.8163 70.2928 65.54C70.2928 74.4107 65.674 82.7126 57.7758 91.7896L23.2656 131.143V133.574L25.5681 136.923L27.944 133.161L81.4752 128.478V125.882L83.4107 125.658L83.7777 123.199L83.7868 123.204Z" fill="#EED5AF"/>
<path d="M155.716 93.9224L155.147 93.3858C154.959 93.0785 154.702 92.8308 154.386 92.6611L154.377 92.6519C154.033 92.4776 153.629 92.3813 153.198 92.4226L89.9384 97.9587C88.6862 98.0688 87.668 99.1742 87.668 100.426V123.594C87.668 124.846 88.6862 125.772 89.9384 125.667L153.198 120.131C154.45 120.021 155.468 118.915 155.468 117.663V94.4958C155.468 94.3398 155.45 94.1839 155.422 94.0417L155.725 93.9316L155.716 93.9224Z" fill="#2C681A"/>
<path d="M153.858 120.864L90.5985 126.401C89.3464 126.511 88.3281 125.584 88.3281 124.327V101.16C88.3281 99.9079 89.3464 98.8025 90.5985 98.6924L153.858 93.1563C155.11 93.0463 156.128 93.9728 156.128 95.2295V118.397C156.128 119.649 155.11 120.754 153.858 120.864Z" fill="#499B2D"/>
<path d="M151.863 118.557L92.5297 123.75C91.6491 123.828 90.9336 123.176 90.9336 122.296V102.724C90.9336 101.844 91.6491 101.064 92.5297 100.99L151.863 95.7983C152.744 95.7203 153.459 96.3717 153.459 97.2523V116.824C153.459 117.704 152.744 118.484 151.863 118.557Z" fill="#B6D3AB"/>
<path d="M130.329 111.897C131.556 107.198 129.293 102.538 125.273 101.488C121.254 100.438 117 103.396 115.773 108.094C114.546 112.793 116.809 117.453 120.829 118.503C124.848 119.553 129.102 116.595 130.329 111.897Z" fill="#499B2D"/>
<path d="M157.88 95.9127L157.311 95.376C157.123 95.0687 156.866 94.821 156.55 94.6513L156.541 94.6422C156.197 94.4679 155.793 94.3715 155.362 94.4128L92.1024 99.9489C90.8503 100.059 89.832 101.164 89.832 102.417V125.584C89.832 126.836 90.8503 127.763 92.1024 127.657L155.362 122.121C156.614 122.011 157.632 120.905 157.632 119.653V96.486C157.632 96.33 157.614 96.1741 157.586 96.0319L157.889 95.9218L157.88 95.9127Z" fill="#2C681A"/>
<path d="M156.022 122.855L92.7626 128.391C91.5104 128.501 90.4922 127.574 90.4922 126.318V103.15C90.4922 101.898 91.5104 100.793 92.7626 100.683L156.022 95.1466C157.274 95.0365 158.292 95.963 158.292 97.2197V120.387C158.292 121.639 157.274 122.745 156.022 122.855Z" fill="#499B2D"/>
<path d="M154.027 120.553L94.6938 125.745C93.8132 125.823 93.0977 125.171 93.0977 124.291V104.719C93.0977 103.839 93.8132 103.059 94.6938 102.986L154.027 97.7934C154.908 97.7155 155.623 98.3668 155.623 99.2474V118.819C155.623 119.699 154.908 120.479 154.027 120.553Z" fill="#B6D3AB"/>
<path d="M132.493 113.888C133.72 109.19 131.457 104.53 127.437 103.48C123.418 102.43 119.164 105.387 117.937 110.086C116.71 114.784 118.973 119.444 122.993 120.494C127.012 121.544 131.266 118.586 132.493 113.888Z" fill="#499B2D"/>
<path d="M25.5781 134.496L60.0883 95.1422C67.9866 86.0651 72.6053 77.7632 72.6053 68.8926C72.6053 59.1688 66.8949 53.8391 57.0519 54.6968C46.9658 55.5775 40.4023 61.8658 38.7006 75.6258L28.8576 76.4881C30.1923 59.3569 40.5215 47.6379 57.0519 46.1931C73.0915 44.7896 83.3015 53.3759 83.3015 68.3238C83.3015 79.0154 76.4948 90.0647 65.8033 101.449L41.8654 126.877L83.7923 123.208V131.836L25.5827 136.927V134.496H25.5781Z" fill="#EEB138"/>
<path d="M92.8828 53.3619C92.8828 46.1425 98.4969 40.4046 104.84 39.8496C111.33 39.2808 116.798 44.051 116.798 51.1236C116.798 58.1963 111.11 63.9434 104.84 64.4892C98.5703 65.035 92.8828 60.43 92.8828 53.3574V53.3619ZM111.257 51.6098C111.257 46.9452 108.78 44.2436 104.84 44.5876C100.974 44.927 98.4235 47.8488 98.4235 52.8024C98.4235 57.756 100.974 60.0906 104.84 59.7512C108.776 59.4072 111.257 56.4901 111.257 51.6052V51.6098ZM132.108 37.9002L137.649 37.4141L105.785 92.3304L100.244 92.8165L132.108 37.9002ZM121.173 79.3959C121.173 72.1765 126.788 66.4386 133.131 65.8836C139.474 65.3286 145.088 70.085 145.088 77.1576C145.088 84.2303 139.401 89.9774 133.131 90.5232C126.861 91.069 121.173 86.464 121.173 79.3913V79.3959ZM139.548 77.6438C139.548 72.9792 137.071 70.2776 133.131 70.6216C129.264 70.961 126.714 73.8827 126.714 78.8364C126.714 83.79 129.264 86.1246 133.131 85.7852C137.066 85.4412 139.548 82.524 139.548 77.6392V77.6438Z" fill="#EEB138"/>
<path d="M160.067 98.2203L159.499 97.6836C159.311 97.3763 159.054 97.1286 158.737 96.9589L158.728 96.9498C158.384 96.7755 157.981 96.6792 157.549 96.7204L94.2899 102.257C93.0378 102.367 92.0195 103.472 92.0195 104.724V127.892C92.0195 129.144 93.0378 130.07 94.2899 129.965L157.549 124.429C158.802 124.318 159.82 123.213 159.82 121.961V98.7936C159.82 98.6377 159.801 98.4817 159.774 98.3395L160.077 98.2295L160.067 98.2203Z" fill="#2C681A"/>
<path d="M158.21 125.167L94.9501 130.703C93.6979 130.813 92.6797 129.887 92.6797 128.63V105.463C92.6797 104.211 93.6979 103.105 94.9501 102.995L158.21 97.4591C159.462 97.349 160.48 98.2755 160.48 99.5323V122.7C160.48 123.952 159.462 125.057 158.21 125.167Z" fill="#499B2D"/>
<path d="M156.215 122.86L96.8813 128.052C96.0007 128.13 95.2852 127.479 95.2852 126.598V107.027C95.2852 106.146 96.0007 105.367 96.8813 105.293L156.215 100.101C157.095 100.023 157.811 100.674 157.811 101.555V121.126C157.811 122.007 157.095 122.787 156.215 122.86Z" fill="#B6D3AB"/>
<path d="M134.684 116.195C135.912 111.496 133.648 106.836 129.629 105.786C125.609 104.736 121.356 107.694 120.129 112.392C118.901 117.091 121.165 121.751 125.184 122.801C129.204 123.851 133.457 120.893 134.684 116.195Z" fill="#499B2D"/>
<path d="M137.647 37.419L135.459 35.167L129.918 35.6532L132.106 37.9006L137.647 37.419Z" fill="#EED5AF"/>
</g>
<defs>
<clipPath id="clip0_2280_114423">
<rect width="180" height="180" fill="white" transform="translate(0 0.5)"/>
</clipPath>
</defs>
</svg>
