<svg width="180" height="180" viewBox="0 0 180 180" fill="none" xmlns="http://www.w3.org/2000/svg">
<path d="M124.167 26.0671C123.223 25.5637 122.11 25.3204 120.92 25.4271L54.19 31.2637C50.79 31.5604 48.0366 34.5571 48.0366 37.9571V146.367C48.0366 148.097 48.7533 149.6 49.9033 150.617L53.1933 152.524L126.677 144.494L126.4 27.2504L124.17 26.0637L124.167 26.0671Z" fill="#B6D3AB"/>
<path d="M123.367 147.44L56.6367 153.276C53.2367 153.573 50.4834 151.06 50.4834 147.66V39.253C50.4834 35.853 53.2401 32.8563 56.6367 32.5597L123.367 26.723C126.767 26.4263 129.52 28.9397 129.52 32.3397V140.746C129.52 144.146 126.763 147.143 123.367 147.44Z" fill="#499B2D"/>
<path d="M119.124 58.9566C119.124 58.8533 119.157 58.7433 119.224 58.6466C119.237 58.6266 120.75 56.3666 120.75 52.6C120.75 49.11 119.22 46.82 119.204 46.7966C119.054 46.5766 119.12 46.2566 119.357 46.0833C119.59 45.91 119.904 45.95 120.057 46.1733C120.127 46.2766 121.764 48.71 121.764 52.51C121.764 56.63 120.11 59.0733 120.04 59.1733C119.874 59.4133 119.557 59.49 119.334 59.3433C119.2 59.2566 119.127 59.11 119.127 58.9533L119.124 58.9566Z" fill="#B6D3AB"/>
<path d="M116.73 57.7168C116.73 57.6135 116.763 57.5035 116.83 57.4068C116.84 57.3901 117.977 55.6868 117.977 52.8435C117.977 50.2068 116.823 48.4735 116.81 48.4568C116.66 48.2335 116.727 47.9168 116.963 47.7435C117.2 47.5701 117.51 47.6101 117.663 47.8335C117.717 47.9135 118.99 49.8068 118.99 52.7568C118.99 55.9568 117.7 57.8568 117.647 57.9368C117.48 58.1768 117.163 58.2535 116.94 58.1068C116.807 58.0201 116.733 57.8735 116.733 57.7168H116.73Z" fill="#B6D3AB"/>
<path d="M114.327 56.5462C114.327 56.4428 114.36 56.3328 114.427 56.2362C114.433 56.2262 115.213 55.0495 115.213 53.0862C115.213 51.2595 114.417 50.0595 114.41 50.0462C114.26 49.8228 114.327 49.5062 114.563 49.3328C114.797 49.1628 115.11 49.2028 115.263 49.4228C115.303 49.4795 116.23 50.8595 116.23 52.9962C116.23 55.3162 115.287 56.7062 115.247 56.7662C115.08 57.0062 114.763 57.0828 114.54 56.9362C114.407 56.8495 114.333 56.7028 114.333 56.5462H114.327Z" fill="#B6D3AB"/>
<path d="M111.907 55.5235C111.907 55.4201 111.94 55.3101 112.007 55.2135C112.007 55.2135 112.47 54.5068 112.47 53.3268C112.47 52.2301 111.993 51.5035 111.99 51.4968C111.84 51.2735 111.91 50.9568 112.143 50.7835C112.377 50.6101 112.69 50.6535 112.84 50.8735C112.867 50.9135 113.483 51.8268 113.483 53.2368C113.483 54.7668 112.85 55.7001 112.823 55.7401C112.657 55.9801 112.34 56.0568 112.117 55.9101C111.983 55.8235 111.91 55.6768 111.91 55.5201L111.907 55.5235Z" fill="#B6D3AB"/>
<path d="M105.503 62.9697L94.9898 63.8897C93.9498 63.9797 93.1064 63.2097 93.1064 62.1697V47.8697C93.1064 46.8297 93.9498 45.9131 94.9898 45.8197L105.503 44.8997C106.543 44.8097 107.386 45.5797 107.386 46.6197V60.9197C107.386 61.9597 106.543 62.8764 105.503 62.9697Z" fill="#B6D3AB"/>
<path d="M103.303 51.6896L97.1932 52.2229C96.3532 52.2962 95.6699 51.5829 95.6699 50.6329V45.7629L96.0166 45.7329V50.6029C96.0166 51.3362 96.5432 51.8862 97.1932 51.8296L103.303 51.2962C103.953 51.2396 104.48 50.5962 104.48 49.8629V44.9929L104.827 44.9629V49.8329C104.827 50.7829 104.143 51.6162 103.303 51.6896Z" fill="#2C681A"/>
<path d="M100.42 51.5334L100.073 51.5634V45.38L100.42 45.3467V51.5334Z" fill="#2C681A"/>
<path d="M104.827 63.0296L104.48 63.0596V58.1896C104.48 57.4563 103.953 56.9063 103.303 56.963L97.1932 57.4963C96.5432 57.553 96.0166 58.1963 96.0166 58.9296V63.7996L95.6699 63.8296V58.9596C95.6699 58.0096 96.3532 57.1763 97.1932 57.103L103.303 56.5696C104.143 56.4963 104.827 57.2096 104.827 58.1596V63.0296Z" fill="#2C681A"/>
<path d="M100.42 63.4162L100.073 63.4462V57.2628L100.42 57.2295V63.4162Z" fill="#2C681A"/>
<path d="M98.0298 57.2298L97.6831 57.2598V51.9831L98.0298 51.9531V57.2298Z" fill="#2C681A"/>
<path d="M102.713 56.8196L102.363 56.8496V51.573L102.713 51.543V56.8196Z" fill="#2C681A"/>
<path d="M107.387 48.0029L104.827 48.2296V47.8796L107.387 47.6562V48.0029Z" fill="#2C681A"/>
<path d="M107.387 59.4258L104.827 59.6524V59.3024L107.387 59.0791V59.4258Z" fill="#2C681A"/>
<path d="M95.6664 49.0293L93.1064 49.2526V48.9059L95.6664 48.6826V49.0293Z" fill="#2C681A"/>
<path d="M95.6664 60.4531L93.1064 60.6764V60.3298L95.6664 60.1064V60.4531Z" fill="#2C681A"/>
<path d="M71.9099 151.944L61.4199 152.86V32.1403L71.9099 31.2236V151.944Z" fill="#2C681A"/>
</svg>
