<svg width="84" height="86" viewBox="0 0 84 86" fill="none" xmlns="http://www.w3.org/2000/svg">
<path d="M65.3515 29.1168C74.4671 29.1168 83.9288 37.6982 84.0003 46.0087C84.0003 46.1103 83.9702 46.2081 83.91 46.2908C83.4134 46.9755 81.5173 52.7203 64.6367 54.2138C46.9435 55.7751 41.0559 51.3659 40.1341 50.7677C39.9573 50.6511 39.7955 50.5082 39.8068 50.2975C40.3222 42.3971 48.8096 31.1935 58.7716 29.7188" fill="#EA9E06"/>
<path opacity="0.2" d="M58.7748 29.715C45.9536 31.9421 39.8063 45.7716 39.8063 50.4329C39.8063 50.4329 40.6151 51.8023 46.8301 53.4764C46.8301 53.4764 65.9341 41.6634 69.0529 29.5683C68.6955 29.4102 66.6451 29.1018 65.351 29.1168" fill="white"/>
<path d="M58.7574 25.3547V29.7225C58.7574 29.7225 59.5475 31.2273 62.2863 30.8173C65.3637 30.3583 65.3788 28.9701 65.3788 28.9701V24.6474L58.7574 25.3584V25.3547Z" fill="#EA9E06"/>
<path opacity="0.2" d="M65.2207 24.6625L58.7574 25.3547V29.7225C58.7574 29.7225 61.2179 29.6209 62.5007 28.8083C64.9085 27.2847 65.1756 25.2983 65.1756 25.2983L65.2207 24.6625Z" fill="white"/>
<path d="M72.5137 14.1022C72.5137 19.9974 67.7358 25.2343 61.8406 25.8024C55.9454 26.3704 51.1675 22.0515 51.1675 16.1563C51.1675 9.8247 53.8687 5.34404 61.6149 4.18907C67.4725 3.31626 72.5099 8.207 72.5099 14.1022H72.5137Z" fill="#EA9E06"/>
<path opacity="0.2" d="M65.1843 22.1437C69.4515 17.6658 69.6136 10.8938 65.5463 7.01789C61.4791 3.14202 54.7227 3.63002 50.4556 8.10788C46.1884 12.5857 46.0263 19.3578 50.0935 23.2336C54.1607 27.1095 60.9171 26.6215 65.1843 22.1437Z" fill="white"/>
<path opacity="0.2" d="M45.5854 37.7396C51.6086 42.081 62.086 47.9913 72.6237 48.281C91.0467 48.7851 71.6606 53.42 68.0001 53.8339C64.3395 54.2477 48.8321 56.3582 39.8181 50.6323C39.8181 50.6323 39.7918 47.5775 42.0152 42.9764C43.6367 39.6244 45.5854 37.7396 45.5854 37.7396Z" fill="white"/>
<path d="M51.1715 18.3948C51.1715 18.3948 47.8834 17.4317 47.654 15.3174C47.4245 13.2031 49.0309 13.4326 49.2679 11.322C49.4748 9.46731 48.0339 7.74051 49.2679 6.08518C50.5019 4.42985 52.1572 5.39671 53.3498 4.75339C54.5424 4.11007 54.2677 2.22526 55.9231 1.3073C57.5784 0.38935 58.6092 2.4096 60.1366 2.4096C61.664 2.4096 62.0779 0.114716 63.6392 0.434495C65.2004 0.754274 65.5616 3.15074 66.6263 3.6511C67.6909 4.15146 69.2146 2.24407 70.347 2.91749C71.4794 3.5909 70.347 5.67511 71.1747 6.82255C72.0023 7.96999 73.842 7.23262 74.711 8.65846C75.5801 10.0843 73.3341 11.1377 73.24 12.24C73.146 13.3423 74.9255 13.7486 74.9104 14.9675C74.8954 16.1864 72.7284 17.6499 72.0211 17.379C71.3139 17.1082 69.7074 15.8215 69.7074 14.121C69.7074 12.8156 69.271 8.16186 67.4577 6.90908C66.1259 5.99113 64.8581 7.5524 62.5444 7.50726C60.2307 7.46211 59.8018 6.4501 58.1916 6.40496C56.5814 6.35981 56.1112 7.83832 56.1112 9.3996C56.1112 10.9609 56.2466 12.1309 54.6402 12.4695C52.8946 12.8382 52.161 13.4326 52.5259 14.7192C52.8908 16.0059 53.3122 17.9358 51.1753 18.3948H51.1715Z" fill="#EA9E06"/>
<path d="M24.2155 31.7578C32.8571 31.7578 41.8259 39.8915 41.8937 47.7693C41.8937 47.8634 41.8673 47.9574 41.8109 48.0364C41.3406 48.6873 39.5423 54.1311 23.5421 55.5456C6.77063 57.0279 1.18767 52.8444 0.311097 52.2763C0.141802 52.1672 -0.0124443 52.0318 0.00260411 51.8324C0.491678 44.3421 8.53882 33.7216 17.9817 32.3259" fill="#4797C2"/>
<path opacity="0.2" d="M17.9825 32.3259C5.82714 34.4327 -0.000366211 47.5436 -0.000366211 51.9641C-0.000366211 51.9641 0.763342 53.262 6.65856 54.8496C6.65856 54.8496 24.7693 43.6498 27.7264 32.1829C27.3878 32.0324 25.4428 31.7428 24.2163 31.754" fill="white"/>
<path d="M17.9635 28.1914V32.3334C17.9635 32.3334 18.7122 33.7593 21.308 33.368C24.2274 32.9316 24.2425 31.6149 24.2425 31.6149V27.5179L17.9635 28.1914Z" fill="#4797C2"/>
<path opacity="0.2" d="M24.092 27.533L17.9635 28.1913V32.3334C17.9635 32.3334 20.296 32.2356 21.5112 31.4644C23.791 30.0197 24.0468 28.1349 24.0468 28.1349L24.092 27.533Z" fill="white"/>
<path d="M31.0076 17.522C31.0076 23.1087 26.4781 28.0747 20.8913 28.6127C15.3046 29.1507 10.775 25.0575 10.775 19.4708C10.775 13.4664 13.337 9.21902 20.6807 8.12425C26.2335 7.29658 31.0114 11.9315 31.0114 17.522H31.0076Z" fill="#4797C2"/>
<path opacity="0.2" d="M24.0551 25.1471C28.1001 20.9024 28.254 14.4832 24.3989 10.8094C20.5438 7.13564 14.1394 7.59848 10.0944 11.8432C6.04939 16.0879 5.89547 22.5071 9.75061 26.1809C13.6057 29.8546 20.0101 29.3918 24.0551 25.1471Z" fill="white"/>
<path opacity="0.2" d="M5.47783 39.9291C11.1887 44.0448 21.1207 49.6504 31.1091 49.925C48.5728 50.4028 30.1949 54.7969 26.7262 55.1882C23.2575 55.5794 8.55523 57.5809 0.0114902 52.1559C0.0114902 52.1559 -0.0148446 49.2591 2.0957 44.8951C3.63064 41.7161 5.48159 39.9291 5.48159 39.9291H5.47783Z" fill="white"/>
<path d="M15.9202 6.4388C14.9571 6.61562 10.4087 7.19122 8.12132 14.644C5.94306 21.7431 7.41029 27.3561 9.53588 30.4749C11.6615 33.5937 15.8111 33.8458 17.5567 33.0143C19.3023 32.1829 20.7545 29.3275 18.6289 29.9332C16.5033 30.5389 12.4327 22.4804 14.2686 18.8086C16.1045 15.1368 16.0067 13.7824 16.0067 13.7824L26.4842 12.4619C26.4842 12.4619 27.9025 14.6026 28.7 17.3075C29.6481 20.5204 29.4901 24.5082 28.5082 26.615C27.0748 29.6924 25.0282 29.8654 25.4157 30.4711C25.8032 31.0768 27.6918 31.7239 29.3923 30.4711C33.4102 27.5141 33.1318 21.0922 33.0829 18.3421C33.034 15.592 29.9077 7.00312 23.3616 6.14536C20.5701 5.78043 17.4739 6.14536 15.9126 6.43504L15.9202 6.4388Z" fill="#4797C2"/>
<path d="M48.8004 52.4907C60.4667 52.4907 72.5807 63.4761 72.671 74.1115C72.671 74.2395 72.6333 74.3674 72.5581 74.4727C71.9223 75.3493 69.4958 82.7042 47.8862 84.6116C25.2383 86.613 17.7028 80.9661 16.5178 80.1986C16.292 80.0519 16.0814 79.8676 16.1002 79.6005C16.7623 69.4879 27.6273 55.143 40.3808 53.2582" fill="#499B2D"/>
<path opacity="0.2" d="M40.3816 53.2544C23.9713 56.1023 16.101 73.8068 16.101 79.7735C16.101 79.7735 17.1355 81.5229 25.0924 83.671C25.0924 83.671 49.5498 68.5474 53.5377 53.0663C53.0787 52.8669 50.4527 52.4719 48.7974 52.4907" fill="white"/>
<path d="M40.3579 47.6715V53.262C40.3579 53.262 41.3699 55.1844 44.8762 54.6615C48.8151 54.0708 48.8377 52.2951 48.8377 52.2951V46.761L40.3617 47.6715H40.3579Z" fill="#499B2D"/>
<path opacity="0.2" d="M48.6306 46.7874L40.354 47.6752V53.2657C40.354 53.2657 43.5029 53.134 45.1469 52.0919C48.2281 50.1432 48.5742 47.6 48.5742 47.6L48.6344 46.7874H48.6306Z" fill="white"/>
<path d="M57.9724 33.2664C57.9724 40.8132 51.8552 47.5172 44.3122 48.2433C36.7654 48.9694 30.652 43.4429 30.652 35.8961C30.652 27.7887 34.1094 22.0553 44.0263 20.5768C51.5241 19.4594 57.9762 25.7196 57.9762 33.2664H57.9724Z" fill="#499B2D"/>
<path opacity="0.2" d="M52.8182 33.2664C52.8182 40.8132 46.9606 47.1072 39.4138 47.8332C34.3011 45.9635 30.5729 42.4647 30.5729 34.9179C30.5729 27.3712 34.8165 23.2065 40.1023 21.4797C47.3067 19.1246 52.8145 25.7196 52.8145 33.2664H52.8182Z" fill="white"/>
<path d="M30.6482 35.8998C29.8168 27.2733 36.3554 21.3179 44.3084 20.5504C51.6408 19.8431 55.1734 24.8204 56.3509 26.6902C56.9002 27.5667 59.3381 30.8623 60.9558 30.4824C62.0882 30.2153 61.9828 31.216 60.6774 31.6072C56.6632 32.8149 48.0367 32.2167 44.3084 29.0904C39.7826 25.2907 30.6482 35.8998 30.6482 35.8998Z" fill="#499B2D"/>
<path opacity="0.2" d="M23.5001 63.5287C31.2086 69.0854 44.6205 76.6547 58.1114 77.0234C81.6923 77.6705 56.8775 83.6034 52.1936 84.13C47.5399 84.6567 27.6572 87.3617 16.1188 80.0331C16.1188 80.0331 16.0812 76.1243 18.9329 70.2328C21.0058 65.9403 23.5038 63.5287 23.5038 63.5287H23.5001Z" fill="white"/>
</svg>
