<svg width="603" height="364" viewBox="0 0 603 364" fill="none" xmlns="http://www.w3.org/2000/svg">
<mask id="mask0_987_103697" style="mask-type:alpha" maskUnits="userSpaceOnUse" x="0" y="17" width="598" height="329">
<rect y="17.75" width="598" height="328" fill="#D9D9D9"/>
</mask>
<g mask="url(#mask0_987_103697)">
<ellipse cx="35.5" cy="-165.277" rx="590" ry="511" fill="#F1D29C" fill-opacity="0.65"/>
</g>
<rect x="0.5" y="17.75" width="602" height="328" rx="8" fill="#DF9315" fill-opacity="0.4"/>
<path d="M248.729 168.599C184.311 174.803 132.092 215.461 132.092 259.403C132.092 285.694 150.788 307.207 179.593 318.923L167.653 357.992C166.4 362.104 170.979 364.929 174.349 362.113L215.509 327.666C226.041 328.781 237.186 328.858 248.737 327.752C313.155 321.549 365.374 280.89 365.374 236.949C365.374 193.007 313.155 162.396 248.737 168.599H248.729Z" fill="#4797C2"/>
<path d="M442.183 184.409C441.958 184.66 439.833 184.988 437.681 184.677C437.681 184.677 436.61 184.625 435.374 184.073L394.707 158.361C396.012 158.006 397.316 157.635 398.604 157.246C398.604 157.246 427.944 177.524 438.493 182.949C439.375 183.399 442.183 184.409 442.183 184.409V184.409Z" fill="#B6D3AB"/>
<path d="M365.364 4.57418C429.782 -1.62916 482.001 28.9729 482.001 72.9233C482.001 99.2141 463.304 124.321 434.499 141.592L446.44 178.363C447.692 182.234 443.113 185.94 439.744 183.771L398.584 157.247C388.052 160.392 376.907 162.613 365.355 163.727C300.937 169.931 248.719 139.329 248.719 95.3781C248.719 51.4276 300.937 10.7689 365.355 4.57418H365.364Z" fill="#499B2D"/>
<path d="M335.354 102.414C340.025 97.5126 340.202 90.0993 335.749 85.8562C331.296 81.613 323.9 82.1469 319.229 87.0486C314.558 91.9502 314.381 99.3636 318.834 103.607C323.286 107.85 330.682 107.316 335.354 102.414Z" fill="#2C681A"/>
<path d="M377.59 98.344C382.261 93.4423 382.438 86.029 377.985 81.7859C373.533 77.5427 366.137 78.0766 361.466 82.9783C356.794 87.8799 356.617 95.2933 361.07 99.5364C365.523 103.78 372.919 103.246 377.59 98.344Z" fill="#2C681A"/>
<path d="M419.814 94.2776C424.486 89.3759 424.663 81.9626 420.21 77.7194C415.757 73.4763 408.361 74.0102 403.69 78.9118C399.019 83.8135 398.842 91.2268 403.295 95.47C407.747 99.7131 415.143 99.1792 419.814 94.2776Z" fill="#2C681A"/>
<path d="M248.728 95.386C248.728 51.4355 300.947 10.7768 365.365 4.58213C385.167 2.67274 403.812 4.25382 420.141 8.6169C401.393 1.64461 378.713 -1.30155 354.272 1.04847C289.853 7.25181 237.635 47.9105 237.635 91.8523C237.635 122.29 262.69 146.326 299.495 156.167C268.842 144.78 248.728 122.653 248.728 95.3774V95.386Z" fill="#B6D3AB"/>
<path d="M315.6 95.8444C315.6 89.3646 320.853 83.6019 327.333 82.9798C329.217 82.7984 330.996 83.0835 332.577 83.7228C330.504 82.0727 327.774 81.2 324.776 81.4938C318.296 82.1159 313.043 87.8786 313.043 94.3584C313.043 98.9547 315.687 102.661 319.531 104.216C317.121 102.298 315.6 99.3263 315.6 95.8444V95.8444Z" fill="#B6D3AB"/>
<path d="M357.858 91.8347C357.858 85.3548 363.111 79.5921 369.591 78.9701C371.474 78.7886 373.254 79.0737 374.835 79.7131C372.762 78.0629 370.032 77.1903 367.034 77.484C360.554 78.1061 355.301 83.8688 355.301 90.3486C355.301 94.945 357.945 98.6514 361.789 100.207C359.379 98.2886 357.858 95.3165 357.858 91.8347Z" fill="#B6D3AB"/>
<path d="M400.001 87.6608C400.001 81.181 405.254 75.4183 411.734 74.7962C413.617 74.6148 415.397 74.8999 416.978 75.5393C414.904 73.8891 412.174 73.0164 409.176 73.3102C402.696 73.9323 397.443 79.695 397.443 86.1748C397.443 90.7711 400.087 94.4776 403.932 96.0328C401.521 94.1147 400.001 91.1427 400.001 87.6608Z" fill="#B6D3AB"/>
<path d="M168.776 313.806C146.045 301.477 132.083 282.323 132.083 259.402C132.083 215.451 184.302 174.792 248.72 168.598C272.928 166.265 295.409 169.133 314.045 175.95C293.577 165.798 266.863 161.038 237.635 163.855C173.217 170.049 120.998 210.708 120.998 254.658C120.998 280.949 139.971 302.091 168.776 313.806V313.806Z" fill="#BCD0E1"/>
<path d="M168.101 361.947C167.298 360.997 166.952 359.632 167.419 358.094L169.181 352.314L179.35 319.025C175.497 317.461 171.825 315.716 168.352 313.807V313.833L156.325 353.351C155.867 354.854 156.187 356.185 156.947 357.135L168.092 361.947H168.101Z" fill="#BCD0E1"/>
<path d="M247.876 260.441C247.876 252.043 253.371 246.332 258.555 240.751C262.599 236.318 266.124 232.249 266.124 227.273C266.124 221.156 262.702 217.233 255.03 217.976C247.358 218.719 241.967 224.525 241.241 232.785L233.154 233.562C233.88 221.363 242.485 212.032 255.134 210.814C269.234 209.457 274.833 217.415 274.833 226.123C274.833 233.796 269.649 239.169 264.672 244.414C260.007 249.321 255.549 254.108 255.549 260.432V264.89L247.876 265.624V260.441V260.441ZM244.87 280.735C244.87 277.003 247.876 273.815 251.505 273.461C255.134 273.106 258.14 275.724 258.14 279.457C258.14 283.189 255.134 286.377 251.505 286.731C247.876 287.086 244.87 284.468 244.87 280.735Z" fill="white" fill-opacity="0.2"/>
<path d="M233.3 231.549C234.803 220.344 243.132 211.955 255.072 210.805C256.869 210.633 258.528 210.615 260.057 210.728C257.18 209.509 253.517 208.974 248.964 209.414C236.315 210.633 227.71 219.964 226.984 232.163L233.093 233.563L233.291 231.558L233.3 231.549Z" fill="#BCD0E1"/>
<path d="M247.813 263.637V260.44C247.813 252.042 253.308 246.331 258.492 240.75C262.536 236.318 266.061 232.249 266.061 227.272C266.061 221.509 263.019 217.699 256.254 217.898C258.769 219.479 259.952 222.296 259.952 225.881C259.952 230.858 256.427 234.927 252.384 239.359C247.2 244.94 241.705 250.651 241.705 259.049V264.233L247.813 265.633V263.646V263.637Z" fill="#BCD0E1"/>
<path d="M246.596 285.097C245.499 284.026 244.816 282.514 244.816 280.743C244.816 277.451 247.158 274.582 250.19 273.71C250.19 273.71 251.21 273.191 253.525 273.433C253.179 273.286 246.199 272.042 246.199 272.042C245.913 272.034 245.628 272.042 245.335 272.068C241.706 272.414 238.699 275.611 238.699 279.343C238.699 282.168 240.427 284.354 242.838 285.097L249.257 286.764C249.257 286.764 247.088 285.641 246.587 285.097H246.596Z" fill="#BCD0E1"/>
</svg>
