<svg xmlns="http://www.w3.org/2000/svg" id="Layer_2" viewBox="0 0 214.16 63.45"><defs><style>.cls-1{fill:#fbbc04;}.cls-2{fill:#ea4335;}.cls-3,.cls-4{fill:#fff;}.cls-5{fill:#a6a6a6;}.cls-6{fill:#4285f4;}.cls-7{fill:#34a853;}.cls-4{stroke:#fff;stroke-miterlimit:10;stroke-width:.12px;}</style></defs><g id="Layer_2-2"><g><g><rect width="214.16" height="63.45" rx="7.93" ry="7.93"/><path class="cls-5" d="m206.23,1.27c3.67,0,6.66,2.99,6.66,6.66v47.59c0,3.67-2.99,6.66-6.66,6.66H7.93c-3.67,0-6.66-2.99-6.66-6.66V7.93C1.27,4.26,4.26,1.27,7.93,1.27h198.29M206.23,0H7.93C3.57,0,0,3.57,0,7.93v47.59c0,4.36,3.57,7.93,7.93,7.93h198.29c4.36,0,7.93-3.57,7.93-7.93V7.93C214.16,3.57,210.59,0,206.23,0h0Z"/><path class="cls-3" d="m108.09,34.51c-3.73,0-6.77,2.84-6.77,6.75s3.04,6.75,6.77,6.75,6.77-2.86,6.77-6.75-3.04-6.75-6.77-6.75Zm0,10.84c-2.04,0-3.81-1.69-3.81-4.09s1.76-4.09,3.81-4.09,3.81,1.66,3.81,4.09-1.76,4.09-3.81,4.09Zm-14.77-10.84c-3.73,0-6.77,2.84-6.77,6.75s3.04,6.75,6.77,6.75,6.77-2.86,6.77-6.75-3.04-6.75-6.77-6.75Zm0,10.84c-2.04,0-3.81-1.69-3.81-4.09s1.76-4.09,3.81-4.09,3.81,1.66,3.81,4.09-1.76,4.09-3.81,4.09Zm-17.57-8.77v2.86h6.85c-.2,1.61-.74,2.79-1.56,3.6-1,1-2.56,2.1-5.29,2.1-4.22,0-7.51-3.4-7.51-7.62s3.3-7.62,7.51-7.62c2.27,0,3.94.89,5.16,2.04l2.02-2.02c-1.71-1.64-3.99-2.89-7.18-2.89-5.78,0-10.63,4.7-10.63,10.48s4.86,10.48,10.63,10.48c3.12,0,5.47-1.02,7.31-2.94,1.89-1.89,2.48-4.55,2.48-6.7,0-.66-.05-1.28-.15-1.79h-9.63Zm71.87,2.22c-.56-1.51-2.27-4.29-5.78-4.29s-6.36,2.73-6.36,6.75c0,3.78,2.86,6.75,6.7,6.75,3.09,0,4.88-1.89,5.62-2.99l-2.3-1.53c-.77,1.12-1.81,1.87-3.32,1.87s-2.58-.69-3.27-2.04l9.02-3.73-.31-.77Zm-9.2,2.25c-.08-2.61,2.02-3.94,3.53-3.94,1.18,0,2.17.59,2.5,1.43l-6.03,2.5Zm-7.33,6.54h2.96v-19.83h-2.96v19.83Zm-4.86-11.58h-.1c-.66-.79-1.94-1.51-3.55-1.51-3.37,0-6.47,2.96-6.47,6.77s3.09,6.72,6.47,6.72c1.61,0,2.89-.72,3.55-1.53h.1v.97c0,2.58-1.38,3.96-3.6,3.96-1.81,0-2.94-1.3-3.4-2.4l-2.58,1.07c.74,1.79,2.71,3.99,5.98,3.99,3.48,0,6.41-2.04,6.41-7.03v-12.11h-2.81v1.1Zm-3.4,9.33c-2.04,0-3.76-1.71-3.76-4.06s1.71-4.11,3.76-4.11,3.6,1.74,3.6,4.11-1.58,4.06-3.6,4.06Zm38.68-17.58h-7.09v19.83h2.96v-7.51h4.13c3.28,0,6.51-2.38,6.51-6.16s-3.22-6.16-6.51-6.16Zm.08,9.56h-4.21v-6.8h4.21c2.21,0,3.47,1.83,3.47,3.4s-1.26,3.4-3.47,3.4Zm18.29-2.85c-2.14,0-4.36.94-5.28,3.04l2.63,1.1c.56-1.1,1.61-1.45,2.7-1.45,1.53,0,3.09.92,3.11,2.55v.2c-.54-.31-1.68-.77-3.09-.77-2.83,0-5.72,1.56-5.72,4.46,0,2.65,2.32,4.36,4.92,4.36,1.99,0,3.09-.89,3.78-1.94h.1v1.53h2.86v-7.6c0-3.52-2.63-5.49-6.02-5.49Zm-.36,10.87c-.97,0-2.32-.48-2.32-1.68,0-1.53,1.68-2.12,3.14-2.12,1.3,0,1.91.28,2.7.66-.23,1.84-1.81,3.14-3.52,3.14Zm16.79-10.44l-3.39,8.6h-.1l-3.52-8.6h-3.19l5.28,12.02-3.01,6.68h3.09l8.14-18.7h-3.29Zm-26.66,12.69h2.96v-19.83h-2.96v19.83Z"/><g><path class="cls-2" d="m32.86,30.81l-16.89,17.93s0,0,0,.01c.52,1.95,2.3,3.38,4.41,3.38.84,0,1.64-.23,2.31-.63l.05-.03,19.01-10.97-8.9-9.69Z"/><path class="cls-1" d="m49.95,27.76h-.02s-8.21-4.77-8.21-4.77l-9.25,8.23,9.28,9.28,8.16-4.71c1.43-.77,2.4-2.28,2.4-4.02s-.96-3.23-2.38-4.01Z"/><path class="cls-6" d="m15.97,14.72c-.1.37-.15.77-.15,1.17v31.68c0,.41.05.8.16,1.17l17.47-17.47L15.97,14.72Z"/><path class="cls-7" d="m32.99,31.73l8.74-8.74-18.99-11.01c-.69-.41-1.5-.65-2.36-.65-2.11,0-3.89,1.44-4.41,3.38,0,0,0,0,0,0l17.01,17.01Z"/></g></g><g><g><path class="cls-4" d="m76.66,11.32h6.01v1.18h-4.75v2.78h4.42v1.18h-4.42v2.99h4.99v1.18h-6.25v-9.31Z"/><path class="cls-4" d="m86.64,12.5h-3v-1.18h7.26v1.18h-3v8.13h-1.26v-8.13Z"/><path class="cls-4" d="m95.25,11.32h1.26v9.31h-1.26v-9.31Z"/><path class="cls-4" d="m100.86,12.5h-3v-1.18h7.26v1.18h-3v8.13h-1.26v-8.13Z"/><path class="cls-4" d="m113.33,20.87c-.71,0-1.36-.12-1.96-.37-.6-.25-1.11-.59-1.53-1.03s-.76-.96-1-1.55-.36-1.24-.36-1.93.12-1.34.36-1.93c.24-.6.57-1.11,1-1.55.43-.44.94-.78,1.53-1.03.6-.25,1.25-.37,1.96-.37s1.36.12,1.96.37,1.11.59,1.53,1.03c.43.44.76.96,1,1.55.24.6.36,1.24.36,1.93s-.12,1.34-.36,1.93-.57,1.11-1,1.55-.94.78-1.53,1.03-1.25.37-1.96.37Zm0-1.18c.53,0,1.02-.1,1.45-.3.43-.2.8-.46,1.1-.8.31-.33.54-.73.71-1.18.17-.45.25-.93.25-1.44s-.08-.99-.25-1.44-.4-.84-.71-1.18c-.31-.33-.67-.6-1.1-.8-.43-.2-.91-.3-1.45-.3s-1.02.1-1.45.3c-.43.2-.8.46-1.1.8-.31.33-.54.73-.71,1.18s-.25.93-.25,1.44.08.99.25,1.44c.17.45.4.84.71,1.18.31.33.67.6,1.1.8.43.2.91.3,1.45.3Z"/><path class="cls-4" d="m120,11.32h1.66l5.13,7.66h.03v-7.66h1.26v9.31h-1.6l-5.18-7.66h-.03v7.66h-1.26v-9.31Z"/></g><path class="cls-3" d="m70.87,15.56v1.35h3.24c-.1.76-.35,1.32-.74,1.71-.47.47-1.21.99-2.5.99-2,0-3.56-1.61-3.56-3.6s1.56-3.6,3.56-3.6c1.08,0,1.86.42,2.44.97l.96-.96c-.81-.77-1.89-1.37-3.4-1.37-2.73,0-5.03,2.23-5.03,4.96s2.3,4.96,5.03,4.96c1.48,0,2.59-.48,3.46-1.39.9-.9,1.17-2.15,1.17-3.17,0-.31-.02-.6-.07-.85h-4.56Z"/></g></g></g></svg>
