<svg width="181" height="181" viewBox="0 0 181 181" fill="none" xmlns="http://www.w3.org/2000/svg">
<g clip-path="url(#clip0_2580_114000)">
<path d="M95.1191 67.6032L52.9358 39.9932V59.2732L24.4258 62.0198V86.7998L52.9358 84.0565V103.336L95.1191 67.6032Z" fill="#82B3D8"/>
<path d="M101.904 74.503L59.7209 46.8896V66.173L31.2109 68.9196V93.6997L59.7209 90.953V110.236L101.904 74.503Z" fill="#4797C2"/>
<path d="M31.2091 68.9195L24.4258 62.0195V86.7995L31.2091 93.6995V68.9195Z" fill="#BCD0E1"/>
<path d="M52.9375 39.9932L59.7208 46.8898V66.1732L52.9375 59.2732V39.9932Z" fill="#BCD0E1"/>
<path d="M95.1186 67.6033L101.902 74.5033L90.0586 66.75L95.1186 67.6033Z" fill="#82B3D8"/>
<path d="M59.7208 110.237L52.9375 103.337L59.7208 95.627V110.237Z" fill="#82B3D8"/>
<path d="M78.7695 108.976L120.953 136.59V117.307L149.463 114.56V89.7798L120.953 92.5265V73.2432L78.7695 108.976Z" fill="#499B2D"/>
<path d="M85.5529 115.877L78.7695 108.976L120.953 73.2432L127.736 80.1432L85.5529 115.877Z" fill="#B6D3AB"/>
<path d="M85.5547 115.877L127.738 143.487V124.207L156.248 121.46V96.6802L127.738 99.4236V80.1436L85.5547 115.877Z" fill="#499B2D"/>
<path d="M149.461 89.7803L156.244 96.6803L127.734 99.4236V91.8736L149.461 89.7803Z" fill="#2C681A"/>
</g>
<defs>
<clipPath id="clip0_2580_114000">
<rect width="180" height="180" fill="white" transform="translate(0.335938 0.5)"/>
</clipPath>
</defs>
</svg>
