<svg width="64" height="73" viewBox="0 0 64 73" fill="none" xmlns="http://www.w3.org/2000/svg">
<path d="M55.2978 65.8743L1.10337 71.0929C0.751889 71.1271 0.46875 70.8708 0.46875 70.5193V33.4426C0.46875 33.0912 0.75433 32.7787 1.10337 32.747L55.2978 27.5284C55.6492 27.4943 55.9324 27.7506 55.9324 28.102V65.1787C55.9324 65.5302 55.6468 65.8426 55.2978 65.8743Z" fill="#CC9A4A"/>
<path d="M55.2495 18.0185L17.7774 48.4365C17.5138 48.6513 17.1501 48.622 16.9646 48.373L4.84086 32.112C4.65535 31.863 4.71881 31.4871 4.97998 31.2748L42.4545 0.856807C42.7181 0.642011 43.0818 0.671301 43.2673 0.920269L55.391 17.1813C55.5765 17.4302 55.5131 17.8061 55.2519 18.0185H55.2495Z" fill="#499B2D"/>
<path d="M51.2238 17.8739L18.2942 44.6037C18.0306 44.8185 17.6669 44.7892 17.4814 44.5403L8.35257 32.2969C8.16707 32.0479 8.23053 31.6721 8.4917 31.4597L41.4238 4.72985C41.6874 4.51506 42.0511 4.54435 42.2366 4.79332L51.3654 17.0367C51.5509 17.2856 51.4874 17.6615 51.2263 17.8739H51.2238Z" fill="#91CC7A"/>
<path d="M33.756 30.6131C36.481 28.953 37.0719 24.9512 35.0759 21.6747C33.0799 18.3983 29.2528 17.088 26.5278 18.7481C23.8028 20.4081 23.2118 24.41 25.2079 27.6864C27.2039 30.9628 31.031 32.2732 33.756 30.6131Z" fill="#499B2D"/>
<path d="M61.3027 20.6327L23.8282 51.0507C23.5646 51.2655 23.2009 51.2362 23.0154 50.9873L10.8916 34.7263C10.7061 34.4773 10.7696 34.1014 11.0308 33.889L48.5053 3.47106C48.7689 3.25627 49.1326 3.28556 49.3181 3.53453L61.4418 19.7955C61.6273 20.0445 61.5639 20.4204 61.3027 20.6327Z" fill="#499B2D"/>
<path d="M57.2746 20.4881L24.345 47.218C24.0814 47.4328 23.7177 47.4035 23.5322 47.1545L14.4034 34.9112C14.2179 34.6622 14.2813 34.2863 14.5425 34.074L47.4746 7.34411C47.7382 7.12932 48.1018 7.15861 48.2874 7.40757L57.4162 19.6509C57.6017 19.8999 57.5382 20.2758 57.277 20.4881H57.2746Z" fill="#91CC7A"/>
<path d="M39.8068 33.2293C42.5318 31.5692 43.1227 27.5674 41.1267 24.291C39.1307 21.0145 35.3035 19.7042 32.5786 21.3643C29.8536 23.0244 29.2626 27.0262 31.2586 30.3026C33.2547 33.5791 37.0818 34.8894 39.8068 33.2293Z" fill="#499B2D"/>
<path d="M57.7743 67.304L3.57994 72.5226C3.22845 72.5567 2.94531 72.3005 2.94531 71.949V34.8723C2.94531 34.5209 3.23089 34.2084 3.57994 34.1767L57.7743 28.9581C58.1258 28.924 58.4089 29.1803 58.4089 29.5317V66.6084C58.4089 66.9599 58.1234 67.2723 57.7743 67.304V67.304Z" fill="#EA9E06"/>
<path d="M0.742126 71.0144L3.20495 72.4374C3.03165 72.33 2.94378 72.1298 2.94378 71.9492V34.8726C2.94378 34.5211 3.22936 34.2087 3.5784 34.1769L1.10337 32.7588C0.751889 32.793 0.46875 33.1054 0.46875 33.4544V70.5311C0.46875 70.7288 0.559062 70.9338 0.742126 71.0144V71.0144Z" fill="#FFD180"/>
<path d="M35.8333 56.4308L34.9912 55.889C34.9204 55.7938 34.8789 55.6742 34.8789 55.5399V44.7464C34.8789 44.3949 35.1645 44.0825 35.5135 44.0508L58.4088 41.8955V53.9582L35.8308 56.133" fill="#CC9A4A"/>
<path d="M58.3555 41.895L61.6433 41.546C61.7409 41.5362 61.8337 41.5509 61.9167 41.5802L63.0346 42.2319V53.5379L58.4116 53.9577L58.3579 42.0708" fill="#CC9A4A"/>
<path d="M62.5662 54.138L36.3612 56.6619C36.0097 56.6961 35.7266 56.4398 35.7266 56.0883V45.2948C35.7266 44.9433 36.0121 44.6309 36.3612 44.5992L62.5662 42.0753C62.9177 42.0411 63.2009 42.2974 63.2009 42.6489V53.4424C63.2009 53.7939 62.9153 54.1063 62.5662 54.138Z" fill="#FFD180"/>
<path d="M45.7313 52.3591C47.1868 50.8318 47.2424 48.5224 45.8557 47.2009C44.4689 45.8794 42.1649 46.0462 40.7095 47.5735C39.2541 49.1008 39.1984 51.4102 40.5851 52.7317C41.9719 54.0532 44.2759 53.8864 45.7313 52.3591Z" fill="#EA9E06"/>
<path d="M48.7447 3.28802L48.0491 3.08787C47.8367 3.02685 47.6048 3.07323 47.434 3.21236L9.95703 33.54L11.6363 33.4009L48.5592 3.43447C48.5592 3.43447 48.6935 3.3344 48.896 3.32708C48.7935 3.30511 48.7447 3.28802 48.7447 3.28802V3.28802Z" fill="#3E7F26"/>
<path d="M3.88157 32.0412C3.61308 31.6727 3.78394 31.1796 4.13786 30.8916L41.3707 0.602982C41.544 0.463853 41.7735 0.417476 41.9858 0.478498L42.6815 0.678648C42.6815 0.678648 42.7303 0.695734 42.8328 0.717702C42.6302 0.725025 42.496 0.8251 42.496 0.8251L4.91649 31.3627C4.91649 31.3627 4.76516 31.5189 4.76516 31.6946C4.76516 31.8704 4.75784 31.968 4.86524 32.112L6.21503 33.9231L5.30703 34.011L3.87913 32.0388L3.88157 32.0412Z" fill="#3E7F26"/>
</svg>
