<?xml version="1.0" encoding="UTF-8"?><svg id="Layer_2" xmlns="http://www.w3.org/2000/svg" viewBox="0 0 540 540"><defs><style>.cls-1{fill:none;}.cls-2{fill:#eeb138;}.cls-3{fill:#88b776;}.cls-4{fill:#499b2d;}</style></defs><g id="Pictogram"><g><rect class="cls-1" width="540" height="540"/><g><g><g><path class="cls-3" d="M358.91,368.2c0-27.15-20.99-45.28-45.9-42.88-24.35,2.35-45.9,24.57-45.9,52.28s22.11,44.61,45.9,42.32c3.9-.38,7.73-1.26,11.42-2.6v7.32l32.26-16.03-4.79-14.4c4.4-7.58,7-16.43,7-26Zm-70.53,7.07c0-3.13,.29-6.03,.8-8.73l3.33,3.56,31.92-18.62-5.39-7.87c11.56,1.52,18.6,11.25,18.6,26.64,0,18.75-9.52,30.02-24.63,31.48-14.83,1.43-24.63-7.42-24.63-26.46Z"/><path class="cls-3" d="M204.42,320.94c4.43-.43,8.78-1.51,12.94-3.17v11.76l32.96-21.95-4.49-17.3c2.85-6.39,4.49-13.5,4.49-21.06,0-27.15-20.99-45.28-45.9-42.88-24.35,2.35-45.9,24.57-45.9,52.28s22.11,44.61,45.9,42.32Zm14.23-73.43l-9.64-3.02c3.65,.26,6.89,1.28,9.64,3.02Zm-38.86,28.78c0-3.57,.35-6.87,1-9.88l13.27-1.06,24.62-17.81c6.58,4.2,10.36,12.45,10.36,23.74,0,18.75-9.52,30.02-24.63,31.48-14.83,1.43-24.63-7.42-24.63-26.46Z"/><polygon class="cls-3" points="330.37 215.9 309.1 217.94 186.79 429.84 201.06 443.5 344.64 229.56 330.37 215.9"/></g><path class="cls-4" d="M172.79,292.29c0-27.71,21.55-49.93,45.9-52.28,24.91-2.4,45.9,15.73,45.9,42.88s-21.83,49.4-45.9,51.72c-23.79,2.29-45.9-15.17-45.9-42.32Zm70.53-7.35c0-17.91-9.52-28.19-24.63-26.74-14.83,1.43-24.63,12.73-24.63,31.76s9.8,27.88,24.63,26.46c15.11-1.46,24.63-12.73,24.63-31.48Zm80.05-53.33l21.27-2.05-122.31,211.89-21.27,2.05,122.31-211.89Zm-41.98,159.66c0-27.71,21.55-49.93,45.9-52.28,24.91-2.4,45.9,15.73,45.9,42.88s-21.83,49.4-45.9,51.72c-23.79,2.29-45.9-15.17-45.9-42.32Zm70.53-7.35c0-17.91-9.52-28.19-24.63-26.74-14.83,1.43-24.63,12.73-24.63,31.76s9.79,27.88,24.63,26.46c15.11-1.46,24.63-12.73,24.63-31.48Z"/></g><g><path class="cls-2" d="M268.95,182.27c-1.41-.03-2.42-1.19-2.27-2.58l11.72-106.02c.15-1.39,1.42-2.5,2.83-2.47,1.41,.03,2.42,1.19,2.27,2.58l-11.72,106.02c-.15,1.39-1.42,2.5-2.83,2.47Z"/><path class="cls-2" d="M218.02,190.26c-1.04-.02-1.95-.68-2.21-1.72l-18.61-73.03c-.34-1.32,.51-2.75,1.88-3.2,1.37-.44,2.76,.26,3.1,1.58l18.61,73.03c.34,1.32-.51,2.75-1.88,3.2-.3,.1-.6,.14-.89,.13Z"/><path class="cls-2" d="M171.45,214.75c-.73-.02-1.42-.34-1.85-.95L103.45,122.28c-.79-1.09-.47-2.68,.71-3.55,1.18-.87,2.77-.7,3.56,.39l66.15,91.53c.79,1.09,.47,2.68-.71,3.55-.52,.39-1.12,.57-1.7,.55Z"/><path class="cls-2" d="M134.85,252.79c-.43,0-.86-.13-1.23-.37l-60.42-38.35c-1.14-.72-1.39-2.28-.55-3.47,.84-1.19,2.44-1.57,3.58-.84l60.42,38.35c1.14,.72,1.39,2.28,.55,3.47-.56,.8-1.47,1.23-2.35,1.21Z"/><path class="cls-2" d="M319.86,192.6c-.29,0-.58-.06-.85-.17-1.27-.51-1.79-1.97-1.17-3.27l32.39-67.19c.63-1.3,2.16-1.94,3.43-1.43,1.27,.51,1.79,1.97,1.17,3.27l-32.39,67.19c-.49,1.02-1.54,1.63-2.58,1.61Z"/><path class="cls-2" d="M362.6,219.83c-.58-.01-1.14-.22-1.57-.63-.98-.92-.94-2.52,.08-3.56l86-88.06c1.02-1.05,2.65-1.15,3.62-.23,.98,.92,.94,2.52-.08,3.56l-86,88.06c-.57,.58-1.33,.87-2.05,.86Z"/><path class="cls-2" d="M392.01,260.67c-.88-.02-1.69-.49-2.07-1.31-.57-1.22,.02-2.76,1.31-3.43l75.05-38.75c1.3-.67,2.81-.22,3.38,1,.57,1.22-.02,2.76-1.31,3.43l-75.05,38.75c-.43,.22-.88,.32-1.31,.31Z"/></g></g></g></g></svg>