<svg width="180" height="180" viewBox="0 0 180 180" fill="none" xmlns="http://www.w3.org/2000/svg">
<g clip-path="url(#clip0_2175_116947)">
<path d="M81.3715 39.6555L136.228 34.8569C137.511 34.7451 138.241 36.1489 137.465 37.2391L101.759 87.3937C100.982 88.4838 101.712 89.8877 102.995 89.7759L118.941 88.3938C120.298 88.2757 121 89.8349 120.074 90.9065L63.2421 156.628C62.065 157.988 60.0244 156.861 60.6704 155.209L79.9645 105.924C80.3776 104.865 79.6259 103.815 78.5233 103.914L63.5589 105.259C62.5216 105.352 61.773 104.423 62.065 103.402L79.8837 40.901C80.0763 40.2208 80.685 39.7145 81.3746 39.6555H81.3715Z" fill="#499B2D"/>
<path d="M60.6676 155.209L79.9617 105.924C80.3748 104.865 79.6231 103.815 78.5205 103.915C78.5205 103.915 68.1964 104.84 67.3205 104.918L50.651 146.966C50.328 147.792 50.6759 148.485 51.2536 148.805L61.0652 156.908C60.6179 156.551 60.385 155.93 60.6676 155.206V155.209Z" fill="#88B776"/>
<path d="M137.521 35.4076L137.518 35.4043L137.521 35.4076Z" fill="#B6D3AB"/>
<path d="M62.084 103.405L79.9027 40.9044C80.0953 40.2242 80.7041 39.718 81.3936 39.6589L136.251 34.8603C136.477 34.8417 136.688 34.8696 136.875 34.9348L127.625 27.3595C127.131 26.9557 126.259 26.6172 125.619 26.6731L71.377 31.4189C70.6874 31.4779 70.0818 31.9873 69.8861 32.6644L52.0674 95.165C51.8717 95.8483 52.145 96.4943 52.6575 96.8143L62.4133 104.84C62.0747 104.489 61.9225 103.961 62.084 103.405V103.405Z" fill="#B6D3AB"/>
<path d="M102.991 89.7791L118.937 88.397C119.316 88.3628 119.642 88.4653 119.9 88.6486H119.906L110.092 80.4644C109.818 80.1694 109.411 79.9923 108.921 80.0358L106.874 80.2129L101.758 87.3969C100.982 88.4871 101.712 89.8909 102.995 89.7791H102.991Z" fill="#88B776"/>
</g>
<defs>
<clipPath id="clip0_2175_116947">
<rect width="180" height="180" fill="white"/>
</clipPath>
</defs>
</svg>
