<svg width="15" height="16" viewBox="0 0 16 16" xmlns="http://www.w3.org/2000/svg"><g fill="none" fill-rule="evenodd"><path d="M11.063 2.613C9.45 2.313 8.089 1.632 7.237.8c-.848.832-2.214 1.514-3.826 1.813a8.506 8.506 0 01-2.84.064V8.17c0 4.215 2.815 6.063 6.666 7.188 3.852-1.125 6.669-2.973 6.669-7.188V2.677a8.523 8.523 0 01-2.843-.064" fill="#FFF"/><path d="M1.143 3.317v4.852c0 3.332 1.826 5.31 6.094 6.592 4.272-1.282 6.097-3.26 6.097-6.592V3.317a9.4 9.4 0 01-2.374-.142c-1.443-.268-2.769-.846-3.723-1.613-.954.767-2.277 1.345-3.72 1.613-.8.149-1.608.196-2.374.142zm6.094 12.635l-.16-.047C3.783 14.943 0 13.194 0 8.17V2.01l.66.103a7.992 7.992 0 002.649-.062c1.44-.267 2.725-.872 3.528-1.66l.4-.391.4.391c.803.788 2.092 1.393 3.532 1.66.905.169 1.822.19 2.648.062l.66-.103v6.159c0 5.025-3.783 6.774-7.08 7.736l-.16.047z" fill="#282D33"/><path d="M7.237 13.565c-3.554-1.128-4.951-2.669-4.951-5.396v-3.7c.477-.024.96-.081 1.44-.17 1.314-.244 2.517-.706 3.511-1.334.994.628 2.2 1.09 3.512 1.334.482.09.962.146 1.442.17v3.7c0 2.727-1.4 4.268-4.954 5.396" fill="#34CA9D"/><path d="M10.38 7.899a3.142 3.142 0 11-6.286 0 3.144 3.144 0 016.286 0" fill="#FFF"/><path fill="#FFF" d="M8.571 6.718L6.963 8.736l-1.06-.683"/><path fill="#282D33" d="M7.086 9.497l-1.492-.964.62-.96.623.403 1.289-1.614.894.713-1.934 2.422"/></g></svg>