<svg width="84" height="85" viewBox="0 0 84 85" fill="none" xmlns="http://www.w3.org/2000/svg">
<path d="M46.6423 84.4039C23.466 85.6898 17.4651 76.4536 17.1781 73.0878C16.906 69.9122 17.6887 64.1088 17.8378 63.1061L20.9352 40.4517C22.5715 26.1612 32.0164 14.6327 45.6844 13.317C59.3524 12.0013 68.2196 21.5953 70.4336 35.6845L73.7546 62.8676C73.8515 63.6988 74.4814 67.3814 74.2504 69.4612C74.0267 71.4404 70.5082 83.0807 46.6423 84.4039Z" fill="#4797C2"/>
<path opacity="0.2" d="M45.6844 13.317C32.0164 14.6328 22.5715 26.1613 20.9352 40.448L17.8378 63.1025C17.6887 64.1051 16.906 69.9085 17.1781 73.0842C17.2936 74.4372 18.3335 76.7406 21.0433 78.9286C21.416 79.1075 21.7775 79.264 22.1167 79.3945C29.3887 82.1489 49.3595 83.7032 61.6894 71.1944C66.7175 66.0955 69.1514 46.2253 68.4358 28.1218C64.6377 18.3191 56.7321 12.251 45.6807 13.3133L45.6844 13.317Z" fill="white"/>
<path d="M54.4577 1.9413C55.0839 1.3002 56.0902 1.7512 55.9374 2.60848C54.9124 8.27396 50.7751 12.8399 45.8253 13.3133C40.8754 13.7866 36.5779 9.80215 35.4932 4.43113C35.3292 3.61485 36.3319 2.95885 36.958 3.46949C37.5842 3.98012 39.1385 5.87359 40.0032 5.79159C42.5825 5.54186 44.4163 2.07175 45.8253 1.93757C47.2342 1.80339 49.9178 5.10577 51.3417 4.93431C52.3778 4.80758 53.537 2.88803 54.4577 1.9413Z" fill="#4797C2"/>
<path d="M54.4577 1.9413C55.0839 1.3002 56.0902 1.7512 55.9374 2.60848C54.9124 8.27396 50.7751 12.8399 45.8253 13.3133C40.8754 13.7866 36.5779 9.80215 35.4932 4.43113C35.3292 3.61485 36.3319 2.95885 36.958 3.46949C37.5842 3.98012 39.1385 5.87359 40.0032 5.79159C42.5825 5.54186 44.4163 2.07175 45.8253 1.93757C47.2342 1.80339 49.9178 5.10577 51.3417 4.93431C52.3778 4.80758 53.537 2.88803 54.4577 1.9413Z" fill="#4797C2"/>
<path d="M55.9526 2.32151C54.8717 8.67281 50.6822 11.6323 45.7659 12.1056C40.8496 12.579 36.4179 9.27664 35.4748 3.90561C35.3444 3.16015 36.4328 2.8806 37.1186 2.70169C37.905 2.49669 39.5972 2.4706 40.4284 2.24324C43.0897 1.50896 42.9928 0.789593 45.7473 0.543591C48.1737 0.327408 49.482 2.16496 51.3121 1.63569C53.582 0.979684 56.1613 1.08032 55.9526 2.32151Z" fill="#4797C2"/>
<path opacity="0.2" d="M54.4577 1.94135C55.0839 1.30025 56.1163 1.72889 55.8591 2.55262C53.6712 7.49501 49.2879 12.6685 45.9147 13.1978C41.0394 14.0103 36.5779 9.80593 35.4932 4.4349C35.3292 3.61863 36.3319 2.96262 36.958 3.47326C37.5842 3.9839 39.1385 5.87737 40.0032 5.79537C42.5825 5.54564 44.4163 2.07553 45.8253 1.94135C47.2342 1.80716 49.9178 5.10954 51.3417 4.93809C52.3778 4.81136 53.537 2.89181 54.4577 1.94507V1.94135Z" fill="white"/>
<path d="M20.935 40.5076L17.8377 63.1621C17.7818 63.5422 17.6327 64.6157 17.4873 65.9724C18.0874 62.4278 21.8482 46.8365 26.1048 34.0631C30.5477 20.7343 38.908 15.1918 41.3755 14.1631C30.052 17.2418 22.3924 27.7752 20.935 40.5076Z" fill="#BCD0E1"/>
<path d="M44.6629 63.2478C39.7951 63.2441 37.6333 60.6611 36.9698 57.3028C36.8878 56.8891 37.1823 56.4977 37.5997 56.4567L38.1066 56.4083C38.4682 56.3747 38.7962 56.6133 38.867 56.9674C39.3814 59.4982 40.8275 61.5109 44.6294 61.6339C45.0282 61.6451 45.3599 61.3246 45.3599 60.922V51.1416C45.3599 50.7763 45.0804 50.4707 44.7188 50.4371C40.1082 49.9824 37.801 48.3573 37.801 44.6897C37.801 41.022 40.6225 38.1967 44.7785 37.4177C45.1139 37.3544 45.3599 37.0636 45.3599 36.7207V34.7751C45.3599 34.4098 45.6395 34.1042 46.001 34.0669C46.4185 34.0259 46.78 34.3539 46.78 34.7751V36.5083C46.78 36.8922 47.0819 37.2127 47.4621 37.2239C50.9509 37.3283 53.2133 39.0615 53.9402 42.0768C54.0408 42.4943 53.7426 42.9043 53.3177 42.9453L52.8965 42.9863C52.5573 43.0198 52.2405 42.8037 52.1473 42.4756C51.5249 40.243 50.0451 38.9944 47.5367 38.8341C47.1304 38.808 46.7838 39.136 46.7838 39.5423V48.2045C46.7838 48.5735 47.067 48.8791 47.436 48.9127C52.3896 49.345 54.8049 50.7279 54.8049 55.1522C54.8049 58.8981 51.8976 62.2042 47.3689 63.0354C47.0298 63.0988 46.7838 63.3895 46.7838 63.7324V66.99C46.7838 67.3553 46.5042 67.661 46.1427 67.6982C45.7252 67.7392 45.3637 67.4112 45.3637 66.99V63.956C45.3637 63.5684 45.0506 63.2478 44.6629 63.2441V63.2478ZM45.3637 47.9958V39.8069C45.3637 39.3559 44.9462 39.013 44.5027 39.1136C41.4686 39.7883 39.6497 41.7041 39.6497 44.3728C39.6497 46.803 40.712 48.1933 44.5586 48.7002C44.9835 48.7561 45.3637 48.4244 45.3637 47.9958ZM46.7838 51.3839V60.6797C46.7838 61.1345 47.2087 61.4774 47.6522 61.373C50.8763 60.5977 52.8891 58.2607 52.8891 55.4839C52.8891 52.3157 51.4801 51.1006 47.5739 50.6794C47.1528 50.6347 46.7875 50.9627 46.7875 51.3839H46.7838Z" fill="#4797C2"/>
<path opacity="0.1" d="M45.8252 13.3171C45.8252 13.3171 46.6117 13.045 47.413 12.2697C46.4961 12.9667 45.8252 13.3171 45.8252 13.3171Z" fill="white"/>
<path opacity="0.1" d="M51.3379 4.9344C50.5254 5.03131 49.3028 3.99512 48.1399 3.11548C48.7996 4.36785 49.4743 6.43277 48.986 9.22451C48.7325 10.667 48.0691 11.6361 47.4131 12.2697C48.8145 11.2074 50.7826 9.33633 51.7889 6.66386C52.1132 5.79913 52.3257 4.99403 52.4598 4.25976C52.0834 4.62503 51.7032 4.8934 51.3417 4.93812L51.3379 4.9344Z" fill="white"/>
<path opacity="0.2" d="M36.9617 3.47699C38.0314 5.69473 39.8615 9.32884 41.1474 10.9651C42.2842 12.4113 43.2533 13.0487 43.805 13.2388C43.9503 13.2574 44.0994 13.2686 44.2485 13.2798C44.2634 13.2723 44.2746 13.2649 44.2858 13.2537C44.3603 13.1568 41.7699 12.5082 40.8977 8.19574C40.7076 7.25274 40.6442 6.39919 40.648 5.66118C40.4392 5.72455 40.2268 5.77673 40.0069 5.79909C39.1459 5.88109 37.6177 4.01372 36.9654 3.48072L36.9617 3.47699Z" fill="white"/>
<path d="M50.0718 12.6349C50.0718 12.6349 48.3535 13.0784 45.8227 13.317C43.7391 13.5145 41.417 13.3543 41.417 13.3543" stroke="#003700" stroke-width="1.92" stroke-miterlimit="10" stroke-linecap="round"/>
</svg>
