<svg width="94" height="60" xmlns="http://www.w3.org/2000/svg"><g fill="none"><path d="M85.582 0H8.418c-.321 0-.643 0-.964.002-.271.002-.542.005-.812.012-.59.016-1.185.05-1.768.155a5.981 5.981 0 00-1.68.552 5.64 5.64 0 00-2.47 2.464A5.912 5.912 0 00.17 4.86C.064 5.44.03 6.035.014 6.623c-.008.27-.01.54-.013.809L0 8.394v43.213l.001.962c.002.27.005.54.013.809.015.587.05 1.18.156 1.761.106.591.28 1.14.553 1.676a5.58 5.58 0 001.04 1.427c.419.419.902.77 1.43 1.037a5.958 5.958 0 001.68.553c.584.103 1.179.139 1.769.155.27.006.54.01.812.01.32.003.643.003.964.003h77.164c.32 0 .643 0 .963-.002.271-.002.542-.005.813-.011a11.96 11.96 0 001.768-.155 5.963 5.963 0 001.68-.553 5.638 5.638 0 002.47-2.463 5.875 5.875 0 00.554-1.677c.105-.58.14-1.174.155-1.761.008-.27.011-.54.013-.81.002-.32.002-.64.002-.961V8.394c0-.321 0-.642-.002-.962-.002-.27-.005-.54-.013-.81-.016-.587-.05-1.18-.155-1.761a5.877 5.877 0 00-.554-1.676A5.649 5.649 0 0090.806.72a5.986 5.986 0 00-1.68-.552 12.069 12.069 0 00-1.768-.154 44.08 44.08 0 00-.813-.012C86.225 0 85.903 0 85.582 0z" fill="#000"/><path d="M85.674 1.905l.951.002c.258.001.516.004.775.011.45.012.978.037 1.47.125.427.077.785.193 1.13.368a3.638 3.638 0 011.596 1.595c.174.34.29.696.366 1.126.088.485.113 1.013.125 1.466.007.256.01.511.012.773.002.316.002.632.002.95v43.36c0 .316 0 .632-.002.955-.002.256-.005.511-.012.767-.012.452-.037.98-.126 1.47a3.89 3.89 0 01-.366 1.123 3.635 3.635 0 01-1.6 1.595c-.34.174-.698.29-1.121.366-.502.09-1.051.114-1.465.125-.26.006-.52.01-.785.01-.317.003-.634.003-.95.003H8.314c-.313 0-.626 0-.945-.002-.26-.001-.518-.005-.769-.01-.423-.012-.973-.036-1.47-.125a3.955 3.955 0 01-1.13-.37 3.607 3.607 0 01-.924-.67 3.61 3.61 0 01-.671-.922 3.935 3.935 0 01-.368-1.128c-.089-.49-.113-1.015-.125-1.464-.007-.258-.01-.515-.012-.77l-.001-.755V8.121l.001-.753c.002-.257.005-.514.012-.77.012-.45.036-.976.126-1.47a3.91 3.91 0 01.368-1.126A3.635 3.635 0 014.002 2.41c.342-.174.7-.29 1.127-.367.492-.088 1.02-.113 1.472-.125.257-.007.515-.01.77-.011l.955-.002h77.348" fill="#FFF"/><g fill="#000"><path d="M25.443 19.96c.801-1.006 1.344-2.357 1.201-3.738-1.172.059-2.602.777-3.43 1.784-.744.863-1.402 2.27-1.23 3.594 1.315.115 2.63-.661 3.46-1.64m1.186 1.898c-1.912-.114-3.536 1.09-4.449 1.09-.913 0-2.31-1.032-3.822-1.004-1.967.029-3.792 1.146-4.79 2.924-2.054 3.556-.542 8.832 1.454 11.728.97 1.433 2.139 3.01 3.678 2.954 1.455-.057 2.025-.947 3.794-.947 1.767 0 2.28.947 3.82.918 1.598-.028 2.596-1.433 3.566-2.868 1.112-1.633 1.567-3.21 1.596-3.297-.029-.029-3.08-1.205-3.108-4.732-.029-2.952 2.395-4.357 2.51-4.444-1.37-2.035-3.508-2.264-4.25-2.322M43.267 17.862c4.154 0 7.046 2.877 7.046 7.065 0 4.204-2.952 7.096-7.15 7.096h-4.598v7.348h-3.322v-21.51h8.024zM38.565 29.22h3.812c2.893 0 4.539-1.565 4.539-4.278 0-2.712-1.646-4.263-4.524-4.263h-3.827v8.541zm12.615 5.695c0-2.743 2.092-4.428 5.8-4.636l4.272-.254v-1.207c0-1.744-1.171-2.787-3.129-2.787-1.855 0-3.012.894-3.293 2.295h-3.026c.178-2.832 2.58-4.919 6.437-4.919 3.783 0 6.2 2.012 6.2 5.157v10.807h-3.07v-2.578h-.074c-.905 1.744-2.878 2.847-4.924 2.847-3.056 0-5.192-1.908-5.192-4.725zm10.072-1.416V32.26l-3.841.239c-1.914.134-2.997.984-2.997 2.325 0 1.371 1.128 2.266 2.848 2.266 2.24 0 3.99-1.55 3.99-3.592zM67.34 45.14v-2.608c.237.06.771.06 1.038.06 1.484 0 2.285-.627 2.774-2.237 0-.03.282-.954.282-.969L65.798 23.69h3.47l3.946 12.76h.06l3.945-12.76h3.382l-5.845 16.501c-1.334 3.801-2.877 5.024-6.11 5.024-.268 0-1.069-.03-1.306-.075z"/></g></g></svg>