<svg width="94" height="60" xmlns="http://www.w3.org/2000/svg"><g fill="none"><path d="M85.536.02H7.45c-.271.003-.541.006-.812.013-.59.016-1.185.05-1.767.155A5.963 5.963 0 003.192.74a5.645 5.645 0 00-2.47 2.461A5.895 5.895 0 00.17 4.876C.064 5.457.03 6.05.014 6.636c-.008.27-.011.54-.013.81L0 8.405v43.177l.001.96c.002.27.005.54.013.81.016.586.05 1.179.156 1.76.105.59.279 1.138.553 1.674a5.615 5.615 0 002.47 2.46 5.965 5.965 0 001.678.554 12.02 12.02 0 001.767.154 102.936 102.936 0 001.775.014h77.123c.32 0 .642 0 .963-.003.27 0 .54-.005.812-.011a11.96 11.96 0 001.767-.154 5.977 5.977 0 001.68-.553 5.624 5.624 0 002.468-2.461 5.869 5.869 0 00.553-1.675c.106-.58.14-1.173.156-1.76.007-.27.01-.539.012-.808.002-.321.002-.64.002-.961V8.406c0-.32 0-.64-.002-.96-.002-.27-.005-.54-.012-.81-.016-.587-.05-1.179-.156-1.76a5.86 5.86 0 00-.553-1.674A5.645 5.645 0 0090.757.741a5.975 5.975 0 00-1.679-.552 11.81 11.81 0 00-1.767-.155C87.04.027 86.77.024 86.5.02h-.964" fill="#3C4043"/><path d="M85.536 2.018l.949.002c.256.001.513.004.772.012.45.011.975.036 1.466.123.426.077.783.193 1.126.367a3.626 3.626 0 011.592 1.588c.173.34.289.694.366 1.121.087.484.111 1.01.123 1.46.008.255.011.51.012.77.003.315.003.63.003.945v43.177c0 .315 0 .63-.003.951 0 .255-.004.51-.012.764-.012.45-.036.976-.125 1.465a3.873 3.873 0 01-.366 1.117 3.614 3.614 0 01-1.593 1.588 3.92 3.92 0 01-1.12.365c-.5.089-1.048.114-1.46.124-.26.007-.518.01-.783.011-.315.002-.632.002-.947.002H8.4c-.312 0-.624 0-.942-.002a42.193 42.193 0 01-.766-.01 10.1 10.1 0 01-1.467-.125 3.936 3.936 0 01-1.127-.367 3.59 3.59 0 01-.921-.668 3.588 3.588 0 01-.669-.918 3.906 3.906 0 01-.367-1.123c-.088-.488-.112-1.011-.125-1.459-.007-.255-.01-.512-.011-.766l-.001-.75V7.457c.003-.256.005-.511.012-.767.013-.448.037-.971.126-1.464a3.91 3.91 0 01.367-1.12A3.611 3.611 0 014.1 2.522c.342-.174.7-.29 1.125-.367a9.976 9.976 0 011.467-.123c.257-.008.514-.01.769-.012l.951-.002h77.123" fill="#FFFFFE"/><path d="M45.336 31.256v8.46h-2.668V18.832h7.076a6.323 6.323 0 014.574 1.815 6.05 6.05 0 01.298 8.527l-.298.3c-1.243 1.182-2.767 1.782-4.574 1.782h-4.408zm0-9.86v7.295h4.475a3.48 3.48 0 002.635-1.082c1.392-1.45 1.358-3.78-.083-5.18a3.629 3.629 0 00-2.552-1.032h-4.475zm17.052 3.564c1.973 0 3.53.534 4.674 1.583 1.143 1.049 1.707 2.515 1.707 4.363v8.81h-2.552v-1.982H66.1c-1.11 1.632-2.57 2.448-4.409 2.448-1.557 0-2.883-.466-3.927-1.398a4.426 4.426 0 01-1.574-3.498c0-1.482.563-2.648 1.673-3.53 1.11-.883 2.602-1.316 4.458-1.316 1.591 0 2.884.3 3.911.866v-.616a3.14 3.14 0 00-1.094-2.382 3.867 3.867 0 00-2.568-.982c-1.492 0-2.668.632-3.53 1.898l-2.353-1.482c1.26-1.849 3.165-2.781 5.7-2.781zm-3.446 10.376c0 .7.331 1.35.878 1.749a3.248 3.248 0 002.071.7c1.127 0 2.204-.45 3-1.25.878-.832 1.326-1.815 1.326-2.948-.83-.666-1.99-.999-3.48-.982-1.078 0-1.99.266-2.718.783-.713.516-1.077 1.165-1.077 1.948zm24.476-9.909l-8.916 20.568h-2.75l3.314-7.195-5.85-13.373h2.9l4.226 10.259h.05l4.126-10.259z" fill="#3C4043"/><path d="M34.548 29.424c0-.816-.066-1.632-.199-2.432H23.097v4.614h6.447a5.555 5.555 0 01-2.387 3.647v2.998h3.845c2.254-2.082 3.546-5.163 3.546-8.827z" fill="#4285F4"/><path d="M23.097 41.148c3.215 0 5.933-1.065 7.905-2.897l-3.845-2.998c-1.077.733-2.452 1.149-4.06 1.149-3.115 0-5.75-2.115-6.695-4.946h-3.96v3.097a11.912 11.912 0 0010.655 6.595z" fill="#34A853"/><path d="M16.402 31.456a7.27 7.27 0 010-4.597v-3.08h-3.96a11.942 11.942 0 000 10.758l3.96-3.081z" fill="#FBBC04"/><path d="M23.097 21.913a6.404 6.404 0 014.574 1.799l3.414-3.431a11.486 11.486 0 00-7.988-3.114c-4.507 0-8.634 2.564-10.655 6.611l3.96 3.098c.945-2.848 3.58-4.963 6.695-4.963z" fill="#EA4335"/></g></svg>