<svg width="180" height="181" viewBox="0 0 180 181" fill="none" xmlns="http://www.w3.org/2000/svg">
<g clip-path="url(#clip0_1013_105707)">
<path d="M89.9358 41.2629C92.3158 41.6429 94.1158 43.6129 94.1158 46.4429C94.1158 49.9462 91.4691 52.4529 88.5391 52.7362C85.6424 53.0162 82.9258 51.0262 82.9258 47.5929C82.9258 44.1596 85.5724 41.5096 88.5391 41.2262C89.0191 41.1796 89.4891 41.1962 89.9358 41.2662V41.2629ZM92.3658 46.6129C92.3658 44.0029 90.7224 42.5162 88.5391 42.7262C86.3958 42.9329 84.7124 44.6662 84.7124 47.4196C84.7124 50.1729 86.3924 51.4396 88.5391 51.2329C90.7191 51.0229 92.3658 49.3262 92.3658 46.6096V46.6129ZM88.7291 67.0362L87.5691 67.0596H87.5358C86.9458 67.1196 86.5425 66.4796 86.8458 65.9729L102.222 40.3829C102.339 40.1862 102.546 40.0562 102.772 40.0362C103.362 39.9796 104.966 39.9296 104.659 40.4396L88.7291 67.0396V67.0362ZM96.2258 60.7562C96.2258 57.3229 98.8358 54.6796 101.802 54.3929C104.842 54.0996 107.416 56.2463 107.416 59.6062C107.416 62.9662 104.736 65.6562 101.802 65.9396C98.9058 66.2196 96.2258 64.1896 96.2258 60.7562ZM105.629 59.7796C105.629 57.1696 104.019 55.7162 101.802 55.9296C99.6591 56.1362 97.9758 57.8696 97.9758 60.5862C97.9758 63.3029 99.6925 64.6029 101.802 64.3996C103.982 64.1896 105.629 62.4929 105.629 59.7762V59.7796Z" fill="#BCD0E1"/>
<path d="M154.281 115.507V106.02C154.281 105.547 154.501 105.127 154.841 104.854L161.277 108.55L161.101 119.357L154.277 115.507H154.281Z" fill="#FFD180"/>
<path d="M27.5898 152.053C27.8898 152.323 28.2965 152.477 28.7332 152.433L145.26 141.213C146.023 141.14 146.607 140.497 146.607 139.73V114.637" stroke="black" stroke-miterlimit="10"/>
<path d="M27.5882 152.054C27.2882 151.784 27.1016 151.39 27.1016 150.95V56.5638C27.1016 55.6304 27.9116 55.0038 28.7316 55.0771L35.1416 58.5271L53.0382 74.6038L35.5282 155.474H33.6649L27.5882 152.054Z" fill="#B6D3AB"/>
<path d="M51.1869 70.68L70.0203 68.8666C70.3869 68.83 70.7536 68.9333 71.0503 69.1533L76.2969 72.0933L55.6969 74.0066L51.1836 70.68H51.1869Z" fill="#2C681A"/>
<path d="M98.4336 88.447C102.424 87.8537 114.75 86.1737 115.704 86.847L121.314 89.9503L119.06 89.867L103.927 91.737C103.334 91.8137 102.737 91.657 102.257 91.3003L98.4336 88.4437V88.447Z" fill="#2C681A"/>
<path d="M128.203 111.063L138.753 110.046C139.09 110.013 139.43 110.096 139.713 110.283L145.17 113.33L128.893 115.083L128.203 111.063Z" fill="#2C681A"/>
<path d="M152.311 117.97L145.414 113.456C145.131 113.27 144.794 113.186 144.454 113.22L130.587 114.556C129.887 114.623 129.237 114.196 129.024 113.526C127.521 108.783 121.844 90.8864 121.401 90.0231C120.947 89.1364 106.717 91.2297 103.571 91.7064C103.177 91.7664 102.777 91.6664 102.461 91.4297L76.7474 72.3297C76.4508 72.1097 76.0841 72.0064 75.7174 72.0431L56.1408 73.9297C55.7674 73.9664 55.3974 73.8597 55.0974 73.6331L35.1908 58.5531C34.2108 57.8097 32.8008 58.5097 32.8008 59.7397V154.126C32.8008 155.006 33.5574 155.693 34.4341 155.61L150.961 144.39C151.724 144.316 152.307 143.673 152.307 142.906V117.973L152.311 117.97Z" fill="#499B2D"/>
<path d="M86.9916 80.7563C89.925 81.5229 93.0816 81.7896 96.3749 81.4729C111.765 79.9896 124.245 66.3129 124.245 50.9196C124.245 35.5263 112.595 25.0163 97.9183 25.6263L97.815 25.5996C108.645 28.3796 116.408 37.9563 116.408 50.0963C116.408 65.4863 103.932 79.1663 88.5383 80.6496C88.0583 80.6963 87.5816 80.7296 87.1049 80.7529H86.9883L86.9916 80.7563Z" fill="#4797C2"/>
<path d="M90.0906 41.8297C92.4706 42.2097 94.0806 43.6163 94.0806 46.4463C94.0806 49.9497 91.4339 52.4563 88.5039 52.7397V51.2397C90.6839 51.0297 92.3306 49.333 92.3306 46.6163C92.3306 43.8997 90.6872 42.5197 88.5039 42.7297L89.4539 41.873C89.7239 41.873 89.6439 41.2263 89.9006 41.2697" fill="#4797C2"/>
<path d="M103.368 55.0103C105.748 55.3903 107.358 56.797 107.358 59.627C107.358 63.1303 104.711 65.637 101.781 65.9203V64.4203C103.961 64.2103 105.608 62.5137 105.608 59.797C105.608 57.0803 103.965 55.7003 101.781 55.9103L102.731 55.0537C103.001 55.0537 102.921 54.407 103.178 54.4503" fill="#4797C2"/>
<path d="M154.874 105.033C155.141 104.79 155.494 104.64 155.881 104.64H157.371C157.608 104.64 157.831 104.696 158.031 104.793L164.358 107.96C164.528 108.05 164.511 108.356 164.331 108.426L161.404 108.62L154.871 105.03L154.874 105.033Z" fill="#EA9E06" stroke="#EA9E06" stroke-miterlimit="10"/>
<path opacity="0.2" d="M154.874 105.033C155.141 104.79 155.494 104.64 155.881 104.64H157.371C157.608 104.64 157.831 104.696 158.031 104.793L164.358 107.96C164.528 108.05 164.511 108.356 164.331 108.426L161.404 108.62L154.871 105.03L154.874 105.033Z" fill="white" stroke="white" stroke-miterlimit="10"/>
<path d="M130.402 106.786L139.078 105.95C139.308 105.926 139.535 105.96 139.748 106.04L146.265 109.18L131.625 111.156L130.398 106.786H130.402Z" fill="#EA9E06"/>
<path opacity="0.2" d="M130.402 106.786L139.078 105.95C139.308 105.926 139.535 105.96 139.748 106.04L146.265 109.18L131.625 111.156L130.398 106.786H130.402Z" fill="white"/>
<path d="M99.5273 84.2003C101.231 83.9536 103.501 83.6369 105.774 83.3536C108.454 83.0169 110.621 82.7936 112.214 82.6836C113.704 82.5803 115.064 82.4869 116.077 82.8503L123.004 86.1669L104.234 88.3603L99.5273 84.1969" fill="#EA9E06"/>
<path opacity="0.2" d="M99.5273 84.2003C101.231 83.9536 103.501 83.6369 105.774 83.3536C108.454 83.0169 110.621 82.7936 112.214 82.6836C113.704 82.5803 115.064 82.4869 116.077 82.8503L123.004 86.1669L104.234 88.3603L99.5273 84.1969" fill="white"/>
<path d="M52.3906 66.4999L70.424 64.7632C70.6473 64.7432 70.8706 64.7699 71.0773 64.8466L77.7906 68.0699L56.524 70.1632L52.394 66.4999H52.3906Z" fill="#EA9E06"/>
<path opacity="0.2" d="M52.3906 66.4999L70.424 64.7632C70.6473 64.7432 70.8706 64.7699 71.0773 64.8466L77.7906 68.0699L56.524 70.1632L52.394 66.4999H52.3906Z" fill="white"/>
<path d="M49.0143 71.3698C48.7777 71.2898 48.5243 71.1698 48.3743 71.0564L16.4277 46.6697C16.1777 46.4797 15.881 46.1664 15.8477 45.6631L22.6877 49.6564L55.561 74.3664L49.0143 71.3731V71.3698Z" fill="#FFD180"/>
<path d="M15.8462 45.66C15.8029 45.29 15.8962 44.9034 16.1362 44.58L17.0362 43.3934C17.3562 42.97 17.8562 42.7667 18.3462 42.8067L25.3662 46.0767L22.9562 49.81L15.8462 45.66Z" fill="#EA9E06"/>
<path opacity="0.2" d="M15.8462 45.66C15.8029 45.29 15.8962 44.9034 16.1362 44.58L17.0362 43.3934C17.3562 42.97 17.8562 42.7667 18.3462 42.8067L25.3662 46.0767L22.9562 49.81L15.8462 45.66Z" fill="white"/>
<path d="M141.714 119.21C141.424 119.513 141.264 119.933 141.308 120.383L141.451 121.867C141.498 122.367 141.791 122.787 142.198 123.02L148.841 126.27V122.217L141.714 119.213V119.21Z" fill="#FFD180"/>
<path d="M151.541 117.927L142.644 118.76C142.274 118.797 141.951 118.963 141.711 119.213L149.168 122.4L157.774 121.34L151.538 117.927H151.541Z" fill="#EA9E06"/>
<path opacity="0.2" d="M151.541 117.927L142.644 118.76C142.274 118.797 141.951 118.963 141.711 119.213L149.168 122.4L157.774 121.34L151.538 117.927H151.541Z" fill="white"/>
<path d="M74.0346 72.6769L95.7479 88.807C95.8612 88.8903 95.9846 88.9569 96.1146 89.0069L102.931 92.1803L103.428 90.0803C103.428 90.0803 76.4213 71.1536 76.2979 71.2003C76.1746 71.2469 74.0312 72.6803 74.0312 72.6803L74.0346 72.6769Z" fill="#FFD180"/>
<path d="M114.828 90.6933C116.541 95.9466 119.245 104.437 121.125 110.377L121.305 110.95C121.358 111.117 121.438 111.27 121.541 111.403L128.618 114.88C128.618 114.88 120.861 89.2733 120.725 89.2266C120.588 89.18 114.831 90.6933 114.831 90.6933H114.828Z" fill="#FFD180"/>
<path d="M65.8986 68.9734L57.1719 66.0434C56.1253 62.9234 55.5586 59.54 55.5586 55.97C55.5586 37.7034 70.3686 21.4667 88.6353 19.71C92.2653 19.36 95.7553 19.61 99.0253 20.3734L99.0553 20.38C98.2019 20.3967 97.3419 20.4467 96.4719 20.53C78.2053 22.29 63.3953 38.5234 63.3953 56.79C63.3953 61.1934 64.2553 65.3167 65.8186 69.01" fill="#BCD0E1"/>
<path d="M160.811 109.163V118.65L146.571 109.333C146.288 109.146 145.951 109.063 145.611 109.096L132.761 110.333C132.061 110.4 131.411 109.973 131.198 109.303C128.368 100.366 124.445 88.0898 123.978 87.1798C123.131 85.5265 121.098 85.6665 118.741 85.8265C117.148 85.9365 114.981 86.1598 112.301 86.4965C109.378 86.8632 106.458 87.2832 104.745 87.5365C104.355 87.5932 103.958 87.4932 103.638 87.2598L77.978 68.1998C77.6814 67.9798 77.3147 67.8765 76.948 67.9132L57.3814 69.7965C57.008 69.8332 56.638 69.7265 56.338 69.4998L25.648 46.2532C24.9914 45.7565 24.058 45.8865 23.5614 46.5398L22.6614 47.7265C22.1647 48.3832 22.2947 49.3165 22.948 49.8132L55.028 74.1132C55.3247 74.3398 55.698 74.4432 56.0714 74.4098L75.6614 72.5232C76.028 72.4865 76.3947 72.5898 76.6914 72.8098L102.461 91.9532C102.781 92.1898 103.185 92.2898 103.578 92.2298L103.885 92.1832C109.445 91.3232 115.868 90.4998 119.188 90.2698C119.865 90.2232 120.488 90.6398 120.705 91.2832C122.228 95.8532 125.615 106.476 127.841 113.52L128.021 114.093C128.235 114.763 128.885 115.193 129.585 115.126L144.468 113.693C144.805 113.66 145.145 113.743 145.428 113.93L156.565 121.22L149.135 121.936C148.315 122.016 147.715 122.743 147.795 123.563L147.938 125.047C148.018 125.867 148.745 126.466 149.565 126.386L163.921 125.003C164.685 124.93 165.268 124.286 165.268 123.52V109.166C165.268 108.343 164.601 107.676 163.778 107.676H162.288C161.465 107.676 160.798 108.343 160.798 109.166L160.811 109.163Z" fill="#EA9E06"/>
<path d="M71.4208 68.4238C69.5574 64.8638 68.5075 60.7505 68.5075 56.2872C68.5075 40.8972 80.9841 27.2172 96.3774 25.7338C111.767 24.2505 124.247 35.5272 124.247 50.9205C124.247 66.3138 111.771 79.9905 96.3774 81.4738C96.1908 81.4905 96.0041 81.5072 95.8174 81.5238L101.487 85.7971C117.327 81.8138 129.454 66.9505 129.454 50.4205C129.454 32.1538 114.644 18.7705 96.3774 20.5305C78.1108 22.2905 63.3008 38.5238 63.3008 56.7905C63.3008 61.1805 64.1575 65.2905 65.7108 68.9738L71.4208 68.4238Z" fill="#5FA2C0"/>
<path opacity="0.2" d="M71.4208 68.4238C69.5574 64.8638 68.5075 60.7505 68.5075 56.2872C68.5075 40.8972 80.9841 27.2172 96.3774 25.7338C111.767 24.2505 124.247 35.5272 124.247 50.9205C124.247 66.3138 111.771 79.9905 96.3774 81.4738C96.1908 81.4905 96.0041 81.5072 95.8174 81.5238L101.487 85.7971C117.327 81.8138 129.454 66.9505 129.454 50.4205C129.454 32.1538 114.644 18.7705 96.3774 20.5305C78.1108 22.2905 63.3008 38.5238 63.3008 56.7905C63.3008 61.1805 64.1575 65.2905 65.7108 68.9738L71.4208 68.4238Z" fill="white"/>
<path d="M84.3047 47.6133C84.3047 44.18 86.9514 41.53 89.918 41.2467C92.958 40.9533 95.4947 43.1033 95.4947 46.4633C95.4947 49.8233 92.848 52.4733 89.918 52.7567C87.0214 53.0367 84.3047 51.0466 84.3047 47.6133ZM93.7414 46.6333C93.7414 44.0233 92.098 42.5367 89.9147 42.7467C87.7713 42.9533 86.088 44.6867 86.088 47.44C86.088 50.1933 87.768 51.46 89.9147 51.2533C92.0947 51.0433 93.7414 49.3467 93.7414 46.63V46.6333ZM104.148 40.0533C104.738 39.9967 105.141 40.6367 104.838 41.1433L89.4947 66.73C89.378 66.9267 89.1713 67.0566 88.9447 67.0766H88.9114C88.3214 67.1366 87.918 66.4967 88.2214 65.99L103.598 40.4C103.715 40.2033 103.921 40.0733 104.148 40.0533ZM97.6013 60.7733C97.6013 57.34 100.211 54.6966 103.178 54.41C106.218 54.1166 108.791 56.2633 108.791 59.6233C108.791 62.9833 106.111 65.6733 103.178 65.9566C100.281 66.2366 97.6013 64.2067 97.6013 60.7733ZM107.005 59.7966C107.005 57.1866 105.395 55.7333 103.178 55.9466C101.035 56.1533 99.3513 57.8867 99.3513 60.6033C99.3513 63.32 101.068 64.62 103.178 64.4167C105.358 64.2066 107.005 62.51 107.005 59.7933V59.7966Z" fill="#5FA2C0"/>
</g>
<defs>
<clipPath id="clip0_1013_105707">
<rect width="180" height="180" fill="white" transform="translate(0 0.5)"/>
</clipPath>
</defs>
</svg>
