<svg width="180" height="180" viewBox="0 0 180 180" fill="none" xmlns="http://www.w3.org/2000/svg">
<path d="M153.193 125.727V116.24C153.193 115.767 153.413 115.347 153.753 115.073L160.19 118.77L160.013 129.577L153.19 125.727H153.193Z" fill="#FFD180"/>
<path d="M153.79 115.253C154.057 115.009 154.41 114.859 154.797 114.859H156.287C156.523 114.859 156.747 114.916 156.947 115.013L163.273 118.179C163.443 118.269 163.427 118.576 163.247 118.646L160.32 118.839L153.787 115.249L153.79 115.253Z" fill="#EEB138"/>
<path d="M129.32 117.01L137.996 116.173C138.226 116.15 138.453 116.183 138.666 116.263L145.183 119.403L130.543 121.38L129.316 117.01H129.32Z" fill="#EEB138"/>
<path d="M98.4429 94.42C100.146 94.1733 102.416 93.8567 104.69 93.5733C107.37 93.2367 109.536 93.0133 111.13 92.9033C112.62 92.8 113.98 92.7067 114.993 93.07L121.92 96.3867L103.15 98.58L98.4429 94.4167" fill="#EEB138"/>
<path d="M51.3032 76.7235L69.3366 74.9869C69.5599 74.9669 69.7832 74.9935 69.9899 75.0702L76.7032 78.2935L55.4366 80.3869L51.3066 76.7235H51.3032Z" fill="#EEB138"/>
<path d="M47.9264 81.5928C47.6898 81.5128 47.4364 81.3928 47.2864 81.2795L15.3398 56.8895C15.0898 56.6995 14.7931 56.3861 14.7598 55.8828L21.5998 59.8761L54.4731 84.5861L47.9264 81.5928Z" fill="#FFD180"/>
<path d="M14.7598 55.8798C14.7164 55.5098 14.8098 55.1231 15.0498 54.7998L15.9498 53.6131C16.2698 53.1898 16.7698 52.9864 17.2598 53.0264L24.2798 56.2964L21.8698 60.0298L14.7598 55.8798Z" fill="#EEB138"/>
<path d="M140.63 129.43C140.34 129.733 140.18 130.153 140.223 130.603L140.367 132.086C140.413 132.586 140.707 133.006 141.113 133.24L147.757 136.49V132.436L140.63 129.433V129.43Z" fill="#FFD180"/>
<path d="M150.456 128.146L141.56 128.98C141.19 129.016 140.866 129.183 140.626 129.433L148.083 132.62L156.69 131.56L150.453 128.146H150.456Z" fill="#EEB138"/>
<path d="M72.9462 82.8996L94.6595 99.0296C94.7729 99.1129 94.8962 99.1796 95.0262 99.2296L101.843 102.403L102.34 100.303C102.34 100.303 75.3329 81.3763 75.2095 81.4229C75.0862 81.4696 72.9429 82.9029 72.9429 82.9029L72.9462 82.8996Z" fill="#FFD180"/>
<path d="M113.747 100.913C115.46 106.166 118.163 114.656 120.043 120.596L120.223 121.17C120.277 121.336 120.357 121.49 120.46 121.623L127.537 125.1C127.537 125.1 119.78 99.493 119.643 99.4464C119.507 99.3997 113.75 100.913 113.75 100.913H113.747Z" fill="#FFD180"/>
<path d="M159.723 119.383V128.87L145.483 119.553C145.2 119.366 144.863 119.283 144.523 119.316L131.673 120.553C130.973 120.62 130.323 120.193 130.11 119.523C127.28 110.586 123.356 98.3096 122.89 97.3996C122.043 95.7462 120.01 95.8862 117.653 96.0462C116.06 96.1562 113.893 96.3796 111.213 96.7162C108.29 97.0829 105.37 97.5029 103.656 97.7562C103.266 97.8129 102.87 97.7129 102.55 97.4796L76.8897 78.4196C76.593 78.1996 76.2263 78.0962 75.8597 78.1329L56.293 80.0162C55.9197 80.0529 55.5497 79.9462 55.2497 79.7196L24.5597 56.4729C23.903 55.9762 22.9697 56.1062 22.473 56.7596L21.573 57.9462C21.0763 58.6029 21.2063 59.5362 21.8597 60.0329L53.9397 84.3329C54.2363 84.5596 54.6097 84.6629 54.983 84.6296L74.573 82.7429C74.9397 82.7062 75.3063 82.8096 75.603 83.0296L101.373 102.173C101.693 102.41 102.096 102.51 102.49 102.45L102.796 102.403C108.356 101.543 114.78 100.72 118.1 100.49C118.776 100.443 119.4 100.86 119.616 101.503C121.14 106.073 124.526 116.696 126.753 123.74L126.933 124.313C127.146 124.983 127.796 125.413 128.496 125.346L143.38 123.913C143.716 123.88 144.056 123.963 144.34 124.15L155.476 131.44L148.046 132.156C147.226 132.236 146.626 132.963 146.706 133.783L146.85 135.266C146.93 136.086 147.656 136.686 148.476 136.606L162.833 135.223C163.596 135.15 164.18 134.506 164.18 133.74V119.386C164.18 118.563 163.513 117.896 162.69 117.896H161.2C160.376 117.896 159.71 118.563 159.71 119.386L159.723 119.383Z" fill="#EA9E06"/>
<path d="M124.827 67.2926C124.977 66.3759 125.06 65.4392 125.06 64.4859C125.06 59.3426 123.607 55.8926 120.75 53.5692C122.293 53.9626 123.637 54.3159 124.383 54.4992C121.143 52.3526 115.743 50.8126 112.81 50.1826C110.913 49.7759 108.803 49.4859 106.477 49.2792V28.4459C112.643 28.7392 116.06 31.7726 117.31 38.0826H117.343L123.55 40.6559C123.22 38.9626 122.73 37.6992 122.697 37.6126L123.807 37.5159C122.723 27.9426 116.473 22.8226 106.473 22.7826V15.1992L101.557 15.6292V23.1292C91.14 24.7059 83.9733 32.0859 83.9733 40.7526C83.9733 50.7526 90.5566 54.0926 101.557 55.2126V78.3792C91.39 78.3526 89.39 72.7759 88.5566 66.3492L81.5566 66.9626C82.5566 76.4592 87.3066 84.2926 101.557 84.0459V94.6292L106.473 94.1992V83.6159C110.617 82.9992 114.307 81.4426 117.287 79.2292C118.287 78.8559 119.203 78.4426 119.867 78.0192C122.623 75.6459 123.807 73.5692 124.833 70.2359C124.893 69.7759 124.837 68.4192 124.837 67.9426C124.837 67.7226 124.83 67.5092 124.823 67.2959L124.827 67.2926ZM101.56 48.8759C92.31 47.7692 90.56 44.7559 90.56 39.5059C90.56 34.2559 94.56 29.9892 101.56 28.7926V48.8759ZM106.477 55.6126C110.957 56.1659 113.853 57.1026 115.64 58.6459C116.787 59.6359 117.473 60.8759 117.833 62.4259C117.833 62.4292 117.833 62.4359 117.837 62.4392C117.87 62.5892 117.9 62.7392 117.93 62.8925C117.93 62.8992 117.93 62.9092 117.933 62.9159C117.96 63.0659 117.983 63.2159 118.003 63.3692C118.003 63.3826 118.007 63.3959 118.01 63.4126C118.03 63.5626 118.047 63.7126 118.063 63.8659C118.063 63.8859 118.067 63.9059 118.07 63.9259C118.083 64.0759 118.097 64.2326 118.107 64.3892C118.107 64.4126 118.11 64.4359 118.113 64.4592C118.123 64.6226 118.13 64.7892 118.133 64.9559C118.133 64.9759 118.133 64.9926 118.133 65.0126C118.14 65.1992 118.14 65.3926 118.14 65.5859C118.14 65.8126 118.13 66.0392 118.117 66.2626C118.113 66.3292 118.107 66.3959 118.1 66.4626C118.087 66.6259 118.07 66.7859 118.053 66.9459C118.047 67.0126 118.037 67.0826 118.027 67.1492C118 67.3326 117.97 67.5159 117.937 67.6959C117.93 67.7292 117.923 67.7659 117.917 67.8026C117.873 68.0192 117.823 68.2326 117.767 68.4459C117.753 68.4959 117.74 68.5426 117.727 68.5892C117.68 68.7559 117.63 68.9192 117.577 69.0826C117.557 69.1426 117.537 69.1992 117.517 69.2592C117.457 69.4259 117.397 69.5926 117.33 69.7559C117.313 69.7959 117.3 69.8326 117.283 69.8726C117.197 70.0792 117.107 70.2826 117.007 70.4859C117 70.4992 116.993 70.5126 116.987 70.5259C116.897 70.7092 116.8 70.8926 116.697 71.0726C116.673 71.1159 116.65 71.1559 116.623 71.1992C116.53 71.3592 116.433 71.5192 116.333 71.6759C116.313 71.7092 116.293 71.7392 116.27 71.7726C116.02 72.1526 115.747 72.5226 115.453 72.8759C115.433 72.8992 115.417 72.9192 115.397 72.9426C115.263 73.0992 115.13 73.2526 114.99 73.4059C114.97 73.4292 114.947 73.4525 114.927 73.4759C114.603 73.8192 114.26 74.1525 113.897 74.4659C113.897 74.4659 113.89 74.4692 113.89 74.4726C113.713 74.6226 113.533 74.7692 113.35 74.9126C113.33 74.9292 113.307 74.9459 113.287 74.9626C113.1 75.1059 112.91 75.2459 112.713 75.3825C110.93 76.6159 108.803 77.5059 106.473 77.9459V55.6126H106.477Z" fill="#B6D3AB"/>
<path d="M107.8 18.1996L106.417 17.6296V15.1963L101.5 15.6263V23.1263C91.0832 24.703 83.9165 32.083 83.9165 40.7496C83.9165 48.683 88.0632 52.423 95.2665 54.1896C91.9665 51.9663 90.1565 48.5596 90.1565 43.323C90.1565 42.2096 90.2765 41.1163 90.5065 40.053L96.8832 30.223C99.7865 27.9563 103.493 26.3463 107.743 25.703V25.6796L107.803 25.703V18.203L107.8 18.1996Z" fill="#B6D3AB"/>
<path d="M88.5601 66.3467L94.8001 68.92L87.8001 69.5333L81.5601 66.96L88.5601 66.3467Z" fill="#88B776"/>
<path d="M107.8 80.9498L101.56 78.3764V56.7598L107.8 57.7831V80.9498Z" fill="#88B776"/>
<path d="M101.56 48.8762L107.8 51.4495V31.3662C107.8 31.3662 105.42 31.4595 104.68 31.7195C103.807 32.0262 101.56 33.7062 101.56 33.7062V48.8762Z" fill="#88B776"/>
<path d="M107.8 97.1995L101.56 94.6262V86.1162L107.8 86.6162V97.1995Z" fill="#88B776"/>
<path d="M101.56 15.6263L107.8 18.1996L112.717 17.7696L106.477 15.1963L101.56 15.6263Z" fill="#88B776"/>
<path d="M107.8 86.6162C93.5498 86.8629 88.7998 79.0295 87.7998 69.5329L94.7998 68.9195C95.6331 75.3462 97.6331 80.9229 107.8 80.9495V57.7829C96.7998 56.6629 90.2165 53.3229 90.2165 43.3229C90.2165 34.6562 97.3831 27.2795 107.8 25.6995V18.1995L112.716 17.7695V25.3529C122.716 25.3962 128.966 30.5129 130.05 40.0862L123.55 40.6562C122.3 34.3495 118.883 31.3129 112.716 31.0195V51.8529C124.966 52.9462 131.3 56.3095 131.3 67.0595C131.3 76.5595 123.55 84.5695 112.716 86.1862V96.7695L107.8 97.1995V86.6162ZM107.8 51.4495V31.3662C100.8 32.5629 96.7998 36.9129 96.7998 42.0795C96.7998 47.2462 98.5498 50.3429 107.8 51.4495ZM112.716 58.1862V80.5195C119.383 79.2695 124.383 74.3329 124.383 68.1662C124.383 61.9995 121.8 59.3095 112.716 58.1862Z" fill="#499B2D"/>
<path d="M37.8135 157.986V86.5662L44.4802 86.1929L37.3635 81.6829C37.1135 81.4696 36.7835 81.3496 36.4235 81.3796L25.4435 82.3396C24.7835 82.3962 24.2769 82.9496 24.2769 83.6096V158.946C24.2769 159.36 24.4769 159.72 24.7769 159.953H24.7702L24.8269 159.99C24.8635 160.016 24.9035 160.043 24.9435 160.063L31.9402 164.503L40.9535 158.6L37.4235 158.896C37.6602 158.663 37.8102 158.343 37.8102 157.986H37.8135Z" fill="#BCD0E1"/>
<path d="M43.6301 85.9598L32.6501 86.9198C31.9901 86.9764 31.4834 87.5298 31.4834 88.1931V163.53C31.4834 164.28 32.1267 164.866 32.8701 164.803L43.8501 163.843C44.5101 163.786 45.0167 163.233 45.0167 162.57V87.2331C45.0167 86.4831 44.3734 85.8964 43.6301 85.9598Z" fill="#4797C2"/>
<path d="M72.5533 157.987V103.04L79.2199 102.667L72.1033 98.1565C71.8533 97.9432 71.5233 97.8232 71.1633 97.8532L60.1833 98.8132C59.5233 98.8699 59.0166 99.4232 59.0166 100.083V158.947C59.0166 159.36 59.2166 159.72 59.5166 159.953H59.5099L59.5666 159.99C59.6033 160.017 59.6433 160.043 59.6833 160.063L66.6799 164.503L75.6933 158.6L72.1633 158.897C72.3999 158.663 72.5499 158.343 72.5499 157.987H72.5533Z" fill="#BCD0E1"/>
<path d="M78.3698 102.433L67.3898 103.393C66.7298 103.45 66.2231 104.003 66.2231 104.667V163.53C66.2231 164.28 66.8665 164.867 67.6098 164.803L78.5898 163.843C79.2498 163.787 79.7565 163.233 79.7565 162.57V103.707C79.7565 102.957 79.1131 102.37 78.3698 102.433Z" fill="#4797C2"/>
<path d="M106.66 157.987V120.367L113.327 119.994L106.21 115.484C105.96 115.27 105.63 115.15 105.27 115.18L94.2902 116.14C93.6302 116.197 93.1235 116.75 93.1235 117.41V158.944C93.1235 159.357 93.3235 159.717 93.6235 159.95H93.6169L93.6735 159.987C93.7102 160.014 93.7502 160.04 93.7902 160.06L100.787 164.5L109.8 158.597L106.27 158.894C106.507 158.66 106.657 158.34 106.657 157.984L106.66 157.987Z" fill="#BCD0E1"/>
<path d="M112.477 119.761L101.497 120.721C100.837 120.777 100.33 121.331 100.33 121.994V163.527C100.33 164.277 100.973 164.864 101.717 164.801L112.697 163.841C113.357 163.784 113.863 163.231 113.863 162.567V121.034C113.863 120.284 113.22 119.697 112.477 119.761Z" fill="#4797C2"/>
<path d="M137.033 157.987V141.9L143.7 141.527L136.583 137.017C136.333 136.804 136.003 136.684 135.643 136.714L124.663 137.674C124.003 137.73 123.497 138.284 123.497 138.944V158.944C123.497 159.357 123.697 159.717 123.997 159.95H123.99L124.047 159.987C124.083 160.014 124.123 160.04 124.163 160.06L131.16 164.5L140.173 158.597L136.643 158.894C136.88 158.66 137.03 158.34 137.03 157.984L137.033 157.987Z" fill="#BCD0E1"/>
<path d="M142.85 141.294L131.87 142.254C131.21 142.31 130.703 142.864 130.703 143.527V163.527C130.703 164.277 131.346 164.864 132.09 164.8L143.07 163.84C143.73 163.784 144.236 163.23 144.236 162.567V142.567C144.236 141.817 143.593 141.23 142.85 141.294Z" fill="#4797C2"/>
</svg>
