<svg width="122" height="119" viewBox="0 0 122 119" fill="none" xmlns="http://www.w3.org/2000/svg">
<path d="M101.814 55.2799L90.865 37.0869L91.4352 35.6452L88.5949 33.3105L25.875 38.7975V85.053L28.7153 87.3876L31.8605 84.5294L88.5949 79.5624L101.814 55.2799Z" fill="#BCD0E1"/>
<path d="M28.7148 87.3879V41.1325L91.4348 35.6455L104.654 57.6149L91.4348 81.8974L28.7148 87.3879Z" fill="#4797C2"/>
<path d="M61.615 76.7723C54.0194 76.905 51.4839 72.727 50.9531 67.6633L54.6864 67.3369C55.1311 70.7618 56.1962 73.7348 61.6186 73.7491V61.3981C55.7551 60.7992 52.2442 59.0204 52.2442 53.6876C52.2442 49.0686 56.0635 45.1344 61.6186 44.2917V40.293L64.2402 40.0635V44.1052C69.5693 44.1267 72.9046 46.8558 73.4819 51.9591L70.0176 52.2639C69.3506 48.9 67.5288 47.2826 64.2438 47.1284V58.235C70.7743 58.8196 74.149 60.6127 74.149 66.3435C74.149 71.4073 70.0176 75.6785 64.2438 76.5392V82.1804L61.6222 82.4099V76.7687L61.615 76.7723ZM61.615 58.0234V47.3149C57.8818 47.9532 55.7515 50.2699 55.7515 53.0242C55.7515 55.7784 56.6839 57.4281 61.615 58.0198V58.0234ZM64.2366 61.6133V73.5196C67.7906 72.8526 70.4552 70.2202 70.4552 66.9352C70.4552 63.6502 69.078 62.2122 64.2366 61.6133Z" fill="#BCD0E1"/>
<path d="M59.7408 0.231453C27.0701 3.08969 0.582031 31.8945 0.582031 64.5652C0.582031 97.2359 27.0665 121.407 59.7408 118.549C92.4115 115.691 118.9 86.886 118.9 54.2153C118.9 21.5445 92.4151 -2.62679 59.7408 0.231453ZM17.3047 95.034C10.6056 86.7318 6.63562 76.0232 6.63562 64.038C6.63562 34.7061 30.4125 8.84921 59.7444 6.28504C74.7457 4.97247 88.2909 10.0076 97.9487 19.1633L17.3047 95.034ZM59.7408 112.499C44.6068 113.822 30.954 108.687 21.2783 99.3769L101.955 23.4739C108.786 31.812 112.85 42.6245 112.85 54.7424C112.85 84.0744 89.0727 109.931 59.7408 112.495V112.499Z" fill="#B6D3AB"/>
<path d="M63.1451 1.3465C30.8222 4.17605 4.62109 32.6688 4.62109 64.9917C4.62109 97.3145 30.8222 121.224 63.1451 118.395C95.468 115.565 121.669 87.0722 121.669 54.7493C121.669 22.4265 95.468 -1.48305 63.1451 1.3465ZM21.1609 95.1341C14.5335 86.9216 10.6065 76.3278 10.6065 64.4681C10.6065 35.4517 34.1288 9.87102 63.1451 7.33195C77.985 6.03373 91.3868 11.015 100.941 20.0739L21.1609 95.1341ZM63.1451 112.409C48.1725 113.718 34.6667 108.64 25.095 99.4304L104.907 24.3415C111.667 32.5899 115.684 43.2877 115.684 55.2765C115.684 84.2929 92.1615 109.874 63.1451 112.413V112.409Z" fill="#499B2D"/>
</svg>
