<svg width="181" height="181" viewBox="0 0 181 181" fill="none" xmlns="http://www.w3.org/2000/svg">
<g clip-path="url(#clip0_2563_116307)">
<path d="M119.342 121.201C140.162 99.353 140.955 66.3133 121.112 47.4045C101.27 28.4957 68.3069 30.8783 47.4869 52.7262C26.667 74.574 25.8744 107.614 45.7167 126.522C65.559 145.431 98.5222 143.049 119.342 121.201Z" fill="#EED5AF"/>
<path d="M126.772 124.87C147.592 103.022 148.384 69.9822 128.542 51.0734C108.7 32.1647 75.7366 34.5473 54.9166 56.3951C34.0967 78.2429 33.3041 111.283 53.1464 130.191C72.9886 149.1 105.952 146.718 126.772 124.87Z" fill="#EEB138"/>
<path d="M119.041 117.501C135.379 100.356 136.001 74.4275 120.429 59.5883C104.857 44.7491 78.9885 46.6184 62.6499 63.7636C46.3114 80.9087 45.6899 106.837 61.2617 121.676C76.8335 136.516 102.702 134.646 119.041 117.501Z" fill="#499B2D"/>
<path d="M111.436 110.257C123.37 97.7334 123.824 78.7951 112.451 67.9568C101.077 57.1184 82.183 58.4843 70.249 71.0074C58.315 83.5306 57.8606 102.469 69.234 113.307C80.6075 124.146 99.5019 122.78 111.436 110.257Z" fill="#EEB138"/>
<path d="M105.112 104.23C113.38 95.5539 113.694 82.4322 105.813 74.9219C97.9319 67.4117 84.8404 68.357 76.5723 77.0333C68.3042 85.7096 67.9904 98.8314 75.8714 106.342C83.7524 113.852 96.8439 112.907 105.112 104.23Z" fill="#499B2D"/>
<path d="M99.139 98.5358C103.944 93.4931 104.127 85.8669 99.5468 81.5022C94.9666 77.1374 87.358 77.6871 82.5526 82.7297C77.7471 87.7724 77.5646 95.3987 82.1448 99.7634C86.725 104.128 94.3335 103.578 99.139 98.5358Z" fill="#EEB138"/>
<path d="M166.009 82.2012L90.795 89.2498C90.795 89.2498 90.2148 89.6786 90.2148 91.1272C90.2148 92.2948 90.795 92.8389 90.795 92.8389L166.009 85.7903C166.009 85.7903 165.263 85.4624 165.184 84.2156C165.094 82.8102 166.009 82.2012 166.009 82.2012Z" fill="#4797C2"/>
<path d="M147.035 84.0287L152.379 71.5783L157.266 71.1063L156.812 77.1207L160.563 70.7892L166.588 70.209L161.244 82.6594L147.035 84.0287Z" fill="#82B3D8"/>
<path d="M147.035 87.6148L152.379 99.0381L157.266 98.5661L156.812 92.6418L160.563 98.2489L166.588 97.6688L161.244 86.249L147.035 87.6148Z" fill="#82B3D8"/>
<path d="M90.2695 90.4245L165.296 83.2462C165.523 82.5255 166.01 82.2012 166.01 82.2012L90.7957 89.2498C90.7957 89.2498 90.4101 89.5345 90.2695 90.4245Z" fill="#BCD0E1"/>
<path d="M167.08 84.0457C167.129 83.0538 166.694 82.2261 166.107 82.197C165.521 82.1679 165.005 82.9485 164.956 83.9404C164.907 84.9322 165.343 85.7599 165.929 85.789C166.515 85.8181 167.031 85.0376 167.08 84.0457Z" fill="#82B3D8"/>
</g>
<defs>
<clipPath id="clip0_2563_116307">
<rect width="180" height="180" fill="white" transform="translate(0.667969 0.5)"/>
</clipPath>
</defs>
</svg>
