<svg width="244" height="240" viewBox="0 0 244 240" fill="none" xmlns="http://www.w3.org/2000/svg">
<g clip-path="url(#clip0_4431_48866)">
<path d="M148.517 108.809C148.17 110.105 148.166 111.465 148.507 112.752C148.849 114.039 149.522 115.209 150.462 116.145L198.191 163.875C199.038 164.736 200.084 165.377 201.24 165.743C202.396 166.109 203.628 166.188 204.83 165.975C206.033 165.762 207.172 165.262 208.148 164.518C209.125 163.773 209.912 162.807 210.441 161.701C219.308 143.268 222.307 122.639 219.026 102.637C215.746 82.6352 206.346 64.2382 192.115 49.9641C187.884 45.7481 183.286 41.917 178.374 38.5145C177.371 37.8391 176.216 37.4186 175.006 37.2889C173.797 37.1593 172.57 37.3243 171.429 37.7699C170.398 38.1216 169.456 38.7006 168.674 39.4636C167.732 40.4174 167.053 41.5989 166.707 42.8887L148.517 108.809ZM200.954 145.07L164.294 108.411L178.215 57.7655C179.343 58.7588 180.337 59.7531 181.331 60.7475C192.06 71.5177 199.567 85.0837 203.028 99.9578C206.489 114.832 205.772 130.44 200.954 145.07ZM51.9308 190.148C36.7811 175.019 27.1156 155.241 24.4262 133.867C21.7368 112.493 26.1732 90.7122 37.0505 71.886C47.9278 53.0597 64.6412 38.2353 84.6105 29.7011C104.58 21.167 126.695 19.3977 147.542 24.6663L148.075 24.7956L148.208 24.9281C149.169 25.1729 150.068 25.6082 150.853 26.2085C151.637 26.8088 152.291 27.5619 152.776 28.4236C153.261 29.2852 153.567 30.238 153.676 31.2258C153.785 32.2137 153.695 33.2167 153.412 34.1758L130.464 117.714L191.054 178.304C192.461 179.711 193.241 181.627 193.225 183.633C193.208 185.639 192.396 187.569 190.966 188.999C178.733 201.227 163.564 210.091 146.968 214.707C130.372 219.324 112.927 219.533 96.3714 215.313L95.7703 215.251C95.6527 215.171 95.514 215.125 95.3704 215.121C78.8927 210.775 63.9145 202.165 51.9308 190.148Z" fill="url(#paint0_linear_4431_48866)"/>
</g>
<defs>
<linearGradient id="paint0_linear_4431_48866" x1="184.072" y1="284.564" x2="325.264" y2="121.228" gradientUnits="userSpaceOnUse">
<stop stop-color="#0055DD"/>
<stop offset="1" stop-color="#4296F8"/>
</linearGradient>
<clipPath id="clip0_4431_48866">
<rect width="244" height="240" fill="white"/>
</clipPath>
</defs>
</svg>