<svg width="180" height="180" viewBox="0 0 180 180" fill="none" xmlns="http://www.w3.org/2000/svg">
<g clip-path="url(#clip0_2175_110504)">
<path d="M142.673 143.627C142.673 149.555 120.55 156.294 93.2601 158.682C65.9703 161.07 43.8477 158.2 43.8477 152.272V146.823L142.673 138.597V143.624V143.627Z" fill="#EA9E06" stroke="#EA9E06" stroke-miterlimit="10"/>
<path d="M94.226 153.574C121.51 151.072 143.191 144.277 142.652 138.398C142.113 132.518 119.557 129.78 92.2734 132.283C64.9892 134.785 43.3082 141.58 43.8474 147.459C44.3866 153.338 66.9419 156.076 94.226 153.574Z" fill="#EA9E06" stroke="#EA9E06" stroke-miterlimit="10"/>
<path opacity="0.2" d="M94.226 153.574C121.51 151.072 143.191 144.277 142.652 138.398C142.113 132.518 119.557 129.78 92.2734 132.283C64.9892 134.785 43.3082 141.58 43.8474 147.459C44.3866 153.338 66.9419 156.076 94.226 153.574Z" fill="white" stroke="white" stroke-miterlimit="10"/>
<path d="M97.8609 44.5785L150.321 53.1337C151.402 53.2589 151.961 52.7467 152.008 51.9477C152.054 51.1487 151.832 50.4527 150.772 50.2856L97.8555 41.6553L97.8609 44.5785Z" fill="#EA9E06"/>
<path d="M97.856 141.578C97.856 141.578 97.2613 142.636 93.3245 142.957C89.786 143.245 88.7793 142.315 88.7793 142.315V27.7801C88.7793 26.3597 90.2525 25.0792 92.0531 24.9311L94.5822 24.7254C96.3828 24.5801 97.856 25.6221 97.856 27.0397V141.578Z" fill="#EED5AF"/>
<path d="M93.3258 142.957C97.2615 142.636 97.856 141.577 97.856 141.577V27.0402C97.856 25.6198 96.3832 24.5779 94.5832 24.7259L93.3177 24.8274C94.2532 25.8118 94.2913 28.2083 94.4932 31.3671C95.0932 40.7504 94.725 133.469 94.725 133.469C94.725 133.469 94.6514 140.604 88.7793 141.786V142.315C88.7793 142.315 89.7857 143.245 93.3231 142.957H93.3258Z" fill="#EA9E06"/>
<path d="M112.718 91.548C112.718 94.3849 123.309 95.7595 136.374 94.6176C149.438 93.4758 160.03 90.2473 160.03 87.4104V84.8857L112.715 89.026V91.5507L112.718 91.548Z" fill="#EA9E06"/>
<path d="M135.88 50.6517L157.397 83.0922L160.031 84.8858C160.031 84.8858 137.692 51.2103 136.824 49.9014L135.877 50.6544L135.88 50.6517Z" fill="#EA9E06"/>
<path d="M136.148 51.0461L157.4 83.0896L158.337 83.3963C158.337 83.3963 137.353 51.7855 136.485 50.4766L136.148 51.0461Z" fill="#CC9A4A"/>
<path d="M136.839 92.0579C149.902 90.8599 160.283 87.6069 160.025 84.7922C159.767 81.9775 148.968 80.6669 135.905 81.865C122.842 83.063 112.461 86.3159 112.719 89.1306C112.977 91.9454 123.776 93.2559 136.839 92.0579Z" fill="#EEB138"/>
<path d="M113.069 89.8747L136.829 49.8984C136.818 49.8792 136.487 49.3535 136.303 49.0605C136.249 48.9728 136.12 48.9756 136.068 49.0632L112.77 88.6808C112.77 88.6808 112.688 88.919 112.76 89.3489C112.806 89.6364 113.066 89.8747 113.066 89.8747H113.069Z" fill="#EED5AF"/>
<path d="M113.069 89.8745L136.829 49.8982C136.813 49.8735 136.679 49.6709 136.679 49.6709L112.773 89.4007C112.773 89.4007 112.817 89.576 112.894 89.6883C112.96 89.7868 113.069 89.8745 113.069 89.8745Z" fill="#EA9E06"/>
<path d="M121.885 87.879C121.885 88.8264 125.425 89.2864 129.793 88.9058C134.161 88.5252 137.701 87.4463 137.701 86.4961V85.1133L121.885 86.4961V87.879Z" fill="#499B2D"/>
<path d="M129.945 87.5193C134.312 87.1187 137.783 86.031 137.697 85.0897C137.61 84.1485 134 83.7102 129.632 84.1107C125.265 84.5112 121.795 85.599 121.881 86.5402C121.967 87.4815 125.578 87.9198 129.945 87.5193Z" fill="#B6D3AB"/>
<path d="M122.196 88.0978C122.119 88.0978 122.059 88.0375 122.059 87.9609V87.2023C122.059 87.1257 122.119 87.0654 122.196 87.0654C122.272 87.0654 122.332 87.1257 122.332 87.2023V87.9609C122.332 88.0375 122.272 88.0978 122.196 88.0978Z" fill="#88B776"/>
<path d="M122.934 88.4425C122.857 88.4425 122.797 88.3822 122.797 88.3056V87.5471C122.797 87.4704 122.857 87.4102 122.934 87.4102C123.01 87.4102 123.071 87.4704 123.071 87.5471V88.3056C123.071 88.3822 123.01 88.4425 122.934 88.4425Z" fill="#88B776"/>
<path d="M123.737 88.6339C123.66 88.6339 123.6 88.5737 123.6 88.497V87.7385C123.6 87.6618 123.66 87.6016 123.737 87.6016C123.813 87.6016 123.873 87.6618 123.873 87.7385V88.497C123.873 88.5737 123.813 88.6339 123.737 88.6339Z" fill="#88B776"/>
<path d="M124.785 88.7743C124.709 88.7743 124.648 88.7141 124.648 88.6374V87.8762C124.648 87.7995 124.709 87.7393 124.785 87.7393C124.862 87.7393 124.922 87.7995 124.922 87.8762V88.6374C124.922 88.7141 124.862 88.7743 124.785 88.7743Z" fill="#88B776"/>
<path d="M126.051 88.8505C125.974 88.8505 125.914 88.7903 125.914 88.7136V87.9523C125.914 87.8757 125.974 87.8154 126.051 87.8154C126.128 87.8154 126.188 87.8757 126.188 87.9523V88.7136C126.188 88.7903 126.128 88.8505 126.051 88.8505Z" fill="#88B776"/>
<path d="M127.514 88.8593C127.437 88.8593 127.377 88.799 127.377 88.7224V87.9611C127.377 87.8845 127.437 87.8242 127.514 87.8242C127.591 87.8242 127.651 87.8845 127.651 87.9611V88.7224C127.651 88.799 127.591 88.8593 127.514 88.8593Z" fill="#88B776"/>
<path d="M129.143 88.7851C129.066 88.7851 129.006 88.7248 129.006 88.6482V87.8869C129.006 87.8102 129.066 87.75 129.143 87.75C129.219 87.75 129.28 87.8102 129.28 87.8869V88.6482C129.28 88.7248 129.219 88.7851 129.143 88.7851Z" fill="#88B776"/>
<path d="M130.86 88.6237C130.783 88.6237 130.723 88.5635 130.723 88.4868V87.7229C130.723 87.6462 130.783 87.5859 130.86 87.5859C130.936 87.5859 130.996 87.6462 130.996 87.7229V88.4868C130.996 88.5635 130.936 88.6237 130.86 88.6237Z" fill="#88B776"/>
<path d="M132.455 88.3933C132.379 88.3933 132.318 88.333 132.318 88.2564V87.4924C132.318 87.4157 132.379 87.3555 132.455 87.3555C132.532 87.3555 132.592 87.4157 132.592 87.4924V88.2564C132.592 88.333 132.532 88.3933 132.455 88.3933Z" fill="#88B776"/>
<path d="M133.879 88.1111C133.802 88.1111 133.742 88.0508 133.742 87.9741V87.2102C133.742 87.1335 133.802 87.0732 133.879 87.0732C133.956 87.0732 134.016 87.1335 134.016 87.2102V87.9741C134.016 88.0508 133.956 88.1111 133.879 88.1111Z" fill="#88B776"/>
<path d="M135.11 87.7966C135.033 87.7966 134.973 87.7364 134.973 87.6597V86.8957C134.973 86.819 135.033 86.7588 135.11 86.7588C135.186 86.7588 135.246 86.819 135.246 86.8957V87.6597C135.246 87.7364 135.186 87.7966 135.11 87.7966Z" fill="#88B776"/>
<path d="M136.112 87.4654C136.035 87.4654 135.975 87.4051 135.975 87.3284V86.5617C135.975 86.485 136.035 86.4248 136.112 86.4248C136.188 86.4248 136.248 86.485 136.248 86.5617V87.3284C136.248 87.4051 136.188 87.4654 136.112 87.4654Z" fill="#88B776"/>
<path d="M136.856 87.1362C136.779 87.1362 136.719 87.076 136.719 86.9993V86.2326C136.719 86.1559 136.779 86.0957 136.856 86.0957C136.932 86.0957 136.993 86.1559 136.993 86.2326V86.9993C136.993 87.076 136.932 87.1362 136.856 87.1362Z" fill="#88B776"/>
<path d="M137.457 86.7066C137.381 86.7066 137.32 86.6463 137.32 86.5697V85.8029C137.32 85.7263 137.381 85.666 137.457 85.666C137.534 85.666 137.594 85.7263 137.594 85.8029V86.5697C137.594 86.6463 137.534 86.7066 137.457 86.7066Z" fill="#88B776"/>
<path d="M121.885 86.167C121.885 87.1145 125.425 87.5745 129.793 87.1939C134.161 86.8133 137.701 85.7344 137.701 84.7842V83.4014L121.885 84.7842V86.167Z" fill="#499B2D"/>
<path d="M129.945 85.8034C134.312 85.4029 137.783 84.3152 137.697 83.3739C137.61 82.4327 134 81.9943 129.632 82.3949C125.265 82.7954 121.795 83.8831 121.881 84.8244C121.967 85.7656 125.578 86.204 129.945 85.8034Z" fill="#B6D3AB"/>
<path d="M122.196 86.3829C122.119 86.3829 122.059 86.3227 122.059 86.246V85.4875C122.059 85.4108 122.119 85.3506 122.196 85.3506C122.272 85.3506 122.332 85.4108 122.332 85.4875V86.246C122.332 86.3227 122.272 86.3829 122.196 86.3829Z" fill="#88B776"/>
<path d="M122.934 86.7306C122.857 86.7306 122.797 86.6703 122.797 86.5937V85.8352C122.797 85.7585 122.857 85.6982 122.934 85.6982C123.01 85.6982 123.071 85.7585 123.071 85.8352V86.5937C123.071 86.6703 123.01 86.7306 122.934 86.7306Z" fill="#88B776"/>
<path d="M123.737 86.9191C123.66 86.9191 123.6 86.8588 123.6 86.7821V86.0236C123.6 85.947 123.66 85.8867 123.737 85.8867C123.813 85.8867 123.873 85.947 123.873 86.0236V86.7821C123.873 86.8588 123.813 86.9191 123.737 86.9191Z" fill="#88B776"/>
<path d="M124.785 87.0595C124.709 87.0595 124.648 86.9992 124.648 86.9226V86.1613C124.648 86.0847 124.709 86.0244 124.785 86.0244C124.862 86.0244 124.922 86.0847 124.922 86.1613V86.9226C124.922 86.9992 124.862 87.0595 124.785 87.0595Z" fill="#88B776"/>
<path d="M126.051 87.1357C125.974 87.1357 125.914 87.0754 125.914 86.9987V86.2375C125.914 86.1608 125.974 86.1006 126.051 86.1006C126.128 86.1006 126.188 86.1608 126.188 86.2375V86.9987C126.188 87.0754 126.128 87.1357 126.051 87.1357Z" fill="#88B776"/>
<path d="M127.514 87.1444C127.437 87.1444 127.377 87.0842 127.377 87.0075V86.2463C127.377 86.1696 127.437 86.1094 127.514 86.1094C127.591 86.1094 127.651 86.1696 127.651 86.2463V87.0075C127.651 87.0842 127.591 87.1444 127.514 87.1444Z" fill="#88B776"/>
<path d="M129.143 87.0702C129.066 87.0702 129.006 87.01 129.006 86.9333V86.1721C129.006 86.0954 129.066 86.0352 129.143 86.0352C129.219 86.0352 129.28 86.0954 129.28 86.1721V86.9333C129.28 87.01 129.219 87.0702 129.143 87.0702Z" fill="#88B776"/>
<path d="M130.86 86.9089C130.783 86.9089 130.723 86.8487 130.723 86.772V86.008C130.723 85.9313 130.783 85.8711 130.86 85.8711C130.936 85.8711 130.996 85.9313 130.996 86.008V86.772C130.996 86.8487 130.936 86.9089 130.86 86.9089Z" fill="#88B776"/>
<path d="M132.455 86.6784C132.379 86.6784 132.318 86.6182 132.318 86.5415V85.7775C132.318 85.7009 132.379 85.6406 132.455 85.6406C132.532 85.6406 132.592 85.7009 132.592 85.7775V86.5415C132.592 86.6182 132.532 86.6784 132.455 86.6784Z" fill="#88B776"/>
<path d="M133.879 86.3962C133.802 86.3962 133.742 86.336 133.742 86.2593V85.4953C133.742 85.4186 133.802 85.3584 133.879 85.3584C133.956 85.3584 134.016 85.4186 134.016 85.4953V86.2593C134.016 86.336 133.956 86.3962 133.879 86.3962Z" fill="#88B776"/>
<path d="M135.11 86.0817C135.033 86.0817 134.973 86.0215 134.973 85.9448V85.1809C134.973 85.1042 135.033 85.0439 135.11 85.0439C135.186 85.0439 135.246 85.1042 135.246 85.1809V85.9448C135.246 86.0215 135.186 86.0817 135.11 86.0817Z" fill="#88B776"/>
<path d="M136.112 85.7534C136.035 85.7534 135.975 85.6932 135.975 85.6165V84.8498C135.975 84.7731 136.035 84.7129 136.112 84.7129C136.188 84.7129 136.248 84.7731 136.248 84.8498V85.6165C136.248 85.6932 136.188 85.7534 136.112 85.7534Z" fill="#88B776"/>
<path d="M136.856 85.4243C136.779 85.4243 136.719 85.3641 136.719 85.2874V84.5207C136.719 84.444 136.779 84.3838 136.856 84.3838C136.932 84.3838 136.993 84.444 136.993 84.5207V85.2874C136.993 85.3641 136.932 85.4243 136.856 85.4243Z" fill="#88B776"/>
<path d="M137.457 84.9917C137.381 84.9917 137.32 84.9315 137.32 84.8548V84.0881C137.32 84.0114 137.381 83.9512 137.457 83.9512C137.534 83.9512 137.594 84.0114 137.594 84.0881V84.8548C137.594 84.9315 137.534 84.9917 137.457 84.9917Z" fill="#88B776"/>
<path d="M134.832 87.878C134.832 88.8254 138.373 89.2855 142.74 88.9048C147.108 88.5242 150.648 87.4453 150.648 86.4951V85.1123L134.832 86.4951V87.878Z" fill="#499B2D"/>
<path d="M142.892 87.5193C147.26 87.1187 150.73 86.031 150.644 85.0897C150.558 84.1485 146.947 83.7102 142.58 84.1107C138.212 84.5112 134.742 85.599 134.828 86.5402C134.914 87.4815 138.525 87.9198 142.892 87.5193Z" fill="#B6D3AB"/>
<path d="M135.143 88.0978C135.066 88.0978 135.006 88.0375 135.006 87.9609V87.2023C135.006 87.1257 135.066 87.0654 135.143 87.0654C135.219 87.0654 135.28 87.1257 135.28 87.2023V87.9609C135.28 88.0375 135.219 88.0978 135.143 88.0978Z" fill="#88B776"/>
<path d="M135.885 88.4425C135.808 88.4425 135.748 88.3822 135.748 88.3056V87.5471C135.748 87.4704 135.808 87.4102 135.885 87.4102C135.962 87.4102 136.022 87.4704 136.022 87.5471V88.3056C136.022 88.3822 135.962 88.4425 135.885 88.4425Z" fill="#88B776"/>
<path d="M136.688 88.6339C136.611 88.6339 136.551 88.5737 136.551 88.497V87.7385C136.551 87.6618 136.611 87.6016 136.688 87.6016C136.764 87.6016 136.825 87.6618 136.825 87.7385V88.497C136.825 88.5737 136.764 88.6339 136.688 88.6339Z" fill="#88B776"/>
<path d="M137.737 88.7743C137.66 88.7743 137.6 88.7141 137.6 88.6374V87.8762C137.6 87.7995 137.66 87.7393 137.737 87.7393C137.813 87.7393 137.873 87.7995 137.873 87.8762V88.6374C137.873 88.7141 137.813 88.7743 137.737 88.7743Z" fill="#88B776"/>
<path d="M139 88.8505C138.924 88.8505 138.863 88.7903 138.863 88.7136V87.9523C138.863 87.8757 138.924 87.8154 139 87.8154C139.077 87.8154 139.137 87.8757 139.137 87.9523V88.7136C139.137 88.7903 139.077 88.8505 139 88.8505Z" fill="#88B776"/>
<path d="M140.461 88.8593C140.384 88.8593 140.324 88.799 140.324 88.7224V87.9611C140.324 87.8845 140.384 87.8242 140.461 87.8242C140.538 87.8242 140.598 87.8845 140.598 87.9611V88.7224C140.598 88.799 140.538 88.8593 140.461 88.8593Z" fill="#88B776"/>
<path d="M142.092 88.7851C142.015 88.7851 141.955 88.7248 141.955 88.6482V87.8869C141.955 87.8102 142.015 87.75 142.092 87.75C142.169 87.75 142.229 87.8102 142.229 87.8869V88.6482C142.229 88.7248 142.169 88.7851 142.092 88.7851Z" fill="#88B776"/>
<path d="M143.809 88.6237C143.732 88.6237 143.672 88.5635 143.672 88.4868V87.7229C143.672 87.6462 143.732 87.5859 143.809 87.5859C143.885 87.5859 143.946 87.6462 143.946 87.7229V88.4868C143.946 88.5635 143.885 88.6237 143.809 88.6237Z" fill="#88B776"/>
<path d="M145.406 88.3933C145.33 88.3933 145.27 88.333 145.27 88.2564V87.4924C145.27 87.4157 145.33 87.3555 145.406 87.3555C145.483 87.3555 145.543 87.4157 145.543 87.4924V88.2564C145.543 88.333 145.483 88.3933 145.406 88.3933Z" fill="#88B776"/>
<path d="M146.83 88.1111C146.754 88.1111 146.693 88.0508 146.693 87.9741V87.2102C146.693 87.1335 146.754 87.0732 146.83 87.0732C146.907 87.0732 146.967 87.1335 146.967 87.2102V87.9741C146.967 88.0508 146.907 88.1111 146.83 88.1111Z" fill="#88B776"/>
<path d="M148.059 87.7966C147.982 87.7966 147.922 87.7364 147.922 87.6597V86.8957C147.922 86.819 147.982 86.7588 148.059 86.7588C148.135 86.7588 148.196 86.819 148.196 86.8957V87.6597C148.196 87.7364 148.135 87.7966 148.059 87.7966Z" fill="#88B776"/>
<path d="M149.061 87.4654C148.984 87.4654 148.924 87.4051 148.924 87.3284V86.5617C148.924 86.485 148.984 86.4248 149.061 86.4248C149.137 86.4248 149.198 86.485 149.198 86.5617V87.3284C149.198 87.4051 149.137 87.4654 149.061 87.4654Z" fill="#88B776"/>
<path d="M149.807 87.1362C149.73 87.1362 149.67 87.076 149.67 86.9993V86.2326C149.67 86.1559 149.73 86.0957 149.807 86.0957C149.884 86.0957 149.944 86.1559 149.944 86.2326V86.9993C149.944 87.076 149.884 87.1362 149.807 87.1362Z" fill="#88B776"/>
<path d="M150.406 86.7066C150.33 86.7066 150.27 86.6463 150.27 86.5696V85.8029C150.27 85.7263 150.33 85.666 150.406 85.666C150.483 85.666 150.543 85.7263 150.543 85.8029V86.5696C150.543 86.6463 150.483 86.7066 150.406 86.7066Z" fill="#88B776"/>
<path d="M134.832 86.167C134.832 87.1145 138.373 87.5745 142.74 87.1939C147.108 86.8133 150.648 85.7344 150.648 84.7842V83.4014L134.832 84.7842V86.167Z" fill="#499B2D"/>
<path d="M142.894 85.8044C147.262 85.4039 150.732 84.3161 150.646 83.3749C150.56 82.4336 146.949 81.9953 142.582 82.3959C138.214 82.7964 134.744 83.8841 134.83 84.8254C134.916 85.7666 138.527 86.205 142.894 85.8044Z" fill="#B6D3AB"/>
<path d="M135.143 86.3839C135.066 86.3839 135.006 86.3237 135.006 86.247V85.4885C135.006 85.4118 135.066 85.3516 135.143 85.3516C135.219 85.3516 135.28 85.4118 135.28 85.4885V86.247C135.28 86.3237 135.219 86.3839 135.143 86.3839Z" fill="#88B776"/>
<path d="M135.885 86.7315C135.808 86.7315 135.748 86.6713 135.748 86.5946V85.8361C135.748 85.7595 135.808 85.6992 135.885 85.6992C135.962 85.6992 136.022 85.7595 136.022 85.8361V86.5946C136.022 86.6713 135.962 86.7315 135.885 86.7315Z" fill="#88B776"/>
<path d="M136.688 86.92C136.611 86.92 136.551 86.8598 136.551 86.7831V86.0246C136.551 85.9479 136.611 85.8877 136.688 85.8877C136.764 85.8877 136.825 85.9479 136.825 86.0246V86.7831C136.825 86.8598 136.764 86.92 136.688 86.92Z" fill="#88B776"/>
<path d="M137.737 87.0605C137.66 87.0605 137.6 87.0002 137.6 86.9235V86.1623C137.6 86.0856 137.66 86.0254 137.737 86.0254C137.813 86.0254 137.873 86.0856 137.873 86.1623V86.9235C137.873 87.0002 137.813 87.0605 137.737 87.0605Z" fill="#88B776"/>
<path d="M139 87.1366C138.924 87.1366 138.863 87.0764 138.863 86.9997V86.2385C138.863 86.1618 138.924 86.1016 139 86.1016C139.077 86.1016 139.137 86.1618 139.137 86.2385V86.9997C139.137 87.0764 139.077 87.1366 139 87.1366Z" fill="#88B776"/>
<path d="M140.461 87.1454C140.384 87.1454 140.324 87.0852 140.324 87.0085V86.2473C140.324 86.1706 140.384 86.1104 140.461 86.1104C140.538 86.1104 140.598 86.1706 140.598 86.2473V87.0085C140.598 87.0852 140.538 87.1454 140.461 87.1454Z" fill="#88B776"/>
<path d="M142.092 87.0712C142.015 87.0712 141.955 87.011 141.955 86.9343V86.173C141.955 86.0964 142.015 86.0361 142.092 86.0361C142.169 86.0361 142.229 86.0964 142.229 86.173V86.9343C142.229 87.011 142.169 87.0712 142.092 87.0712Z" fill="#88B776"/>
<path d="M143.809 86.9099C143.732 86.9099 143.672 86.8496 143.672 86.773V86.009C143.672 85.9323 143.732 85.8721 143.809 85.8721C143.885 85.8721 143.946 85.9323 143.946 86.009V86.773C143.946 86.8496 143.885 86.9099 143.809 86.9099Z" fill="#88B776"/>
<path d="M145.406 86.6794C145.33 86.6794 145.27 86.6192 145.27 86.5425V85.7785C145.27 85.7018 145.33 85.6416 145.406 85.6416C145.483 85.6416 145.543 85.7018 145.543 85.7785V86.5425C145.543 86.6192 145.483 86.6794 145.406 86.6794Z" fill="#88B776"/>
<path d="M146.83 86.3972C146.754 86.3972 146.693 86.3369 146.693 86.2603V85.4963C146.693 85.4196 146.754 85.3594 146.83 85.3594C146.907 85.3594 146.967 85.4196 146.967 85.4963V86.2603C146.967 86.3369 146.907 86.3972 146.83 86.3972Z" fill="#88B776"/>
<path d="M148.059 86.0827C147.982 86.0827 147.922 86.0225 147.922 85.9458V85.1818C147.922 85.1052 147.982 85.0449 148.059 85.0449C148.135 85.0449 148.196 85.1052 148.196 85.1818V85.9458C148.196 86.0225 148.135 86.0827 148.059 86.0827Z" fill="#88B776"/>
<path d="M149.061 85.7544C148.984 85.7544 148.924 85.6942 148.924 85.6175V84.8508C148.924 84.7741 148.984 84.7139 149.061 84.7139C149.137 84.7139 149.198 84.7741 149.198 84.8508V85.6175C149.198 85.6942 149.137 85.7544 149.061 85.7544Z" fill="#88B776"/>
<path d="M149.807 85.4253C149.73 85.4253 149.67 85.3651 149.67 85.2884V84.5217C149.67 84.445 149.73 84.3848 149.807 84.3848C149.884 84.3848 149.944 84.445 149.944 84.5217V85.2884C149.944 85.3651 149.884 85.4253 149.807 85.4253Z" fill="#88B776"/>
<path d="M150.406 84.9927C150.33 84.9927 150.27 84.9325 150.27 84.8558V84.0891C150.27 84.0124 150.33 83.9521 150.406 83.9521C150.483 83.9521 150.543 84.0124 150.543 84.0891V84.8558C150.543 84.9325 150.483 84.9927 150.406 84.9927Z" fill="#88B776"/>
<path d="M134.832 84.4034C134.832 85.3508 138.373 85.8109 142.74 85.4302C147.108 85.0496 150.648 83.9707 150.648 83.0205V81.6377L134.832 83.0205V84.4034Z" fill="#499B2D"/>
<path d="M142.892 84.0427C147.26 83.6422 150.73 82.5544 150.644 81.6132C150.558 80.6719 146.947 80.2336 142.58 80.6341C138.212 81.0347 134.742 82.1224 134.828 83.0637C134.914 84.0049 138.525 84.4432 142.892 84.0427Z" fill="#B6D3AB"/>
<path d="M135.143 84.6202C135.066 84.6202 135.006 84.56 135.006 84.4833V83.7248C135.006 83.6481 135.066 83.5879 135.143 83.5879C135.219 83.5879 135.28 83.6481 135.28 83.7248V84.4833C135.28 84.56 135.219 84.6202 135.143 84.6202Z" fill="#88B776"/>
<path d="M135.885 84.9679C135.808 84.9679 135.748 84.9076 135.748 84.831V84.0725C135.748 83.9958 135.808 83.9355 135.885 83.9355C135.962 83.9355 136.022 83.9958 136.022 84.0725V84.831C136.022 84.9076 135.962 84.9679 135.885 84.9679Z" fill="#88B776"/>
<path d="M136.688 85.1564C136.611 85.1564 136.551 85.0961 136.551 85.0194V84.2609C136.551 84.1843 136.611 84.124 136.688 84.124C136.764 84.124 136.825 84.1843 136.825 84.2609V85.0194C136.825 85.0961 136.764 85.1564 136.688 85.1564Z" fill="#88B776"/>
<path d="M137.737 85.2968C137.66 85.2968 137.6 85.2365 137.6 85.1599V84.3986C137.6 84.322 137.66 84.2617 137.737 84.2617C137.813 84.2617 137.873 84.322 137.873 84.3986V85.1599C137.873 85.2365 137.813 85.2968 137.737 85.2968Z" fill="#88B776"/>
<path d="M139 85.3759C138.924 85.3759 138.863 85.3157 138.863 85.239V84.4777C138.863 84.4011 138.924 84.3408 139 84.3408C139.077 84.3408 139.137 84.4011 139.137 84.4777V85.239C139.137 85.3157 139.077 85.3759 139 85.3759Z" fill="#88B776"/>
<path d="M140.461 85.3818C140.384 85.3818 140.324 85.3215 140.324 85.2448V84.4836C140.324 84.4069 140.384 84.3467 140.461 84.3467C140.538 84.3467 140.598 84.4069 140.598 84.4836V85.2448C140.598 85.3215 140.538 85.3818 140.461 85.3818Z" fill="#88B776"/>
<path d="M142.092 85.3075C142.015 85.3075 141.955 85.2473 141.955 85.1706V84.4094C141.955 84.3327 142.015 84.2725 142.092 84.2725C142.169 84.2725 142.229 84.3327 142.229 84.4094V85.1706C142.229 85.2473 142.169 85.3075 142.092 85.3075Z" fill="#88B776"/>
<path d="M143.809 85.1462C143.732 85.1462 143.672 85.086 143.672 85.0093V84.2453C143.672 84.1686 143.732 84.1084 143.809 84.1084C143.885 84.1084 143.946 84.1686 143.946 84.2453V85.0093C143.946 85.086 143.885 85.1462 143.809 85.1462Z" fill="#88B776"/>
<path d="M145.406 84.9157C145.33 84.9157 145.27 84.8555 145.27 84.7788V84.0148C145.27 83.9382 145.33 83.8779 145.406 83.8779C145.483 83.8779 145.543 83.9382 145.543 84.0148V84.7788C145.543 84.8555 145.483 84.9157 145.406 84.9157Z" fill="#88B776"/>
<path d="M146.83 84.6364C146.754 84.6364 146.693 84.5762 146.693 84.4995V83.7355C146.693 83.6589 146.754 83.5986 146.83 83.5986C146.907 83.5986 146.967 83.6589 146.967 83.7355V84.4995C146.967 84.5762 146.907 84.6364 146.83 84.6364Z" fill="#88B776"/>
<path d="M148.059 84.322C147.982 84.322 147.922 84.2618 147.922 84.1851V83.4211C147.922 83.3444 147.982 83.2842 148.059 83.2842C148.135 83.2842 148.196 83.3444 148.196 83.4211V84.1851C148.196 84.2618 148.135 84.322 148.059 84.322Z" fill="#88B776"/>
<path d="M149.061 83.9907C148.984 83.9907 148.924 83.9305 148.924 83.8538V83.0871C148.924 83.0104 148.984 82.9502 149.061 82.9502C149.137 82.9502 149.198 83.0104 149.198 83.0871V83.8538C149.198 83.9305 149.137 83.9907 149.061 83.9907Z" fill="#88B776"/>
<path d="M149.807 83.6616C149.73 83.6616 149.67 83.6014 149.67 83.5247V82.758C149.67 82.6813 149.73 82.6211 149.807 82.6211C149.884 82.6211 149.944 82.6813 149.944 82.758V83.5247C149.944 83.6014 149.884 83.6616 149.807 83.6616Z" fill="#88B776"/>
<path d="M150.406 83.229C150.33 83.229 150.27 83.1688 150.27 83.0921V82.3254C150.27 82.2487 150.33 82.1885 150.406 82.1885C150.483 82.1885 150.543 82.2487 150.543 82.3254V83.0921C150.543 83.1688 150.483 83.229 150.406 83.229Z" fill="#88B776"/>
<path d="M134.834 82.6758C134.834 83.6233 138.375 84.0833 142.742 83.7027C147.11 83.3221 150.65 82.2432 150.65 81.293V79.9102L134.834 81.293V82.6758Z" fill="#499B2D"/>
<path d="M142.894 82.3142C147.262 81.9136 150.732 80.8259 150.646 79.8847C150.56 78.9434 146.949 78.5051 142.582 78.9056C138.214 79.3062 134.744 80.3939 134.83 81.3351C134.916 82.2764 138.527 82.7147 142.894 82.3142Z" fill="#B6D3AB"/>
<path d="M135.143 82.8927C135.066 82.8927 135.006 82.8324 135.006 82.7558V81.9973C135.006 81.9206 135.066 81.8604 135.143 81.8604C135.219 81.8604 135.28 81.9206 135.28 81.9973V82.7558C135.28 82.8324 135.219 82.8927 135.143 82.8927Z" fill="#88B776"/>
<path d="M135.885 83.2403C135.808 83.2403 135.748 83.1801 135.748 83.1034V82.3449C135.748 82.2683 135.808 82.208 135.885 82.208C135.962 82.208 136.022 82.2683 136.022 82.3449V83.1034C136.022 83.1801 135.962 83.2403 135.885 83.2403Z" fill="#88B776"/>
<path d="M136.688 83.4288C136.611 83.4288 136.551 83.3686 136.551 83.2919V82.5334C136.551 82.4567 136.611 82.3965 136.688 82.3965C136.764 82.3965 136.825 82.4567 136.825 82.5334V83.2919C136.825 83.3686 136.764 83.4288 136.688 83.4288Z" fill="#88B776"/>
<path d="M137.737 83.5693C137.66 83.5693 137.6 83.509 137.6 83.4323V82.6711C137.6 82.5944 137.66 82.5342 137.737 82.5342C137.813 82.5342 137.873 82.5944 137.873 82.6711V83.4323C137.873 83.509 137.813 83.5693 137.737 83.5693Z" fill="#88B776"/>
<path d="M139 83.6484C138.924 83.6484 138.863 83.5881 138.863 83.5114V82.7502C138.863 82.6735 138.924 82.6133 139 82.6133C139.077 82.6133 139.137 82.6735 139.137 82.7502V83.5114C139.137 83.5881 139.077 83.6484 139 83.6484Z" fill="#88B776"/>
<path d="M140.461 83.6542C140.384 83.6542 140.324 83.594 140.324 83.5173V82.7561C140.324 82.6794 140.384 82.6191 140.461 82.6191C140.538 82.6191 140.598 82.6794 140.598 82.7561V83.5173C140.598 83.594 140.538 83.6542 140.461 83.6542Z" fill="#88B776"/>
<path d="M142.092 83.58C142.015 83.58 141.955 83.5198 141.955 83.4431V82.6818C141.955 82.6052 142.015 82.5449 142.092 82.5449C142.169 82.5449 142.229 82.6052 142.229 82.6818V83.4431C142.229 83.5198 142.169 83.58 142.092 83.58Z" fill="#88B776"/>
<path d="M143.809 83.4187C143.732 83.4187 143.672 83.3584 143.672 83.2818V82.5178C143.672 82.4411 143.732 82.3809 143.809 82.3809C143.885 82.3809 143.946 82.4411 143.946 82.5178V83.2818C143.946 83.3584 143.885 83.4187 143.809 83.4187Z" fill="#88B776"/>
<path d="M145.406 83.1882C145.33 83.1882 145.27 83.128 145.27 83.0513V82.2873C145.27 82.2106 145.33 82.1504 145.406 82.1504C145.483 82.1504 145.543 82.2106 145.543 82.2873V83.0513C145.543 83.128 145.483 83.1882 145.406 83.1882Z" fill="#88B776"/>
<path d="M146.83 82.9089C146.754 82.9089 146.693 82.8487 146.693 82.772V82.008C146.693 81.9313 146.754 81.8711 146.83 81.8711C146.907 81.8711 146.967 81.9313 146.967 82.008V82.772C146.967 82.8487 146.907 82.9089 146.83 82.9089Z" fill="#88B776"/>
<path d="M148.059 82.5945C147.982 82.5945 147.922 82.5342 147.922 82.4575V81.6936C147.922 81.6169 147.982 81.5566 148.059 81.5566C148.135 81.5566 148.196 81.6169 148.196 81.6936V82.4575C148.196 82.5342 148.135 82.5945 148.059 82.5945Z" fill="#88B776"/>
<path d="M149.061 82.2632C148.984 82.2632 148.924 82.203 148.924 82.1263V81.3596C148.924 81.2829 148.984 81.2227 149.061 81.2227C149.137 81.2227 149.198 81.2829 149.198 81.3596V82.1263C149.198 82.203 149.137 82.2632 149.061 82.2632Z" fill="#88B776"/>
<path d="M149.807 81.9341C149.73 81.9341 149.67 81.8739 149.67 81.7972V81.0305C149.67 80.9538 149.73 80.8936 149.807 80.8936C149.884 80.8936 149.944 80.9538 149.944 81.0305V81.7972C149.944 81.8739 149.884 81.9341 149.807 81.9341Z" fill="#88B776"/>
<path d="M150.406 81.5015C150.33 81.5015 150.27 81.4412 150.27 81.3646V80.5979C150.27 80.5212 150.33 80.4609 150.406 80.4609C150.483 80.4609 150.543 80.5212 150.543 80.5979V81.3646C150.543 81.4412 150.483 81.5015 150.406 81.5015Z" fill="#88B776"/>
<path d="M134.832 80.7999C134.832 81.7473 138.373 82.2073 142.74 81.8267C147.108 81.4461 150.648 80.3672 150.648 79.417V78.0342L134.832 79.417V80.7999Z" fill="#499B2D"/>
<path d="M142.894 80.4372C147.262 80.0367 150.732 78.949 150.646 78.0077C150.56 77.0665 146.949 76.6281 142.582 77.0287C138.214 77.4292 134.744 78.5169 134.83 79.4582C134.916 80.3994 138.527 80.8378 142.894 80.4372Z" fill="#B6D3AB"/>
<path d="M135.143 81.0157C135.066 81.0157 135.006 80.9555 135.006 80.8788V80.1203C135.006 80.0436 135.066 79.9834 135.143 79.9834C135.219 79.9834 135.28 80.0436 135.28 80.1203V80.8788C135.28 80.9555 135.219 81.0157 135.143 81.0157Z" fill="#88B776"/>
<path d="M135.885 81.3634C135.808 81.3634 135.748 81.3032 135.748 81.2265V80.468C135.748 80.3913 135.808 80.3311 135.885 80.3311C135.962 80.3311 136.022 80.3913 136.022 80.468V81.2265C136.022 81.3032 135.962 81.3634 135.885 81.3634Z" fill="#88B776"/>
<path d="M136.688 81.5519C136.611 81.5519 136.551 81.4916 136.551 81.415V80.6564C136.551 80.5798 136.611 80.5195 136.688 80.5195C136.764 80.5195 136.825 80.5798 136.825 80.6564V81.415C136.825 81.4916 136.764 81.5519 136.688 81.5519Z" fill="#88B776"/>
<path d="M137.737 81.6923C137.66 81.6923 137.6 81.6321 137.6 81.5554V80.7941C137.6 80.7175 137.66 80.6572 137.737 80.6572C137.813 80.6572 137.873 80.7175 137.873 80.7941V81.5554C137.873 81.6321 137.813 81.6923 137.737 81.6923Z" fill="#88B776"/>
<path d="M139 81.7714C138.924 81.7714 138.863 81.7112 138.863 81.6345V80.8732C138.863 80.7966 138.924 80.7363 139 80.7363C139.077 80.7363 139.137 80.7966 139.137 80.8732V81.6345C139.137 81.7112 139.077 81.7714 139 81.7714Z" fill="#88B776"/>
<path d="M140.461 81.7773C140.384 81.7773 140.324 81.717 140.324 81.6403V80.8791C140.324 80.8024 140.384 80.7422 140.461 80.7422C140.538 80.7422 140.598 80.8024 140.598 80.8791V81.6403C140.598 81.717 140.538 81.7773 140.461 81.7773Z" fill="#88B776"/>
<path d="M142.092 81.703C142.015 81.703 141.955 81.6428 141.955 81.5661V80.8049C141.955 80.7282 142.015 80.668 142.092 80.668C142.169 80.668 142.229 80.7282 142.229 80.8049V81.5661C142.229 81.6428 142.169 81.703 142.092 81.703Z" fill="#88B776"/>
<path d="M143.809 81.5417C143.732 81.5417 143.672 81.4815 143.672 81.4048V80.6408C143.672 80.5641 143.732 80.5039 143.809 80.5039C143.885 80.5039 143.946 80.5641 143.946 80.6408V81.4048C143.946 81.4815 143.885 81.5417 143.809 81.5417Z" fill="#88B776"/>
<path d="M145.406 81.3112C145.33 81.3112 145.27 81.251 145.27 81.1743V80.4104C145.27 80.3337 145.33 80.2734 145.406 80.2734C145.483 80.2734 145.543 80.3337 145.543 80.4104V81.1743C145.543 81.251 145.483 81.3112 145.406 81.3112Z" fill="#88B776"/>
<path d="M146.83 81.032C146.754 81.032 146.693 80.9717 146.693 80.895V80.1311C146.693 80.0544 146.754 79.9941 146.83 79.9941C146.907 79.9941 146.967 80.0544 146.967 80.1311V80.895C146.967 80.9717 146.907 81.032 146.83 81.032Z" fill="#88B776"/>
<path d="M148.059 80.7175C147.982 80.7175 147.922 80.6573 147.922 80.5806V79.8166C147.922 79.7399 147.982 79.6797 148.059 79.6797C148.135 79.6797 148.196 79.7399 148.196 79.8166V80.5806C148.196 80.6573 148.135 80.7175 148.059 80.7175Z" fill="#88B776"/>
<path d="M149.061 80.3863C148.984 80.3863 148.924 80.326 148.924 80.2493V79.4826C148.924 79.4059 148.984 79.3457 149.061 79.3457C149.137 79.3457 149.198 79.4059 149.198 79.4826V80.2493C149.198 80.326 149.137 80.3863 149.061 80.3863Z" fill="#88B776"/>
<path d="M149.807 80.0572C149.73 80.0572 149.67 79.9969 149.67 79.9202V79.1535C149.67 79.0768 149.73 79.0166 149.807 79.0166C149.884 79.0166 149.944 79.0768 149.944 79.1535V79.9202C149.944 79.9969 149.884 80.0572 149.807 80.0572Z" fill="#88B776"/>
<path d="M150.406 79.6245C150.33 79.6245 150.27 79.5643 150.27 79.4876V78.7209C150.27 78.6442 150.33 78.584 150.406 78.584C150.483 78.584 150.543 78.6442 150.543 78.7209V79.4876C150.543 79.5643 150.483 79.6245 150.406 79.6245Z" fill="#88B776"/>
<path d="M97.8555 43.3791C105.346 44.616 145.473 51.2734 150.951 51.6082C151.055 51.6137 151.739 51.7022 152.013 51.5556C151.983 50.9081 151.731 50.3326 150.707 50.2219L97.8609 41.6553L97.8555 43.3791Z" fill="#EED5AF"/>
<path d="M35.9426 33.1459C35.3018 33.0693 34.7925 32.8091 34.6529 32.5654C34.6173 32.716 34.5899 32.8776 34.5789 33.0528C34.5324 33.8387 35.0855 34.5452 35.6578 34.663L91.8448 43.6774C91.8858 43.242 91.9023 42.8477 91.905 42.4835L35.9426 33.1459Z" fill="#EA9E06"/>
<path d="M91.9064 42.4833C91.9092 41.8014 91.8572 41.2373 91.775 40.791L36.5738 31.8697C35.0294 31.5274 34.6981 32.4036 34.6543 32.5652C34.6954 32.8061 35.3224 33.08 35.944 33.1457L91.9064 42.4833Z" fill="#EED5AF"/>
<path d="M25.3445 78.547C25.3445 81.3839 35.9362 82.7585 49.0006 81.6166C62.065 80.4748 72.6567 77.2463 72.6567 74.4095V71.8848L25.3418 76.0251V78.5498L25.3445 78.547Z" fill="#EA9E06"/>
<path d="M48.5039 37.6505L70.0214 70.091L72.6556 71.8846C72.6556 71.8846 50.3194 38.2064 49.4514 36.8975L48.5039 37.6505Z" fill="#EA9E06"/>
<path d="M48.7695 38.0444L70.0214 70.0878L70.9579 70.3945C70.9579 70.3945 49.9744 38.7837 49.1063 37.4775L48.7695 38.0471V38.0444Z" fill="#CC9A4A"/>
<path d="M49.4644 79.0511C62.5274 77.8531 72.9078 74.6001 72.6497 71.7854C72.3915 68.9707 61.5926 67.6601 48.5296 68.8581C35.4666 70.0562 25.0862 73.3091 25.3444 76.1238C25.6025 78.9385 36.4014 80.2491 49.4644 79.0511Z" fill="#EEB138"/>
<path d="M25.692 76.8737L49.4521 36.8974C49.4412 36.8782 49.1098 36.3525 48.9264 36.0595C48.8716 35.9719 48.7429 35.9746 48.6909 36.0622L25.3935 75.6798C25.3935 75.6798 25.3114 75.918 25.3825 76.3479C25.4291 76.6355 25.6892 76.8737 25.6892 76.8737H25.692Z" fill="#EED5AF"/>
<path d="M25.6922 76.8735L49.4524 36.8972C49.4359 36.8726 49.3017 36.6699 49.3017 36.6699L25.3965 76.3998C25.3965 76.3998 25.4403 76.575 25.517 76.6873C25.5827 76.7859 25.6922 76.8735 25.6922 76.8735Z" fill="#EA9E06"/>
<path d="M40.832 75.4024C40.832 76.3498 44.3726 76.8099 48.7402 76.4292C53.1078 76.0486 56.6484 74.9697 56.6484 74.0196V72.6367L40.832 74.0196V75.4024Z" fill="#499B2D"/>
<path d="M48.8923 75.0349C53.2597 74.6343 56.7302 73.5466 56.6439 72.6054C56.5576 71.6641 52.9471 71.2258 48.5797 71.6263C44.2123 72.0269 40.7419 73.1146 40.8282 74.0558C40.9145 74.9971 44.5249 75.4354 48.8923 75.0349Z" fill="#B6D3AB"/>
<path d="M41.1408 75.6222C41.0641 75.6222 41.0039 75.5619 41.0039 75.4853V74.7268C41.0039 74.6501 41.0641 74.5898 41.1408 74.5898C41.2175 74.5898 41.2777 74.6501 41.2777 74.7268V75.4853C41.2777 75.5619 41.2175 75.6222 41.1408 75.6222Z" fill="#88B776"/>
<path d="M41.8791 75.9669C41.8024 75.9669 41.7422 75.9067 41.7422 75.83V75.0715C41.7422 74.9948 41.8024 74.9346 41.8791 74.9346C41.9558 74.9346 42.016 74.9948 42.016 75.0715V75.83C42.016 75.9067 41.9558 75.9669 41.8791 75.9669Z" fill="#88B776"/>
<path d="M42.6818 76.1583C42.6052 76.1583 42.5449 76.0981 42.5449 76.0214V75.2629C42.5449 75.1862 42.6052 75.126 42.6818 75.126C42.7585 75.126 42.8187 75.1862 42.8187 75.2629V76.0214C42.8187 76.0981 42.7585 76.1583 42.6818 76.1583Z" fill="#88B776"/>
<path d="M43.7307 76.2958C43.654 76.2958 43.5938 76.2356 43.5938 76.1589V75.3977C43.5938 75.321 43.654 75.2607 43.7307 75.2607C43.8073 75.2607 43.8676 75.321 43.8676 75.3977V76.1589C43.8676 76.2356 43.8073 76.2958 43.7307 76.2958Z" fill="#88B776"/>
<path d="M44.9963 76.3749C44.9196 76.3749 44.8594 76.3147 44.8594 76.238V75.4768C44.8594 75.4001 44.9196 75.3398 44.9963 75.3398C45.073 75.3398 45.1332 75.4001 45.1332 75.4768V76.238C45.1332 76.3147 45.073 76.3749 44.9963 76.3749Z" fill="#88B776"/>
<path d="M46.4592 76.3837C46.3825 76.3837 46.3223 76.3235 46.3223 76.2468V75.4855C46.3223 75.4089 46.3825 75.3486 46.4592 75.3486C46.5359 75.3486 46.5961 75.4089 46.5961 75.4855V76.2468C46.5961 76.3235 46.5359 76.3837 46.4592 76.3837Z" fill="#88B776"/>
<path d="M48.0881 76.3095C48.0114 76.3095 47.9512 76.2492 47.9512 76.1726V75.4113C47.9512 75.3347 48.0114 75.2744 48.0881 75.2744C48.1648 75.2744 48.225 75.3347 48.225 75.4113V76.1726C48.225 76.2492 48.1648 76.3095 48.0881 76.3095Z" fill="#88B776"/>
<path d="M49.8068 76.1482C49.7302 76.1482 49.6699 76.0879 49.6699 76.0112V75.2473C49.6699 75.1706 49.7302 75.1104 49.8068 75.1104C49.8835 75.1104 49.9437 75.1706 49.9437 75.2473V76.0112C49.9437 76.0879 49.8835 76.1482 49.8068 76.1482Z" fill="#88B776"/>
<path d="M51.4006 75.9177C51.3239 75.9177 51.2637 75.8575 51.2637 75.7808V75.0168C51.2637 74.9401 51.3239 74.8799 51.4006 74.8799C51.4773 74.8799 51.5375 74.9401 51.5375 75.0168V75.7808C51.5375 75.8575 51.4773 75.9177 51.4006 75.9177Z" fill="#88B776"/>
<path d="M52.8283 75.6355C52.7516 75.6355 52.6914 75.5752 52.6914 75.4986V74.7346C52.6914 74.6579 52.7516 74.5977 52.8283 74.5977C52.905 74.5977 52.9652 74.6579 52.9652 74.7346V75.4986C52.9652 75.5752 52.905 75.6355 52.8283 75.6355Z" fill="#88B776"/>
<path d="M54.0568 75.321C53.9802 75.321 53.9199 75.2608 53.9199 75.1841V74.4201C53.9199 74.3434 53.9802 74.2832 54.0568 74.2832C54.1335 74.2832 54.1938 74.3434 54.1938 74.4201V75.1841C54.1938 75.2608 54.1335 75.321 54.0568 75.321Z" fill="#88B776"/>
<path d="M55.0568 74.9898C54.9802 74.9898 54.9199 74.9295 54.9199 74.8529V74.0861C54.9199 74.0095 54.9802 73.9492 55.0568 73.9492C55.1335 73.9492 55.1938 74.0095 55.1938 74.0861V74.8529C55.1938 74.9295 55.1335 74.9898 55.0568 74.9898Z" fill="#88B776"/>
<path d="M55.8049 74.6607C55.7282 74.6607 55.668 74.6004 55.668 74.5238V73.757C55.668 73.6804 55.7282 73.6201 55.8049 73.6201C55.8816 73.6201 55.9418 73.6804 55.9418 73.757V74.5238C55.9418 74.6004 55.8816 74.6607 55.8049 74.6607Z" fill="#88B776"/>
<path d="M56.4045 74.231C56.3278 74.231 56.2676 74.1707 56.2676 74.0941V73.3273C56.2676 73.2507 56.3278 73.1904 56.4045 73.1904C56.4812 73.1904 56.5414 73.2507 56.5414 73.3273V74.0941C56.5414 74.1707 56.4812 74.231 56.4045 74.231Z" fill="#88B776"/>
<path d="M40.832 73.6915C40.832 74.6389 44.3726 75.0989 48.7402 74.7183C53.1078 74.3377 56.6484 73.2588 56.6484 72.3086V70.9258L40.832 72.3086V73.6915Z" fill="#499B2D"/>
<path d="M48.8923 73.322C53.2597 72.9215 56.7302 71.8337 56.6439 70.8925C56.5576 69.9512 52.9471 69.5129 48.5797 69.9134C44.2123 70.314 40.7419 71.4017 40.8282 72.343C40.9145 73.2842 44.5249 73.7225 48.8923 73.322Z" fill="#B6D3AB"/>
<path d="M41.1408 73.9073C41.0641 73.9073 41.0039 73.8471 41.0039 73.7704V73.0119C41.0039 72.9352 41.0641 72.875 41.1408 72.875C41.2175 72.875 41.2777 72.9352 41.2777 73.0119V73.7704C41.2777 73.8471 41.2175 73.9073 41.1408 73.9073Z" fill="#88B776"/>
<path d="M41.8811 74.255C41.8044 74.255 41.7441 74.1947 41.7441 74.1181V73.3596C41.7441 73.2829 41.8044 73.2227 41.8811 73.2227C41.9577 73.2227 42.018 73.2829 42.018 73.3596V74.1181C42.018 74.1947 41.9577 74.255 41.8811 74.255Z" fill="#88B776"/>
<path d="M42.6818 74.4435C42.6052 74.4435 42.5449 74.3832 42.5449 74.3066V73.548C42.5449 73.4714 42.6052 73.4111 42.6818 73.4111C42.7585 73.4111 42.8187 73.4714 42.8187 73.548V74.3066C42.8187 74.3832 42.7585 74.4435 42.6818 74.4435Z" fill="#88B776"/>
<path d="M43.7307 74.5839C43.654 74.5839 43.5938 74.5237 43.5938 74.447V73.6857C43.5938 73.6091 43.654 73.5488 43.7307 73.5488C43.8073 73.5488 43.8676 73.6091 43.8676 73.6857V74.447C43.8676 74.5237 43.8073 74.5839 43.7307 74.5839Z" fill="#88B776"/>
<path d="M44.9963 74.6601C44.9196 74.6601 44.8594 74.5998 44.8594 74.5232V73.7619C44.8594 73.6852 44.9196 73.625 44.9963 73.625C45.073 73.625 45.1332 73.6852 45.1332 73.7619V74.5232C45.1332 74.5998 45.073 74.6601 44.9963 74.6601Z" fill="#88B776"/>
<path d="M46.4592 74.6689C46.3825 74.6689 46.3223 74.6086 46.3223 74.5319V73.7707C46.3223 73.694 46.3825 73.6338 46.4592 73.6338C46.5359 73.6338 46.5961 73.694 46.5961 73.7707V74.5319C46.5961 74.6086 46.5359 74.6689 46.4592 74.6689Z" fill="#88B776"/>
<path d="M48.0881 74.5946C48.0114 74.5946 47.9512 74.5344 47.9512 74.4577V73.6965C47.9512 73.6198 48.0114 73.5596 48.0881 73.5596C48.1648 73.5596 48.225 73.6198 48.225 73.6965V74.4577C48.225 74.5344 48.1648 74.5946 48.0881 74.5946Z" fill="#88B776"/>
<path d="M49.8068 74.4333C49.7302 74.4333 49.6699 74.3731 49.6699 74.2964V73.5324C49.6699 73.4558 49.7302 73.3955 49.8068 73.3955C49.8835 73.3955 49.9437 73.4558 49.9437 73.5324V74.2964C49.9437 74.3731 49.8835 74.4333 49.8068 74.4333Z" fill="#88B776"/>
<path d="M51.4006 74.2029C51.3239 74.2029 51.2637 74.1426 51.2637 74.0659V73.302C51.2637 73.2253 51.3239 73.165 51.4006 73.165C51.4773 73.165 51.5375 73.2253 51.5375 73.302V74.0659C51.5375 74.1426 51.4773 74.2029 51.4006 74.2029Z" fill="#88B776"/>
<path d="M52.8283 73.9206C52.7516 73.9206 52.6914 73.8604 52.6914 73.7837V73.0197C52.6914 72.9431 52.7516 72.8828 52.8283 72.8828C52.905 72.8828 52.9652 72.9431 52.9652 73.0197V73.7837C52.9652 73.8604 52.905 73.9206 52.8283 73.9206Z" fill="#88B776"/>
<path d="M54.0568 73.6062C53.9802 73.6062 53.9199 73.5459 53.9199 73.4693V72.7053C53.9199 72.6286 53.9802 72.5684 54.0568 72.5684C54.1335 72.5684 54.1938 72.6286 54.1938 72.7053V73.4693C54.1938 73.5459 54.1335 73.6062 54.0568 73.6062Z" fill="#88B776"/>
<path d="M55.0568 73.2779C54.9802 73.2779 54.9199 73.2176 54.9199 73.1409V72.3742C54.9199 72.2975 54.9802 72.2373 55.0568 72.2373C55.1335 72.2373 55.1938 72.2975 55.1938 72.3742V73.1409C55.1938 73.2176 55.1335 73.2779 55.0568 73.2779Z" fill="#88B776"/>
<path d="M55.8049 72.9488C55.7282 72.9488 55.668 72.8885 55.668 72.8118V72.0451C55.668 71.9684 55.7282 71.9082 55.8049 71.9082C55.8816 71.9082 55.9418 71.9684 55.9418 72.0451V72.8118C55.9418 72.8885 55.8816 72.9488 55.8049 72.9488Z" fill="#88B776"/>
<path d="M56.4045 72.5161C56.3278 72.5161 56.2676 72.4559 56.2676 72.3792V71.6125C56.2676 71.5358 56.3278 71.4756 56.4045 71.4756C56.4812 71.4756 56.5414 71.5358 56.5414 71.6125V72.3792C56.5414 72.4559 56.4812 72.5161 56.4045 72.5161Z" fill="#88B776"/>
</g>
<defs>
<clipPath id="clip0_2175_110504">
<rect width="180" height="180" fill="white"/>
</clipPath>
</defs>
</svg>
