<svg width="58" height="58" viewBox="0 0 58 58" fill="none" xmlns="http://www.w3.org/2000/svg">
<path d="M36.2498 33.8332C29.7973 33.8332 16.9165 37.0473 16.9165 43.4998V48.3332H55.5832V43.4998C55.5832 37.0473 42.7023 33.8332 36.2498 33.8332ZM14.4998 24.1665V16.9165H9.6665V24.1665H2.4165V28.9998H9.6665V36.2498H14.4998V28.9998H21.7498V24.1665M36.2498 28.9998C38.8136 28.9998 41.2724 27.9814 43.0852 26.1685C44.8981 24.3557 45.9165 21.8969 45.9165 19.3332C45.9165 16.7694 44.8981 14.3107 43.0852 12.4978C41.2724 10.685 38.8136 9.6665 36.2498 9.6665C33.6861 9.6665 31.2273 10.685 29.4145 12.4978C27.6016 14.3107 26.5832 16.7694 26.5832 19.3332C26.5832 21.8969 27.6016 24.3557 29.4145 26.1685C31.2273 27.9814 33.6861 28.9998 36.2498 28.9998Z" fill="url(#paint0_linear_4502_48919)"/>
<defs>
<linearGradient id="paint0_linear_4502_48919" x1="48.4293" y1="-2.76203" x2="-9.06778" y2="2.89408" gradientUnits="userSpaceOnUse">
<stop stop-color="#0055DD"/>
<stop offset="1" stop-color="#4296F8"/>
</linearGradient>
</defs>
</svg>
