<svg width="84" height="80" viewBox="0 0 84 80" fill="none" xmlns="http://www.w3.org/2000/svg">
<path d="M41.998 60.3092C64.7028 58.1213 83.1125 60.3549 83.1125 65.2927L41.998 60.3092Z" fill="#EA9E06"/>
<path d="M0.883789 66.4937V73.212C0.883789 78.1498 19.2899 80.3835 41.9982 78.1955C64.703 76.0076 83.1127 70.2339 83.1127 65.2926V58.5742" fill="#EA9E06"/>
<path d="M38.5531 0.0159912L45.6086 13.6353L61.3913 14.4115L49.9704 26.6401L52.6676 42.0962L38.5531 36.0381L24.4385 44.8145L27.1322 28.8386L15.7148 18.8085L31.4941 14.9945L38.5531 0.0159912Z" fill="#EA9E06"/>
<path opacity="0.2" d="M38.5531 0.0159912L45.6086 13.6353L61.3913 14.4115L49.9704 26.6401L52.6676 42.0962L38.5531 36.0381L24.4385 44.8145L27.1322 28.8386L15.7148 18.8085L31.4941 14.9945L38.5531 0.0159912Z" fill="white"/>
<path d="M42.0003 2.92035L49.0559 16.5397L64.8386 17.3158L53.4177 29.5445L56.1149 45.0041L42.0003 38.9425L27.8858 47.7223L30.5795 31.743L19.1621 21.7128L34.9413 17.8988L42.0003 2.92035Z" fill="#EA9E06"/>
<path d="M42.8947 71.3894C65.5965 69.0955 83.5994 63.2717 83.1053 58.3816C82.6112 53.4916 63.8071 51.3871 41.1053 53.681C18.4035 55.975 0.400568 61.7988 0.894694 66.6888C1.38882 71.5788 20.1929 73.6834 42.8947 71.3894Z" fill="#EA9E06"/>
<path opacity="0.2" d="M42.8947 71.3894C65.5965 69.0955 83.5994 63.2717 83.1053 58.3816C82.6112 53.4916 63.8071 51.3871 41.1053 53.681C18.4035 55.975 0.400568 61.7988 0.894694 66.6888C1.38882 71.5788 20.1929 73.6834 42.8947 71.3894Z" fill="white"/>
<path d="M15.7148 18.8085L19.1601 21.7129L34.9393 17.8989L31.4941 14.9945L15.7148 18.8085Z" fill="#EA9E06"/>
<path d="M15.7148 18.8085L19.1601 21.7129L34.9393 17.8989L31.4941 14.9945L15.7148 18.8085Z" fill="#EED5AF"/>
<path d="M38.5532 0.0159912L41.9984 2.92038L34.9394 17.8989L31.4941 14.9945L38.5532 0.0159912Z" fill="#EA9E06"/>
<path opacity="0.2" d="M38.5532 0.0159912L41.9984 2.92038L34.9394 17.8989L31.4941 14.9945L38.5532 0.0159912Z" fill="white"/>
<path d="M30.5764 31.7429L27.1312 28.8386L24.4375 44.8144L27.8827 47.7223L30.5764 31.7429Z" fill="#EA9E06"/>
<path opacity="0.2" d="M30.5764 31.7429L27.1312 28.8386L24.4375 44.8144L27.8827 47.7223L30.5764 31.7429Z" fill="white"/>
<path d="M49.0536 16.5397L47.5996 13.7336L61.391 14.4114L64.8363 17.3158L49.0536 16.5397Z" fill="#EA9E06"/>
<path d="M49.0536 16.5397L47.5996 13.7336L61.391 14.4114L64.8363 17.3158L49.0536 16.5397Z" fill="#EED5AF"/>
</svg>
