<svg width="113" height="127" viewBox="0 0 113 127" fill="none" xmlns="http://www.w3.org/2000/svg">
<path d="M59.382 106.259V115.226C59.382 119.196 62.602 122.106 66.572 121.723C70.542 121.339 73.762 117.813 73.762 113.843C73.762 112.559 74.6554 111.433 75.982 111.306C77.3787 111.173 78.0687 112.143 78.0687 113.429C78.0687 119.776 72.922 125.419 66.5754 126.029C60.2287 126.639 55.082 121.989 55.082 115.643V35.3193C55.082 34.916 55.3887 34.5793 55.792 34.5393L58.5287 34.276C58.9887 34.2327 59.3887 34.5927 59.3887 35.056V106.259" fill="#4797C2"/>
<g opacity="0.2">
<path d="M59.382 106.259V115.226C59.382 119.196 62.602 122.106 66.572 121.723C70.542 121.339 73.762 117.813 73.762 113.843C73.762 112.559 74.6554 111.433 75.982 111.306C77.3787 111.173 78.0687 112.143 78.0687 113.429C78.0687 119.776 72.922 125.419 66.5754 126.029C60.2287 126.639 55.082 121.989 55.082 115.643V35.3193C55.082 34.916 55.3887 34.5793 55.792 34.5393L58.5287 34.276C58.9887 34.2327 59.3887 34.5927 59.3887 35.056V106.259" fill="white"/>
</g>
<path d="M56.6548 116.072V35.2656C56.6548 34.7922 56.2415 34.4289 55.7715 34.4889H55.7615C55.3715 34.5389 55.0781 34.8722 55.0781 35.2689V115.612C55.0781 115.762 55.0781 115.912 55.0881 116.062C55.1281 117.066 56.5981 117.079 56.6581 116.079L56.6548 116.072Z" fill="#BCD0E1"/>
<path d="M68.8075 122.469C74.4141 120.916 76.6808 115.123 76.7675 113.786C76.8041 113.226 77.1041 112.096 76.4208 111.516L75.8575 111.353C74.6008 111.536 73.7641 112.633 73.7641 113.873C73.7641 117.843 70.5441 121.373 66.5741 121.753C65.0575 121.899 63.6541 121.563 62.4941 120.873C63.6775 122.119 65.6975 123.329 68.8075 122.466V122.469Z" fill="#4797C2"/>
<path d="M112.591 50.2031C112.597 50.6798 112.171 51.0631 111.701 50.9898C110.804 50.8498 109.741 50.8631 108.057 51.9731C106.007 53.2465 103.961 57.5631 103.397 61.8265C103.314 62.4465 102.607 62.7231 102.114 62.3398C100.397 60.9931 97.0175 59.9231 94.0608 60.7798C90.3275 61.7631 87.6375 64.8531 86.7641 68.8898C86.6175 69.5631 85.7341 69.7398 85.3541 69.1631C83.7741 66.7498 80.6241 64.7598 75.3808 65.0865C70.8275 65.0865 66.1475 68.5131 64.4108 72.6231C64.1441 73.2565 63.2575 73.2698 62.9775 72.6398C61.1041 68.3998 55.7775 64.6798 48.9008 64.6798C43.4175 64.6798 38.2641 67.9465 36.2741 71.6498C35.9441 72.2598 35.0708 72.2031 34.8408 71.5465C33.1908 66.8231 28.2375 63.2565 24.1075 63.2565C19.9775 63.2565 16.5475 64.9698 14.8941 67.4565C14.5108 68.0365 13.6408 67.8865 13.4775 67.2131C12.3975 62.7765 9.30079 59.5765 5.64079 59.5765C3.86413 59.5765 2.28413 59.9331 1.26413 60.4931C0.730794 60.7865 0.0807929 60.3831 0.104126 59.7765C1.26746 29.6131 25.9941 3.22646 56.3308 0.306457C87.0908 -2.65688 112.084 19.6198 112.591 50.2098V50.2031Z" fill="#5FA2C0"/>
<path opacity="0.3" d="M13.834 70.6731C13.834 32.7431 32.7606 0.299805 56.2773 0.299805C44.7106 0.299805 35.354 33.6198 35.354 74.7998C35.354 68.5598 29.094 63.2531 24.054 63.2531C18.404 63.2531 13.834 66.5731 13.834 70.6731Z" fill="white"/>
<path opacity="0.2" d="M56.3179 0.299805C60.3945 0.299805 63.6945 34.1198 63.6945 75.9131C63.6945 70.5265 57.5112 64.6798 48.8879 64.6798C41.8679 64.6798 35.3945 70.0298 35.3945 74.8031C35.3945 33.6231 44.7545 0.303139 56.3179 0.303139" fill="white"/>
<path d="M56.3275 0.300209C29.8808 3.37021 15.9875 31.1835 13.9208 67.4969C13.9075 67.7535 13.5675 67.8235 13.4708 67.5835C11.9441 63.8635 9.79746 59.7502 5.64079 59.5669C3.86413 59.5669 2.28413 59.9235 1.26413 60.4835C0.730794 60.7769 0.0807929 60.3735 0.104126 59.7669C1.26746 29.6035 25.9941 3.21688 56.3308 0.296875L56.3275 0.300209Z" fill="#BCD0E1"/>
<path opacity="0.05" d="M56.3276 0.299805C72.4742 0.299805 85.6309 30.3498 86.4209 68.1898C86.4375 68.9465 85.4742 69.2865 85.0142 68.6865C83.3442 66.4931 80.2709 64.7831 75.3776 65.0898C69.6409 65.0898 63.7009 70.5298 63.7009 75.9165C63.7009 34.1231 60.4009 0.303139 56.3242 0.303139" fill="white"/>
<path opacity="0.05" d="M66.78 0.263373C92.5633 2.62337 112.143 23.1634 112.59 50.2034C112.597 50.68 112.17 51.0634 111.7 50.99C110.803 50.85 109.74 50.8634 108.057 51.9734C105.65 53.4667 103.247 59.16 103.247 64.0334C103.247 33.5434 87.5266 8.09004 66.4833 1.79671C65.5733 1.52337 65.8333 0.180041 66.78 0.266707V0.263373Z" fill="white"/>
</svg>
