<svg width="83" height="137" viewBox="0 0 83 137" fill="none" xmlns="http://www.w3.org/2000/svg">
<path d="M26.2384 37.8921H24.5511V13.9337C24.5511 7.08783 30.2919 0.96326 37.3444 0.284158C40.8791 -0.0575024 44.1903 0.988566 46.6578 3.22834C49.0072 5.36266 50.3022 8.34058 50.3022 11.618V35.5511H48.615V11.618C48.615 8.82565 47.5183 6.28641 45.5232 4.47687C43.4141 2.56189 40.567 1.66767 37.5089 1.96293C31.2958 2.56189 26.2426 7.93144 26.2426 13.9337V37.8921H26.2384Z" fill="#4797C2"/>
<path d="M70.9955 33.5898L0.980469 40.3345V127.854L70.9955 121.114V33.5898Z" fill="#82B3D8"/>
<path d="M12.6475 136.606L6.814 121.113L0.980469 127.854L12.6475 136.606Z" fill="#82B3D8"/>
<path d="M33.3835 51.5881H31.6963V22.6524C31.6963 15.8066 37.437 9.68201 44.4896 9.00291C48.0243 8.66125 51.3354 9.70732 53.8029 11.9471C56.1524 14.0814 57.4473 17.0593 57.4473 20.3367V49.2724H55.7601V20.3367C55.7601 17.5444 54.6634 15.0052 52.6683 13.1956C50.5593 11.2806 47.7121 10.3864 44.6541 10.6817C38.4409 11.2806 33.3877 16.6502 33.3877 22.6524V51.5881H33.3835Z" fill="#4797C2"/>
<path d="M0.980469 40.334L7.78836 44.6575L6.814 121.113L0.980469 127.854V40.334Z" fill="#BCD0E1"/>
<path d="M12.6476 49.0829L7.78845 44.6582L6.81409 121.114L12.6476 136.607V49.0829Z" fill="#4797C2"/>
<path d="M70.9956 33.5898L75.4288 38.449L82.6669 42.3422L70.9956 43.4685V33.5898Z" fill="#BCD0E1"/>
<path d="M75.4288 38.449V43.0382L70.9956 43.4685V33.5898L75.4288 38.449Z" fill="#4797C2"/>
<path d="M82.6668 42.3418L12.6476 49.0822V136.606L82.6668 129.866V42.3418Z" fill="#BCD0E1"/>
</svg>
